<mxfile host="Electron" modified="2024-03-02T16:50:17.464Z" agent="Mozilla/5.0 (Windows NT 10.0; Win64; x64) AppleWebKit/537.36 (KHTML, like Gecko) draw.io/23.1.5 Chrome/120.0.6099.109 Electron/28.1.0 Safari/537.36" etag="QxcsW3FEL5PEJHENY5w5" version="23.1.5" type="device">
  <diagram name="Page-1" id="ev494u1EvnT4NWaHmaY3">
    <mxGraphModel dx="1725" dy="524" grid="1" gridSize="10" guides="1" tooltips="1" connect="1" arrows="1" fold="1" page="1" pageScale="1" pageWidth="850" pageHeight="1100" math="0" shadow="0">
      <root>
        <mxCell id="0" />
        <mxCell id="1" parent="0" />
        <mxCell id="OGZzgrUzzfipdHDDwRRy-1" value="" style="shape=image;verticalLabelPosition=bottom;labelBackgroundColor=default;verticalAlign=top;aspect=fixed;imageAspect=0;image=data:image/jpeg,/9j/6zLrSlCpAAAAAAAAADLhanVtYgAAAB5qdW1kYzJwYQARABCAAACqADibcQNjMnBhAAAAMrtqdW1iAAAAR2p1bWRjMm1hABEAEIAAAKoAOJtxA3Vybjp1dWlkOjkzM2U1MWQ5LTkwZjEtNDczMC1iZDJhLWUxZTJlY2JlZjEwNgAAAAQianVtYgAAAClqdW1kYzJhcwARABCAAACqADibcQNjMnBhLmFzc2VydGlvbnMAAAADIGp1bWIAAABBanVtZGNib3IAEQAQgAAAqgA4m3ETYzJwYS5oYXNoLmJveGVzAAAAABhjMnNomlfU8lwdnWm9b6GuGYIn+AAAAtdjYm9yomNhbGdmc2hhMjU2ZWJveGVzjaNlbmFtZXOBY1NPSWRoYXNoWCBxVjrYAGFAft6cbzFoNihL03EKUgxaeSte2hy3A2kIFWNwYWRAo2VuYW1lc4FkQzJQQWRoYXNoQQBjcGFkQKNlbmFtZXOBZEFQUDBkaGFzaFggpbugkv/qGbiwV/poyU2sCfAca0V95uZnpd4l6rlbtBpjcGFkQKNlbmFtZXOBZEFQUDFkaGFzaFggow7IX4ji/mamhqg8tPHBxtfwMx9F36Y1MdJKk/zMChNjcGFkQKNlbmFtZXOBY0RRVGRoYXNoWCCz6roXFIfVkeIcYArL/vOFvekosqTDT8EkyxRHkqwE22NwYWRAo2VuYW1lc4FjRFFUZGhhc2hYIAriPEsLiEpOgbUZmp9jrt497yq0OR7gZ2AX0+76cthNY3BhZECjZW5hbWVzgWRTT0YwZGhhc2hYIEOZIfOKtsMxQseaNacrnLcTTB8dbyaLAxbzRV5+xedVY3BhZECjZW5hbWVzgWNESFRkaGFzaFggi33gSmKpOgwEasSxD71IHV762BXSHCZWJT7LoAa233BjcGFkQKNlbmFtZXOBY0RIVGRoYXNoWCAqabdjzjoE8U/M1CiRaSX4mnCr/X6/ak691R9jR4ft42NwYWRAo2VuYW1lc4FjREhUZGhhc2hYIPNXdg8p1I1tkgB5cC7JtIgNxzQTJvEup/Xr9nXv0aHsY3BhZECjZW5hbWVzgWNESFRkaGFzaFggYn9oeDtfUFm8zmTdUOIdC564oIMFHxBdaoCnYM0qVk5jcGFkQKNlbmFtZXOBY1NPU2RoYXNoWCBovzaovpekvaFieeU1eO4Limz1KoZkBCwWhjGBMhDK72NwYWRAo2VuYW1lc4FjRU9JZGhhc2hYIM3mbnjlQZ3qdN989D2aqHa4xmnUAGeZLnGc75CsXz/gY3BhZEAAAADRanVtYgAAAD5qdW1kY2JvcgARABCAAACqADibcRNjMnBhLmFjdGlvbnMAAAAAGGMyc2iaV9TyXB2dab1voa4Zgif4AAAAi2Nib3KhZ2FjdGlvbnOBpGtkZXNjcmlwdGlvbnJBSSBHZW5lcmF0ZWQgSW1hZ2VmYWN0aW9ubGMycGEuY3JlYXRlZG1zb2Z0d2FyZUFnZW50eBtJbWFnZSBDcmVhdG9yIGZyb20gRGVzaWduZXJkd2hlbnQyMDI0LTAzLTAyVDE1OjM2OjE2WgAAAnJqdW1iAAAAJGp1bWRjMmNsABEAEIAAAKoAOJtxA2MycGEuY2xhaW0AAAACRmNib3KnY2FsZ2ZzaGEyNTZpZGM6Zm9ybWF0amltYWdlL2pwZWdpc2lnbmF0dXJleExzZWxmI2p1bWJmPWMycGEvdXJuOnV1aWQ6OTMzZTUxZDktOTBmMS00NzMwLWJkMmEtZTFlMmVjYmVmMTA2L2MycGEuc2lnbmF0dXJlamluc3RhbmNlSURjMS4wb2NsYWltX2dlbmVyYXRvcngcTWljcm9zb2Z0X1Jlc3BvbnNpYmxlX0FJLzEuMHRjbGFpbV9nZW5lcmF0b3JfaW5mb4GiZG5hbWV4KU1pY3Jvc29mdCBSZXNwb25zaWJsZSBBSSBJbWFnZSBQcm92ZW5hbmNlZ3ZlcnNpb25jMS4wamFzc2VydGlvbnOCo2NhbGdmc2hhMjU2Y3VybHhdc2VsZiNqdW1iZj1jMnBhL3Vybjp1dWlkOjkzM2U1MWQ5LTkwZjEtNDczMC1iZDJhLWUxZTJlY2JlZjEwNi9jMnBhLmFzc2VydGlvbnMvYzJwYS5oYXNoLmJveGVzZGhhc2hYIA5rR+qHIRBfMK6LayXD1JMdfkdb1FQ+oSb6AU2j1Btwo2NhbGdmc2hhMjU2Y3VybHhac2VsZiNqdW1iZj1jMnBhL3Vybjp1dWlkOjkzM2U1MWQ5LTkwZjEtNDczMC1iZDJhLWUxZTJlY2JlZjEwNi9jMnBhLmFzc2VydGlvbnMvYzJwYS5hY3Rpb25zZGhhc2hYIN6LOvNI2bMbcNbamRshOKZuFnU4aE3Ftt+Gem7n2shnAAAr2Gp1bWIAAAAoanVtZGMyY3MAEQAQgAAAqgA4m3EDYzJwYS5zaWduYXR1cmUAAAArqGNib3LShEShATgkomd4NWNoYWlug1kGKTCCBiUwggQNoAMCAQICEzMAAAAhVrsdNjVnyxoAAAAAACEwDQYJKoZIhvcNAQEMBQAwVjELMAkGA1UEBhMCVVMxHjAcBgNVBAoTFU1pY3Jvc29mdCBDb3Jwb3JhdGlvbjEnMCUGA1UEAxMeTWljcm9zb2Z0IFNDRCBDbGFpbWFudHMgUlNBIENBMB4XDTIzMDgwMzE4MTU0NloXDTI0MDMzMTE4MTU0NlowdDELMAkGA1UEBhMCVVMxEzARBgNVBAgTCldhc2hpbmd0b24xEDAOBgNVBAcTB1JlZG1vbmQxHjAcBgNVBAoTFU1pY3Jvc29mdCBDb3Jwb3JhdGlvbjEeMBwGA1UEAxMVTWljcm9zb2Z0IENvcnBvcmF0aW9uMIIBojANBgkqhkiG9w0BAQEFAAOCAY8AMIIBigKCAYEAmtv+B9NtUDJQUt/9J3o+RwLRy5Y4+yc2SLavHQRkqQoSumuIlADxQSWvzHWamFKUnEulCo14ZQ/NTRXI42PEjjjAViGZWvPwownm8DNedM0M34MCTeS9zm6ddicRCQ7yEGAJcwk79Nz/aPTIAMFdARXsXPEoUyADctIMs5JrxR6bj0JolvkU+wtQs4Wvqd7OQMOKTfkuLQB5/090PEK/1bfsDaVMcnREMmF+iVj8N+k9ANs7XLLJNzeBXkluYRyQgxcSDv7oLQMXUO9TC6IGZVWeSZIh+ZcvGURYQuHg1RON1Az5l+8Ud0AdmiBE/Dlrc64HWLRowOJLZPvLIyRH7xKYzsMRjcZprobEWrrVvjGykBPd5hPscV4Oribi6pb+fkDv8o1mw+jdpNo2fgN2+6OxzEqV2q4qB766T3KxTbaKXJRvW8eOIs4j/xPcnCDlZ4XdB1VUSYJnTV52IO1xhXwb2oF9WsJOhmCsMHNrzaHcQqtTj2LIdS+DNp4qT+ztAgMBAAGjggFMMIIBSDAZBgNVHSUBAf8EDzANBgsrBgEEAYI3TDsBCTAOBgNVHQ8BAf8EBAMCAMAwHQYDVR0OBBYEFBwNr0dRDGFHXTGsGJzcnh99T7lWMB8GA1UdIwQYMBaAFIutmvyPdc3ODY1prXxMpGBW2bREMF8GA1UdHwRYMFYwVKBSoFCGTmh0dHA6Ly93d3cubWljcm9zb2Z0LmNvbS9wa2lvcHMvY3JsL01pY3Jvc29mdCUyMFNDRCUyMENsYWltYW50cyUyMFJTQSUyMENBLmNybDBsBggrBgEFBQcBAQRgMF4wXAYIKwYBBQUHMAKGUGh0dHA6Ly93d3cubWljcm9zb2Z0LmNvbS9wa2lvcHMvY2VydHMvTWljcm9zb2Z0JTIwU0NEJTIwQ2xhaW1hbnRzJTIwUlNBJTIwQ0EuY3J0MAwGA1UdEwEB/wQCMAAwDQYJKoZIhvcNAQEMBQADggIBAE1dIyrEYpWKQWpHAmU/b7CkdWk8AGL+Yt0aE3RlcwpRwvCrGya5IqbUmngy+QU9RBp7DdAuMbsgMMVZbYyHdqARDy7LbB+6Zzw7hnYfl/WgG3F1hQJGJUidLEiTkNgdu6ckg4L+8izoP1PRKuEpIzwym4Gxm/FJ2f5w93fgBoBihngJyNf0MJkj0K/UaxtvxRDwQW1XiNPb2Xfs08QwFyA7LwMXZsxxgvXR9j7Y0EYOxk1zPZ9M+UwXicY1ASbL2lG5gs+7SwX/ZHcVmusnrzR+LEWHQmtv/EbeTQldm7JCQJ5bp/CoBRW8PNoG3R4KrrC30Bt8W810NbBaNHvoico3kd4O9/QuTK7BVI1Gw3lFE4ZCLnxBy/l9x6joSwYrJM6cGBYWhya3wmtS1KX2NjpDNDSXEraxePL3iXd+8Kdd5nCE3yWvPlH8jg3d/gH3UVIhNC/ZInxYsppOX6MnJRGVV5HVUdgVDFn+SOUbyAf2xh4yCdakRzC21JXFshiqAll3zK4VsD/67X95zgA55KqC8HJh98LW+3SK5ZeQBMw35pLTPv4IFSMB1izV5ssU4p/Idwl9vdsOTUPczjY24jtHt9ycVqSD5a1bnw5TXR7ezbVpMKtaBnwTlD/ej+2eQXibCubOZeiQJ7N45CZapaQSKKsngglEtFdEPtZV/MrWWQbWMIIG0jCCBLqgAwIBAgITMwAAAATR1uF6CiJiDwAAAAAABDANBgkqhkiG9w0BAQwFADBfMQswCQYDVQQGEwJVUzEeMBwGA1UEChMVTWljcm9zb2Z0IENvcnBvcmF0aW9uMTAwLgYDVQQDEydNaWNyb3NvZnQgU3VwcGx5IENoYWluIFJTQSBSb290IENBIDIwMjIwHhcNMjIwMjE3MDA0NTI2WhcNNDIwMjE3MDA1NTI2WjBWMQswCQYDVQQGEwJVUzEeMBwGA1UEChMVTWljcm9zb2Z0IENvcnBvcmF0aW9uMScwJQYDVQQDEx5NaWNyb3NvZnQgU0NEIENsYWltYW50cyBSU0EgQ0EwggIiMA0GCSqGSIb3DQEBAQUAA4ICDwAwggIKAoICAQDXJeLb8443bNoExaat+SmT0DUBXhFfqUaWfR6k7SCD6AEWd5EAq0w3Ue+rrNM0kanwhMIOjG41cUIdInoLdbgaHVBeBccEvAJNgir6KJpZo/H8VqNbFi+cQ9h4JLGZHNGFAKZ/rGaQ4kSzZ+zecVwYl9Z0w+ipTO/B412lryhgfZhaJdbifP89TEAaEqE1LDUVMPlISMjvDPoHyA6i/CMw0L+QB0u+ziGT5H7dhbBUXWf7vN369iZS0+Dxt7FfXowzHmnNG5ll9wZinCP6EUyVDdBX3iZMHYCa66kKQMICuyplN2jmRfjy0kV3nGVJC/sUvV262AdgZ1t914LzPeAsrCQRQid5M2aIc6wv/fX24tjor+OVpHxrqraMglsxWXQPuOui1x8HmMaeMLB/TOaHVc4iMrVLikoE9wcYGb0V9mnCpBFaD0S9/pzo6sx9xpl3g1O1L0WU0kIx/SxdnMQ9epxGDtJcjxCgZHHM56MdlmclOybk2DQO4cOO8lp0Dj+FfK2eZ7Bd+t/ZXC0C1RgIGKK3kWotVyv0nUtDPXOu0vwTcd/ckeOtRuBjgLHXPjJM/7rTXF2BN7HnwOtPIG5yniRaxfOUvrtmOfhOO61cWvylcMLNaYnHzwTsbtL2sFxIOV0gSWGJAlbmv2FQSgWXK1cWohnLQiktiGWBNVX1aQIDAQABo4IBjjCCAYowDgYDVR0PAQH/BAQDAgGGMBAGCSsGAQQBgjcVAQQDAgEAMB0GA1UdDgQWBBSLrZr8j3XNzg2Naa18TKRgVtm0RDARBgNVHSAECjAIMAYGBFUdIAAwGQYJKwYBBAGCNxQCBAweCgBTAHUAYgBDAEEwDwYDVR0TAQH/BAUwAwEB/zAfBgNVHSMEGDAWgBQLs2g7r9qv7nCldtkh98xEFgfQ+DBsBgNVHR8EZTBjMGGgX6BdhltodHRwOi8vd3d3Lm1pY3Jvc29mdC5jb20vcGtpb3BzL2NybC9NaWNyb3NvZnQlMjBTdXBwbHklMjBDaGFpbiUyMFJTQSUyMFJvb3QlMjBDQSUyMDIwMjIuY3JsMHkGCCsGAQUFBwEBBG0wazBpBggrBgEFBQcwAoZdaHR0cDovL3d3dy5taWNyb3NvZnQuY29tL3BraW9wcy9jZXJ0cy9NaWNyb3NvZnQlMjBTdXBwbHklMjBDaGFpbiUyMFJTQSUyMFJvb3QlMjBDQSUyMDIwMjIuY3J0MA0GCSqGSIb3DQEBDAUAA4ICAQBpxEcsFAQ9oJ+nX90jxdm0zaRrpzJVb7sSue3McYCfUjf3mnVTtU/AsWpQAWg6C/z65YH0AEeBV8qlDb+QoGDWjAc5Q9JKHzoIdJxJA07Q0GwJHAA8mPCkG9OJDMATcdXHe5Rr3gyWFWADZfcBEPdExeaQrAlXycwDlRtYpI86tjoqzb/9OKs4hl8FfK8kjm+9XeWCdiwlmPBMl6GdH/otPRkHzxtWuFv2ZPfVsIzsA04/QwhmUmY8OrCeKMTD4rY4aOrmgjR7MghQRfDoDNAueUDs5yYVdfkb5z6u3kpXPP5H/AsGrY5U3hvjmTQjGKvqc9vaSTsb9tHXk5g+6EQRK+OC8UE5K/lE+bhBiExQTCfwJeWgahGxTeXy807rrE3KZUg4j80lnaMt0DNbMSxhlPF9zLzMK8edCPctFwKvfWMOoE9mTf9giYJ3V2g45mQKOZfk93VcUkcNazLd+iiUzFlYTB8NLmu4Sc1Lqgr507Wtip3UEANCuVZCt/KyK3xupM40vubUyWHk3QxwPwaXy5/3kGxDtKzy7hVTCc5ILiHBnNQyvjiNYU8zOt2Fs/JkIMpPy7sqAvurpoGsSxv/0od0ns4p3Zg2ZIskuaI66ccB/6qLeAp1AAwTbV7lOgtiqhl9vKS9CyFLH4Sd44M+ZiGKGlunx26nOprkYnZSxVkFszCCBa8wggOXoAMCAQICEGgo1Ux+XNq9QzmuDMFaKjUwDQYJKoZIhvcNAQEMBQAwXzELMAkGA1UEBhMCVVMxHjAcBgNVBAoTFU1pY3Jvc29mdCBDb3Jwb3JhdGlvbjEwMC4GA1UEAxMnTWljcm9zb2Z0IFN1cHBseSBDaGFpbiBSU0EgUm9vdCBDQSAyMDIyMB4XDTIyMDIxNzAwMTIzNloXDTQ3MDIxNzAwMjEwOVowXzELMAkGA1UEBhMCVVMxHjAcBgNVBAoTFU1pY3Jvc29mdCBDb3Jwb3JhdGlvbjEwMC4GA1UEAxMnTWljcm9zb2Z0IFN1cHBseSBDaGFpbiBSU0EgUm9vdCBDQSAyMDIyMIICIjANBgkqhkiG9w0BAQEFAAOCAg8AMIICCgKCAgEAniUBZhkfZDTBnTkjYh1xi1bqJdKbH+8nAYK/d9iUM4MYSJtQnnuWZMLQw19F/zKc6BcXvXjtdZhfOgYIKxw3m0ZKkAqwr0aSPjOJKvq45zJj8yPHbtIU+yZY7v4GhFT6wR83qtvU7FYqv0m9zOsC7cZO/KwZtRI1aRWJF02jaOpsHimaCfPOeiHGCdEZ6o8wRmk7aAQrfIot1mNd6m3WOZ69Bj5b7i8RWyhrp1KkaF5MpOquziO/TDZx2oFFUI7Khs7/U8O4Q7Mk7gd6orT6xwode8ZSNTHsCB+EgJJb+LHaOdbJ5+WJBH5Rf/TmamRHSer47Kb2oENT/trDIyTYJdoTLCq3P5TedxxMeBxq+ZqP62oVd3etSYTOEEDHmUgP1ZYegJxzoTihA2/TTSDQtUPk9y54D073vL9l2m2QC1u/3uonJ5lk+Dl8cz3WIdLu1vNTES5Vw9zq8SlX3lGheHOQCy/1yXU2643SbY55XboaOP/fGQGo0sjR1vLrivUu0cyTE5uckHhlY3kExPGen4w682QM/pgdk+KPVqVjUyO4bnMWRRq293sPzaQy/1r+lo3hh3jbcIOoJIVpIMJtEg3lefYqWc/Wq+eB5qCxiC0IjAuxz9dsNq+e+QNn2UFzqatFuHFgWBjUFixlutEF3pLFUBARkM5HzPuvvyPAnwUCAwEAAaNnMGUwDgYDVR0PAQH/BAQDAgGGMA8GA1UdEwEB/wQFMAMBAf8wHQYDVR0OBBYEFAuzaDuv2q/ucKV22SH3zEQWB9D4MBAGCSsGAQQBgjcVAQQDAgEAMBEGA1UdIAQKMAgwBgYEVR0gADANBgkqhkiG9w0BAQwFAAOCAgEASMc3///BaFfXi0NmRjomay/o+t5ooY9H8T00lXraVTH0ldI4Xyy6j6WNUTFqiVVobCtCZGqFJKBRA8fd0XJY7WwejNiRxedJEZ0ZejdYHndE+8IImELETeObig7PQEVPG4BwWYyTgegP1cgmlan3H3cGuMrvnPvoZtrlOeDS0mLDp9S2GJonmyZQSnKX1bNbKqT9Xy9+5mKjJ2YM+tkZzBEdMagBUgjmVAyZYyvq2ITUtAgW775KW4hY9AYWoOt6XeHHRNa7L1VWJfCeDOQPEtvAf69WXcaJDnGpVhLkuZyoZB61R5WSrtBwyJN9fFpY8QXxSrhschiprh9XmSZ0ZvUdD99d8Oc3W1+68LTv5GMHfh8yGGmpcFqS+XmcWNR+v3JdU0YrbqOZYNaFjGZ3Fnav4sUYW+JdCDbWZjcXZfAuz6HlvOaNDWW0VlNdn8ivTm5Rz4i+kuow+yzndT9CYMRx55efc8efytG4bCPqUCgdDkPM9akbQOummOXlD8WSL6WWx9f6PBjuHRthA/2G5yRBM73Y87ZgfPMcggPVYK/f9CCk5IEGIlrMhTN9ZPjkuL+AF9T7IT9jruePtxdE7HIuNckL0IEd6XIDCUHZ3wlI5s23shxgJRlS8z0SSe2dlCKOcSj4wQdUc904CLSFjxRsqgCvQKu1h862OVxz+ZBmc2lnVHN0oWl0c3RUb2tlbnOBoWN2YWxZFzUwghcxMAMCAQAwghcoBgkqhkiG9w0BBwKgghcZMIIXFQIBAzEPMA0GCWCGSAFlAwQCAQUAMHgGCyqGSIb3DQEJEAEEoGkEZzBlAgEBBglghkgBhv1sBwEwMTANBglghkgBZQMEAgEFAAQg4y3gSoIP9oNQndrY9eJXpwAT+2ReQ4N5DgQOWTPmAGMCEQDs/AzaFtxbMA7nLRCqcqLlGA8yMDI0MDMwMjE1MzYxNlqgghMJMIIGwjCCBKqgAwIBAgIQBUSv85SdCDmmv9s/X+VhFjANBgkqhkiG9w0BAQsFADBjMQswCQYDVQQGEwJVUzEXMBUGA1UEChMORGlnaUNlcnQsIEluYy4xOzA5BgNVBAMTMkRpZ2lDZXJ0IFRydXN0ZWQgRzQgUlNBNDA5NiBTSEEyNTYgVGltZVN0YW1waW5nIENBMB4XDTIzMDcxNDAwMDAwMFoXDTM0MTAxMzIzNTk1OVowSDELMAkGA1UEBhMCVVMxFzAVBgNVBAoTDkRpZ2lDZXJ0LCBJbmMuMSAwHgYDVQQDExdEaWdpQ2VydCBUaW1lc3RhbXAgMjAyMzCCAiIwDQYJKoZIhvcNAQEBBQADggIPADCCAgoCggIBAKNTRYcdg45brD5UsyPgz5/X5dLnXaEOCdwvSKOXejsqnGfcYhVYwamTEafNqrJq3RApih5iY2nTWJw1cb86l+uUUI8cIOrHmjsvlmbjaedp/lvD1isgHMGXlLSlUIHyz8sHpjBoyoNC2vx/CSSUpIIa2mq62DvKXd4ZGIX7ReoNYWyd/nFexAaaPPDFLnkPG2ZS48jWPl/aQ9OE9dDH9kgtXkV1lnX+3RChG4PBuOZSlbVH13gpOWvgeFmX40QrStWVzu8IF+qCZE3/I+PKhu60pCFkcOvV5aDaY7Mu6QXuqvYk9R28mxyyt1/f8O52fTGZZUdVnUokL6wrl76f5P17cz4y7lI0+9S769SgLDSb495uZBkHNwGRDxy1Uc2qTGaDiGhiu7xBG3gZbeTZD+BYQfvYsSzhUa+0rRUGFOpiCBPTaR58ZE2dD9/O0V6MqqtQFcmzyrzXxDtoRKOlO0L9c33u3Qr/eTQQfqZcClhMAD6FaXXHg2TWdc2PEnZWpST618RrIbroHzSYLzrqawGw9/sqhux7UjipmAmhcbJsca8+uG+W1eEQE/5hRwqM/vC2x9XH3mwk8L9CgsqgcT2ckpMEtGlwJw1Pt7U20clfCKRwo+wK8REuZODLIivK8SgTIUlRfgZm0zu++uuRONhRB8qUt+JQofM604qDy0B7AgMBAAGjggGLMIIBhzAOBgNVHQ8BAf8EBAMCB4AwDAYDVR0TAQH/BAIwADAWBgNVHSUBAf8EDDAKBggrBgEFBQcDCDAgBgNVHSAEGTAXMAgGBmeBDAEEAjALBglghkgBhv1sBwEwHwYDVR0jBBgwFoAUuhbZbU2FL3MpdpovdYxqII+eyG8wHQYDVR0OBBYEFKW27xPn783QZKHVVqllMaPe1eNJMFoGA1UdHwRTMFEwT6BNoEuGSWh0dHA6Ly9jcmwzLmRpZ2ljZXJ0LmNvbS9EaWdpQ2VydFRydXN0ZWRHNFJTQTQwOTZTSEEyNTZUaW1lU3RhbXBpbmdDQS5jcmwwgZAGCCsGAQUFBwEBBIGDMIGAMCQGCCsGAQUFBzABhhhodHRwOi8vb2NzcC5kaWdpY2VydC5jb20wWAYIKwYBBQUHMAKGTGh0dHA6Ly9jYWNlcnRzLmRpZ2ljZXJ0LmNvbS9EaWdpQ2VydFRydXN0ZWRHNFJTQTQwOTZTSEEyNTZUaW1lU3RhbXBpbmdDQS5jcnQwDQYJKoZIhvcNAQELBQADggIBAIEa1t6gqbWYF7xwjU+KPGic2CX/yyzkzepdIpLsjCICqbjPgKjZ5+PF7SaCinEvGN1Ott5s1+FgnCvt7T1IjrhrunxdvcJhN2hJd6PrkKoS1yeF844ektrCQDifXcigLiV4JZ0qBXqEKZi2V3mP2yZWK7Dzp703DNiYdk9WuVLCtp04qYHnbUFcjGnRuSvExnvPnPp44pMadqJpddNQ5EQSviANnqlE0PjlSXcIWiHFtM+YlRpUurm8wWkZus8W8oM3NG6wQSbd3lqXTzON1I13fXVFoaVYJmoDRd7ZULVQjK9WvUzF4UbFKNOt50MAcN7MmJ4ZiQPq1JE3701S88lgIcRWR+3aEUuMMsOI5ljitts++V+wQtaP4xeR0arAVeOGv6wnLEHQmjNKqDbUuXKWfpd5OEhfysLcPTLfddY2Z1qJ+Panx+VPNTwAvb6cKmx5AdzaROY63jg7B145WPR8czFVoIARyxQMfq68/qTreWWqaNYiyjvrmoI1VygWy2nyMpqy0tg6uLFGhmu6F/3Ed2wVbK6rr3M66ElGt9V/zLY4wNjsHPW2obhDLN9OTH0eaHDAdwrUAuBcYLso/zjlUlrWrBciI0707NMX+1Br/wd3H3GXREHJuEbTbDJ8WC9nR2XlG3O2mflrLAZG70Ee8PBf4NvZrZCARK+AEEGKMIIGrjCCBJagAwIBAgIQBzY3tyRUfNhHrP0oZipeWzANBgkqhkiG9w0BAQsFADBiMQswCQYDVQQGEwJVUzEVMBMGA1UEChMMRGlnaUNlcnQgSW5jMRkwFwYDVQQLExB3d3cuZGlnaWNlcnQuY29tMSEwHwYDVQQDExhEaWdpQ2VydCBUcnVzdGVkIFJvb3QgRzQwHhcNMjIwMzIzMDAwMDAwWhcNMzcwMzIyMjM1OTU5WjBjMQswCQYDVQQGEwJVUzEXMBUGA1UEChMORGlnaUNlcnQsIEluYy4xOzA5BgNVBAMTMkRpZ2lDZXJ0IFRydXN0ZWQgRzQgUlNBNDA5NiBTSEEyNTYgVGltZVN0YW1waW5nIENBMIICIjANBgkqhkiG9w0BAQEFAAOCAg8AMIICCgKCAgEAxoY1BkmzwT1ySVFVxyUDxPKRN6mXUaHW0oPRnkyibaCwzIP5WvYRoUQVQl+kiPNo+n3znIkLf50fng8zH1ATCyZzlm34V6gCff1DtITaEfFzsbPuK4CEiiIY3+vaPcQXf6sZKz5C3GeO6lE98NZW1OcoLevTsbV15x8GZY2UKdPZ7Gnf2ZCHRgB720RBidx8ald68Dd5n12sy+iEZLRS8nZH92GDGd1ftFQLIWhuNyG7QKxfst5Kfc71ORJn7w6lY2zkpsUdzTYNXNXmG6jBZHRAp8ByxbpOH7G1WE15/tePc5OsLDnipUjW8LAxE6lXKZYnLvWHpo9OdhVVJnCYJn+gGkcgQ+NDY4B7dW4nJZCYOjgRs/b2nuY7W+yB3iIU2YIqx5K/oN7jPqJz+ucfWmyU8lKVEStYdEAoq3NDzt9KoRxrOMUp88qqlnNCaJ+2RrOdOqPVA+C/8KI8ykLcGEh/FDTP0kyr75s9/g64ZCr6dSgkQe1CvwWcZklSUPRR8zZJTYsg0ixXNXkrqPNFYLwjjVj33GHek/45wPmyMKVM1+mYSlg+0wOI/rOP015LdhJRk8mMDDtbiiKowSYI+RQQEgN9XyO7ZONj4KbhPvbCdLI/Hgl27KtdRnXiYKNYCQEoAA6EVO7O6V3IXjASvUaetdN2udIOa5kM0jO0zbECAwEAAaOCAV0wggFZMBIGA1UdEwEB/wQIMAYBAf8CAQAwHQYDVR0OBBYEFLoW2W1NhS9zKXaaL3WMaiCPnshvMB8GA1UdIwQYMBaAFOzX44LScV1kTN8uZz/nupiuHA9PMA4GA1UdDwEB/wQEAwIBhjATBgNVHSUEDDAKBggrBgEFBQcDCDB3BggrBgEFBQcBAQRrMGkwJAYIKwYBBQUHMAGGGGh0dHA6Ly9vY3NwLmRpZ2ljZXJ0LmNvbTBBBggrBgEFBQcwAoY1aHR0cDovL2NhY2VydHMuZGlnaWNlcnQuY29tL0RpZ2lDZXJ0VHJ1c3RlZFJvb3RHNC5jcnQwQwYDVR0fBDwwOjA4oDagNIYyaHR0cDovL2NybDMuZGlnaWNlcnQuY29tL0RpZ2lDZXJ0VHJ1c3RlZFJvb3RHNC5jcmwwIAYDVR0gBBkwFzAIBgZngQwBBAIwCwYJYIZIAYb9bAcBMA0GCSqGSIb3DQEBCwUAA4ICAQB9WY7Ak7ZvmKlEIgF+ZtbYIULhsBguEE0TzzBTzr8Y+8dQXeJLKftwig2qKWn8acHPHQfpPmDI2AvlXFvXbYf6hCAlNDFnzbYSlm/EUExiHQwIgqgWvalWzxVzjQEiJc6VaT9Hd/tydBTX/6tPiix6q4XNQ1/tYLaqT5Fmniye4Iqs5f2MvGQmh2ySvZ180HAKfO+ovHVPulr3qRCyXen/KFSJ8NWKcXZl2szwcqMj+sAngkSumScbqyQeJsG33irr9p6xeZmBo1aGqwpFyd/EjaDnmPv7pp1yr8THwcFqcdnGE4AJxLafzYeHJLtPo0m5d2aR8XKc6UsCUqc3fpNTrDsdCEkPlM05et3/JWOZJyw9P2un8WbDQc1PtkCbISFA0LcTJM3cHXg65J6t5TRxktcma+Q4c6umAU+9Pzt4rUyt+8SVe+0KXzM5h0F4ejjpnOHdI/0dKNPH+ejxmF/7K9h+8kaddSweJywm228Vex4Ziza4k9Tm8heZWcpw8De/mADfIBZPJ/tgZxahZrrdVcA6KYawmKAr7ZVBtzrVFZgxtGIJDwq9gdkT/r+k0fNX2bwE+oLeMt8EifAAzV3C+dAjfwAL5HYCJtnwZXZCpimHCUcr5n8apIUP/JiW9lVUKx+A+sDyDivl1vupL0QVSucTDh3bNzgaoSv27dZ8/DCCBY0wggR1oAMCAQICEA6bGI750C3n79tQ4ghAGFowDQYJKoZIhvcNAQEMBQAwZTELMAkGA1UEBhMCVVMxFTATBgNVBAoTDERpZ2lDZXJ0IEluYzEZMBcGA1UECxMQd3d3LmRpZ2ljZXJ0LmNvbTEkMCIGA1UEAxMbRGlnaUNlcnQgQXNzdXJlZCBJRCBSb290IENBMB4XDTIyMDgwMTAwMDAwMFoXDTMxMTEwOTIzNTk1OVowYjELMAkGA1UEBhMCVVMxFTATBgNVBAoTDERpZ2lDZXJ0IEluYzEZMBcGA1UECxMQd3d3LmRpZ2ljZXJ0LmNvbTEhMB8GA1UEAxMYRGlnaUNlcnQgVHJ1c3RlZCBSb290IEc0MIICIjANBgkqhkiG9w0BAQEFAAOCAg8AMIICCgKCAgEAv+aQc2jeu+RdSjwwIjBpM+zCpyUuySE98orYWcLhKac9WKt2ms2uexuEDcQwH/MbpDgW61bGl20dq7J58soR0uRf1gU8Ug9SH8aeFaV+vp+pVxZZVXKvaJNwwrK6dZlqczKU0RBEEC7fgvMHhOZ0O21x4i0MG+4g1ckgHWMpLc7sXk7Ik/ghYZs06wXGXuxbGrzryc/NrDRAX7F6Zu53yEioZldXn1RYjgwrt0+nMNlW7sp7XeOtyU9e5TXnMcvak17cjo+A2raRmECQecN4x7axxLVqGDgDEI3Y1DekLgV9iPWCPhCRcKtVgkEy19sEcypukQF8IUzUvK4bA3VdeGbZOjFEmjNAvwjXWkmkwuapoGfdpCe8oU85tRFYF/ckXEaPZPfBaYh2mHY9WV1CdoeJl2l6SPDgohIbZpp0yt5LHucOY67m1O+SkjqePdwA5EUlibaaRBkrfsCUtNJhbesz2cXfSwQAzH0clcOP9yGyshG3u3/y1YxwLEFgqrFjGESVGnZifvaAsPvoZKYz0YkH4b235kOkGLimdwHhD5QMIR2yVCkliWzlDlJRR3S+Jqy2QXXeeqxfjT/JvNNBERJb5RBQ6zHFynIWIgnffEx1P2PsIV/EIFFrb7GrhotPwtZFX50g/KEexcCPorF+CiaZ9eRpL5gdLfXZqbId5RsCAwEAAaOCATowggE2MA8GA1UdEwEB/wQFMAMBAf8wHQYDVR0OBBYEFOzX44LScV1kTN8uZz/nupiuHA9PMB8GA1UdIwQYMBaAFEXroq/0ksuCMS1Ri6enIZ3zbcgPMA4GA1UdDwEB/wQEAwIBhjB5BggrBgEFBQcBAQRtMGswJAYIKwYBBQUHMAGGGGh0dHA6Ly9vY3NwLmRpZ2ljZXJ0LmNvbTBDBggrBgEFBQcwAoY3aHR0cDovL2NhY2VydHMuZGlnaWNlcnQuY29tL0RpZ2lDZXJ0QXNzdXJlZElEUm9vdENBLmNydDBFBgNVHR8EPjA8MDqgOKA2hjRodHRwOi8vY3JsMy5kaWdpY2VydC5jb20vRGlnaUNlcnRBc3N1cmVkSURSb290Q0EuY3JsMBEGA1UdIAQKMAgwBgYEVR0gADANBgkqhkiG9w0BAQwFAAOCAQEAcKC/Q1xV5zhfoKN0Gz22Ftf3v1cHvZqsoYcs7IVeqRq7IviHGmlUIu2kiHdtvRoU9BNKei8ttzjv9P+Aufih9/Jy3iS8UgPITtAq3votVs/59PesMHqai7Je1M/RQ0SbQyHrlnKhSLSZy51PpwYDE3cnRNTnf+hZqPC/Lwum6fI0POz3A8eHqNJMQBk1RmppVLC4oVaO7KTVPeix3P0c2PR3WlxUjG/voVA9/HYJaISfb8rbII01YBwCA8sgsKxYoA5AY8WYIsGyWfVVa88nq2x2zm8jLfR+cWojayL/ErhULSd+2DrZ8LaHlv1b0VysGMNNn3O3AamfV6peKOK5lDGCA3YwggNyAgEBMHcwYzELMAkGA1UEBhMCVVMxFzAVBgNVBAoTDkRpZ2lDZXJ0LCBJbmMuMTswOQYDVQQDEzJEaWdpQ2VydCBUcnVzdGVkIEc0IFJTQTQwOTYgU0hBMjU2IFRpbWVTdGFtcGluZyBDQQIQBUSv85SdCDmmv9s/X+VhFjANBglghkgBZQMEAgEFAKCB0TAaBgkqhkiG9w0BCQMxDQYLKoZIhvcNAQkQAQQwHAYJKoZIhvcNAQkFMQ8XDTI0MDMwMjE1MzYxNlowKwYLKoZIhvcNAQkQAgwxHDAaMBgwFgQUZvArMsLCyQ+CXc6qisnGTxmcz0AwLwYJKoZIhvcNAQkEMSIEIGgBsS7gedQLr8oBmoUq3H271tQC+tKWNvO/zlco5udaMDcGCyqGSIb3DQEJEAIvMSgwJjAkMCIEINL25G3tdCLM0dRAV2hBNm+CitpVmq4zFq9NGprUDHgoMA0GCSqGSIb3DQEBAQUABIICAJEAwHSyjh1PLkjjxWqD9gSpgxg5ffZoYBuMsz3sLOqTzFuSkS+dTkLqM7dMTDCsLXpRBdWl3r+syC5gpN+eDyrn+/ntT33ZILPiuxOxxsDYHK6UlGmxaqp+3s6Dw0/hbJr51Gl9MFyb8ii6tEeT6N4Ap3tH9wD3I6X6q8WzKuIyfReeJ5y1EFWOuE5EPKbsIMjlXwWCkUgVVuhctc667V0cvB3W14gMzbROaXAfsfQVFbm3EyHGPmLvHfh1dwxTWRz42WJ/o4nUPPzrg1n45K7kApMqw7R7Aq6KWnrT1sMGek4NBWd47vEKogIfcbNgut3+SNvdUw6ztMtCbgP6OeT78Rjwa4KQEw6o/4bXsI//i5FVe63kjOpDPXUNHzDp4Jpc3i42TAELV5l0AIuNCzJrXSnxjBCkACnaJ6sR5WHi67tmM57j/geTP91Iv1JR7rxapFz/UFRNvDpCcOUIefuWKnB+Ph0CF4MQr4XztnbE7XIWNdrxEak8M+LOuODlNCamR24nzkwv4fWSOEuJWOVkDU97173Aj/Q5qi7XJOqrcIoV9GtJbExS6tUw45t6x95ReTgky/xBcz2dw12LoTglWnCRCgNLlwauXu+HrAZImnZ1WR+HPDAb7SRCtLAxBXUDSRMHKg3Q1Z9K6M/QCcKIxQ85VmhlkLtVEbBaj+N49lkBgCkGTT3jDbWSJuuWKmA+bREnTwmWNKRoCtiGV0u29niTM7gIPrKiQLSaiRv39pU/bBC3go9M2DrjD3AYjv6m3jZDaJG34Jol4j3ZfTkzYfKmgMECovTddyiDhXj19OYvwnjF6e3jC42snk882F0tXruUWd5aDe+lips7qisp/80AMimrXDlsqh3wBS6tlS5G4PgGIn6pQ4fDpc5EsNQF/xedBt85z74p/v4bUQ89pBNTu9LLfySWPdkx806YA+tYfh7634BoABmpFNqyput95c6Y8WAjXWAoQsNduudLTiPQxl+e4INTXVlrW0eRr5zqcuvuMrJI6OXY/ewJw6KbYDXMuUx2SrUA4x9bkfVI9aLyHXU41n40CD30nAV63Ph01Vl7YAFvRTSGJy+omzZa4nX0rMWJu8W+/BirWoxSzXaBcKTqMOl2pwKuju8UV1ARDUMmMdYhkKI5VplA8ezHVRzcH4MRw/CQhoF9EYjFkKgtkG/JPm5ksYGlbdfXC2tHy//gABBKRklGAAEBAQBgAGAAAP/hADpFeGlmAABNTQAqAAAACAADURAAAQAAAAEBAAAAUREABAAAAAEAAAAAURIABAAAAAEAAAAAAAAAAP/bAEMABwUFBgUEBwYFBggHBwgKEQsKCQkKFQ8QDBEYFRoZGBUYFxseJyEbHSUdFxgiLiIlKCkrLCsaIC8zLyoyJyorKv/bAEMBBwgICgkKFAsLFCocGBwqKioqKioqKioqKioqKioqKioqKioqKioqKioqKioqKioqKioqKioqKioqKioqKioqKv/AABEIBAAEAAMBIgACEQEDEQH/xAAfAAABBQEBAQEBAQAAAAAAAAAAAQIDBAUGBwgJCgv/xAC1EAACAQMDAgQDBQUEBAAAAX0BAgMABBEFEiExQQYTUWEHInEUMoGRoQgjQrHBFVLR8CQzYnKCCQoWFxgZGiUmJygpKjQ1Njc4OTpDREVGR0hJSlNUVVZXWFlaY2RlZmdoaWpzdHV2d3h5eoOEhYaHiImKkpOUlZaXmJmaoqOkpaanqKmqsrO0tba3uLm6wsPExcbHyMnK0tPU1dbX2Nna4eLj5OXm5+jp6vHy8/T19vf4+fr/xAAfAQADAQEBAQEBAQEBAAAAAAAAAQIDBAUGBwgJCgv/xAC1EQACAQIEBAMEBwUEBAABAncAAQIDEQQFITEGEkFRB2FxEyIygQgUQpGhscEJIzNS8BVictEKFiQ04SXxFxgZGiYnKCkqNTY3ODk6Q0RFRkdISUpTVFVWV1hZWmNkZWZnaGlqc3R1dnd4eXqCg4SFhoeIiYqSk5SVlpeYmZqio6Slpqeoqaqys7S1tre4ubrCw8TFxsfIycrS09TV1tfY2dri4+Tl5ufo6ery8/T19vf4+fr/2gAMAwEAAhEDEQA/APnrFFFLVAGKKKKAEopaKADFbOgXOyfYTWNU1rKYblWHrVRdmTJXR6Gq7lBFBSmabMJ7ZT7VbKVpszNaorbKNlT7KNlIZX2UbKn2UbKAIdlGyp9lGygCHZRsqbbS7KAINlGyp9lGygCDZRsqfZRsoAg2UbKn2UuygCDZRsqfZRsoAg2UmyrGyjZQBX2UbKsbKNlAFfy6PLqxso2UAQbKPLqfZS7KAK+yjZVjZRsoAg2UeXU+yl2UAV/Lo8urGyjZQBX2UbKsbKNlAFfZRsqxso2UAV9lGyrGyjZQBX2Uuyp9lGygCDy6NlWNlGygCv5dHl1Y2UbKAK+yjZVjZRsoArbKNlWdlJsoAr7KXZU+yjZQBB5dHl1Y2UbKAK2yjy6s7KNlAiv5dHl1Y2UuygCt5dHl1Z2UbKAK3l0eXVnZSbKBlfy6TZVnZSbKBFfZRsqxso2UAV/LpNlWdlJsoAr7KNlWNlGygZX2UbParGyjZQBBso2VPso2UAV9lGyrG2jbQBX2UbKsbKTZQBBso2VPso2UAQbKNlT7KNlAFfZRsqxso2UAV9lGyp9lG2gCDZSbKsbKTbQBBso2VPso20AQbKNlTbaNtAEGyjZU+yjbQBBso2VPso20AQbKNlT7aTZQBDso2VNto20CINlGyptlG2gCDZRsqbZRtoAh2Umyp9tJtoAh2UbKm20m2gZDso2VNtpNlAEOyjZU22jbQBDspNlT7aTbQBDspNlT7aTbQBDso2VLto20ARbKNlS7aNtAEW2jbUu2k20AedUUtFZGoUUuKKACiiigAoooFAHXeGLzeojY811ezIzXm2j3Rtr5eeCa9Ls3E9urD0rbdXMPhlYjMdJ5dWjHSeXSGVvLo8v2qz5dGygCt5dHl1Z2UbKBlfy6PLqx5dGygCv5dHl1Z2UbKAK3l0vl1Y2UbKAK/l0bKsbKNlAivso8urPl0bKBlfy6PLqxspdlAit5dHl1Z8ujZQBW8ujy6s7KPLoAreXS+XVny6PLoAreXS+XVny6PLoAq+X7UeXVry6PLoAreXR5dWfLo8ugZW8ujy6s+XR5dAit5dHl1Z2UbKAK3l0eXVny6PLoAreXR5dWfLpfLoAreXR5dWfLo2UAVvLo8urOyjZQBW8ujy6s+XR5dAFXy6Xy6s+XRsoAreXSeXVry6PLoAq+XS+XVny6Ty6Blfy6PLqz5dJ5dAiv5dHl1Z8ujy6AK3l0eXVnZRsoAreXRsqzspNlAFbZR5dWNlHl0AVtlHl1Z2UbKBlby6TZVnZRsoEVtntRsqz5dJ5dAFfZRsqx5dGygZW2UbKs7KTZQBX2UbKsbKNlAFfZRsqxspNlAFfZRsqx5dJsoAg2UbKn2UbKAINlGyp9lGygCvto2VPso2UAV9lGyp9lGygCvso21Pso2UAQbKTZU+yjZQBBso2VPso2UAQbaNlT7KTZQBDtpNlT7KNlAEG2jbU2yjbQMg20bam20baBEG2jbU2yjbQBDspNtT7aTZQBDtpNtT7aTbQBDto21Lto20AQ7aNtTbaNtAEGyjbU22jbSAg20bam20FaAINtJtqfbSbaAIttJtqbbRtoAh20m2pttIVpgeYilooxWRqFFLRQAlFLSUAFFFFADlJVgR1FeieFb4XNsqk84rzoVu+GL82t+EJ4Y1pTetjKotLnphjpPLqxDiWFWHcU4x1Qip5dHl1a2UmygCt5dHl1Z8ujZQBW8ujy6s+XRsoAreXS+XVny6PLoAreXR5dWdlHl0AVvLo8urXl0eXQBW8ujy6s+XR5dAFfy6PLqz5dHl0AVvLo8urPl0uygCt5dHl1Z8ujy6AK/l0eXVny6PLoAreXR5dWfLo2UAV/Lo8v2qz5dHl0AVfLo8urXl0eXQBV8ul8urPl0eXQBW8ujy6s+XS+XQIq+XR5dWvLo8ugZV8ujy6s7KNlAFby6PLqz5dHl0AVvL9qNlWdlGygCt5dHl1Z8ujZQBW8ujy6s+XSeXQBX8ujy6s7KNlAFby6PLqxso8ugCt5dHl1Z2UbKAK2yjZVnZSbKAK+yjZVjZRsoAr7KTZVny6PLoArbKPLqz5dJsoArbKNlWdlJsoAr7KNlWNlGz2pAVtlGyrOyk2UAV9lJsqzspNlAFfZSbKs7KNlAFbZRsqxso2UAV9lGyrGyk2UAV9lJsqzspNlAFfZRsqfZRsoAr7KNtT7KNlAEGyk2VPso2UAQbKTZVjZSbKAK+yjZVjZSbKAINlJsqxspNlAEGyjZU+yjZQBX2Uban2UbKAINlJsqfbRsoAg2Umyp9lGygCDZSbKn20bKBkGyjZU+2k2UAQbaNlTbaNlAEG2k21Pso2UAQbKTZU+yjZQBBso2VNso2UAQbaNtTbKNlAyDbSban2UhSgCDbRtqbbRtoAh20hWpttG2gRBtoK1NtpNtAHk9LSUtZGoUUYoxQAYopaKAG0UtFAAKlglMMyyLwVOaipRT2Ybnr3hq+F5YqM5OK2yleb+CdSMc/ksfpXpyjegI71u9dTnjpoQbKTZVgpSbKkog2UbKn2UuygCvspdlT7KNlAEGyjZVjZRtoAr7KXZU+yjZQBBspdlT7KXZQBX2UbKsbKNlAEGyjZU+yl2UAV9lGyrGyl2UCK+yjy6sbKNlAyvso2VY2UuygCvso2VY2UbKAK+yl2VPspdlAFfZRsqxso2UAV9lGyrGyjZQIr7KNlWNlLsoAr7KNlWNlGygZW2UeXVnZRsoArbKNlWNlGygCtso2VZ2UbKYFbZRsqzspNlICvso2VY2UbKAK+yjZVjZRsoAr7KNlWNlGygCtso2VY2UbKAK+yjZVjZSbKAK+yjZVjZRsoAr7KNlWNlGygCvspNlWdlJsoAr7KNlWNlJsoAr7KNlWNlGygCvspNlWNlGygRX2UmyrGyjZQBX2UbKsbKTZQBX2UbKsbKNlAytso2VY2UbKAK2yjZVjZSbKAK+yjZVjZSbKAK+yk2VZ2UmygCvso2VY2UmykBX2UbKsbKTZQBX2UbKn2UbKAK+yjZVjZSbKAK+yjZVjZSbKAK+yjZU+yjZQBX2UmyrGyjZQBX2UmyrGyk2UAQbKNlT7KTZQBBso2VPspNlAEGyjZU+2k20AQbKTZU+2jbQBBspNlWNlJsoAg20bam2UbKBkGyk21Y2Um2gCvspNlWClJsoAg2Um2p9tJsoAg20bam20hWgCHbSbam20bKAPGxS0UVkai0UUUAFFFFACUUtFACYpaKKAL2k3RtNRjkBwM4Ne16TMLixRge1eEIcGvXvBN2bjTlBOTtFbQd42MZq0rnSlaNlS7aMUCItlGypcUbaAIttLsqXbRtoAi20bKm20baAIttGypttG2gZFspdlS7aXbQBDspdlTbaNlAEOyjZU+2jZQBDso2VPto20CIdlGyp9tGygZBspdlTbKXZQBBso2VPso2UCINlGyp9lLsoAg2UbKn2UbKAINlGyrGyk2UAQbKNlT7KNlAEGyl2VNso2UAQ7KNlT7KNlAyvso2VY2UmygRBspNlWNlGygCvso2VPso2UDK+yjZU+yjZQBBso2VPspdlAFfZRsqfZRtoAg2UbKn2UbKAINlJsqfZRsoAg2UbKn2UbKAINlGyp9lJsoAg2UbKn20bKAK+yjZU+yjZQBX2UbKsbKNlAFfZRsqfZRsoAr7KNlWNlJsoAr7KNlWNlJsoAr7KNlWNlJsoEV9tGyp9lGygCvso2VPso2UAV9lGyrGym7KAINlJsqxspNtAyDZSbKsbKTZQBBso2VPso2UAV9lJsqxso2UCK+yk2VY2UbKAK+yk2VY2UmygZBspNlWNlJsoEV9lGyrGyk2UAV9lJsqxtpNlAFfZRsqfZRsoGQbKQpVjZSbKAK+yk2VY2UmykBX2UbasbKTZQBBtpNtT7KTbQBDtpNtT7aTZQBDtpNtT7KTbQBBtpNlT7aNtAFfbRtqfbSbKAINtN21Y20m2gCvto21PspNlAHiApaaKWsjYWikpaACijBpdtACUU7bS4oAZijFPxRQIFHNenfD4kWq15rEhkkVV6k1614Ms/s9iufStaZnM6ujFJuHrTgRVEhilxQKcBSAbilxTsU7bQAzbShaeFpdtADNtLtp+2nBaAI9tLtqTZS7aAI9tLtqTbS7aAItlLsqXbS7KAIdlLsqbZS7KAIdlGyptlLsoAg2UbKm2Uu2gCDbS7am2UbKAIdtGypttGygCHbRtqbbRtoAi20bam20baAIdtG2pttG2gCHbRsqbbRtoAh20bam20baAIdlG2pttG2gCHZSbKn20m2gCHbRtqbbRtoAg2Ubam20baAIdtG2pttG2gCHbRtqbbRsoAg20ban20mygCHbRtqbbRtoAg20bam20baAIdtG2pdtG2gCHbRsqbbRtoAh2Um2p9tJtoAh2UbKn20baAINlGypttG2gCDZSban20baAINtJtqfZRtoAg2Umyp9tG2gCDZRsqfZSbKAIdlJsqfZRtoAg2Umyp9lJsoAg2Umyp9tG2gCDZRsqfbRtoAr7KNlT7KNlAFfZRsqxspNlAFfZRsqxspNlAFfZSbKs7KTZQBX2UmyrGyk2UAV9lGyrGyk2UAV9lJsqxspNlAEGyk21Pso2UAV9lGyp9tIVoAg2Umyp9tJsoGQbKTbU+2jZQBX20bam2UbKAINlG2pttG2gCDbSban20m2gCDbRsqbbSbaAIdlJtqfbSFaQiDbSban20m2gZBtpNlT7aTbQI8EApwWlFLWRsIFpcUUUwCloCmnCM0ANoqQR04R0AQ4NOCGpglOCUWAWyIiuFZu1drZeJ1trcIpxxXGotToMVSdiWrnZ/8ACYf7VOXxj71xwFLinzMnlR3EXjNP4mq9D4wgbq9ec4paOZhyo9Vh8T27/wAYq7Frlu/8Y/OvHg7r0Yj8alS8uI/uysPxp8wcp7PHqMD9GFWEuIm6MK8aj1u9j6SZq7D4qu4/vc/jRcOVnrqsp6MPzqQAV5hb+NZFxvBrTt/HERxubH1p3QrM74LS7a5S38Y2z4/eCtGHxNav/wAtF/OmI29tLtqjFrNtJ/Gv51aS9gfo4/OgCULShKVZY26MPzqUYPQigCLZS7KmC0u2gCHZRsqfZRsoAg2UbKn2UmykBDso2VNtpdtAEOyjZU2yjbQBDso2VNto20AQ7KNlT7aTbQBDso2VNto2UAQ7KNtTbKNtAEOyjZU22jZQBDto2VLto20ARbKTZU22jbQBDso21Lto20ARbaTZU22k20ARbKNlS7aNtAEWyjZUu2jbQBFspNlTbaNtAEOyk21Nto20AQ7aTZU22jbQBDto21NtpNtAEW2k21Nto20AQ7aNtTbaNtAEO2jbU22jbQBDtpNtTbaNtAEO2k21Nto2UAQ7aNtTbaTbQBDto21Lto20ARbaTbU22k20ARbaTbU22k20ARbaTbU22jbQBBto21NtpdlAEG2jbU+yjZQBBso2VY2Uvl0AVtlGyrXlH0o8k+h/KgCrspNlW/Jb0P5UhhPofyoAqbKNlWTGaTZQBW2UmyrPl0FKAKuykKVZ2UhSgCtspNlWSlJsoArbKTZVkpSbKAK2yk2VZ2U3ZQBX2Um2rBSk2UAQbaTbU+yk20AQbaTbU+yk20AQbaTbU+yk2UAQbaTbU+2k20DINtG2pttJtoAh20m2pttJtoAh20m2pttG2gCHbSbam20baAPn0ITTxCTVwRCneXWdjS5UEFPEQFWNlLtosFyDy6XZU22jbQBDtpdtS7aXbQBFtpwWn7acFphcaq1KooC1IFoEIBS4pwFLigBmKMU/FLtoAjxRipNtJigBmKMU/FJigBuKXFLijFACDI6U9ZpU+7Iw+hpMUmKALMeqXkX3Zmq7D4mv4v481k4oxRdhodNB42u48bwT+Nalt4/Ix5mRXC4oxTuxWR6fb+Prdsbnx9a1IPGdpJ/y1X868cxSgkdCR+NHMLlR7nD4ltJP+Wi/nV2PV7aTo4/OvA0uZ4/uSsPxqzFrN9F92dqfMLlPe0vIX6OKlEkbdGH514bD4s1GLq+a0IPHd2n3wT+NO6CzPZBtPel2ivLbf4h4x5gIrVt/iDbtjc+KNBanfbaNtcrb+NbOTH7wfnWlD4ltJeki/nTA2NtG2qker2z9HX86sJeQv0YfnSAfto204Sxt0YU4YPegCPbRtqXaKNtAEW2jbUu2jbQBDto21Lto20ARbaNtS7aNtAEW2k21Nto20AQ7aNtTbaTbQBDto21Lto20ARbaTbU22k20ARbaNtS7aNtAEW2jbUu2jbQBFtpNtS7aNtAEO2jbUu2jbQBFtpNtS7aNtAEe2k21Lto20ARbaNtS7aNtAEW2jbUm2jbQBFto21Lto20AQ7aNtS7aNtAEW2k21Lto20AQ7aNtTbaTbQBFtpNtTbaTbQBFto21LtpdlAEOyjZU2ynpC0jYRSx9hQBX2Uojz0Fbll4euLjBkGxfTvXQ2Xh6C3AJUZ9TQBx9vo9zc42ptHqa1rbwoWwZWJ+nFdelvHGMKop+KQznYvC9uvVAfqatJ4etV/5Zr+VbFFAGaNGth/Av5Uv9k2/9wflWhikxQMof2Vb/ANwflSHSLY/wD8q0MUmKQGY2iWp/gX8qibw9aN/yzX8q2KTFAGE/hm0P8Aqu/hS3P3cj8a6XFJigRycnhJf4WYVVk8KSL91z+VdtikIp6gcC/hq6XoQfwqu+g3i/wZ+leiFR6U0xqeoFGoWPNX0u6TrC1QtaSr96Nh+FenG3jbqoqJrGFuqD8qLhY8yMRHUEU0x16S+kWz9UH5VVk8O2j/wKPwouFjz8pTdldvL4VgP3cj6GqcvhQj7jmi4WZyZSmlK6OXwzcL90g/hVSTQrxP8Alnn6U7oWpjFKaUrQk065j+9C35VA0Lr95SPqKAKpSk2VYKUhSgCvtppWrBSmlKAINtJtqcrSbaAINtG2pttJtoAh20m2pttG2gCHbRtqXbRtoGeFbKNtTbaNtQWQ7KNtTbKNlAEO2jbU2yjbQBDto21NspdntQBDspwSphH60YUdTQBGEqQJSGVVphnJ+6KAJdtISq96YkNzP9xGqX+zbj+IYoDQjMyjpTPOpZLcxHDVEQBSAspcL3FSq8TdcVQLAdKEVpGAQc0AaIjjboaX7MD0aok02827gOKPJu4+qmmA82rDpg00wOP4ab9plj+8tPXUB/EKQEZQjqKTbVkXsTdaUzQEZOKYFXFJirS+RJ0NO+yqfutQBTxRirRtGHQg0w27jtQIgxRipDGw6g03bQMZijFPxSYoAbRinYoxQA3FGKdijFACBmXoSPxqVbu4j+5Mw/GosUYoAvRa3fxfdnar0Pi/UYur5rDoxRdisjrrfx9dx43qT+Nalv8AEbGPMDCvPcUYp8zDlR6tb/EO1fG58fWtW38bWcmP3q/nXimKUEjoSKfMLlPe4fE9nJ0kX86uR6xbSdHX86+fUuriP7krj8atRa1fxfdnb8aOYXKfQCXkL9HH51KJY26MPzrwmDxdqMPV91aNv4/u0x5ik/jTugsz2cEHvS4ryy3+IwGPMDCtW2+Idq2Nz4+tGgtTv9tG2uVt/G1lL/y1X860YfE9lJ0kX86YGztpNtVI9XtZOjr+dTrdwv0cfnSAk20m2nCRD0YU4YPQ0AR7aNtS4pNtAEW2k21NtpNtAEW2jbUu2k20AR7aNtSbaNtAEW2jbUu2k20ARbaNtSbaMUAR7aTbUmKMUAR7aNtSbaMUAR4o21Jik20AR7aNtSYo20AR7aTbUu2k20AR7aTbUuKTFAEe2jbUm2l2UARbaNlThKtW+mXFwRsjIHqRQBn7Kmhs5Z2xEhb3xXTWXhkDDT/MfQ1uwWEMCgKo/KlcdjlbLwy8hDT/AJCugtNGt7ZeEH5VpbQOnFFIBioqD5Rig07FGKBjcUmKfSYoENxSYp1GKAGYop2KaWwaYCYoxS5FHHrQA3FGKdgetGKQDKMU/BpMUAMxRinYoxQAzFJin4pMUwG4pMU7FGKAG4pMU7FFADMUYp2KSgBu0U0xKeoFSEUhoAga1ibqoqCTS7d+qD8qu0hpDMabw7aSfwAfhWdceFU58skfjXUE000AcLceHbiLOz5vwrOmsZ4fvxsPwr0hgD1FVpbaKUfMoNF2KyPNylIVrsr3QIZQWjG1vaubvLGS0k2yD6GmFjP20m2pitJtpiIdtG2pdtJigCPbSbal20m2gDw3bRtqbZSHaOpqCyPZRspxlUdKjac9qAF2UHavU0+2s7i9Y+WPzq2fD84GZG4osF0ZxmQdKjM5PQV0Vv4aiKBnkp8ulWUKnuadgujmCzmkIY9avXkccTfJ0qmDk4pASWlusz/OcVrxWtvGARis6K1zyrkU6SGVFz5ppgbsVzBGMDFUr6+QZ2GsF55VbGafDMr/AOsFFwsOnledvlXNMFpKeoq/FLCg4xTpr6MLxSAzGhKdadBKIpA3pRJIZmOKRbZmpDNuLWE2AGp/t8DryRWCLRh61DKki9Awqrisal9PAR8pBrHeVdxxSpA7n5smpRbhetSMr7nb7ooELt94mrYCrSFvSgCOKMoetWhcFB1qDDnoKdHbvKwFMCU3xHvUkV4z8BGP0FXbPRFchpDXQW1nZW0fO3NFhNnMG52f6xCv1FKJ4H64rW1iayaEqgGcdq5crzxQC1NTZbv0x+FJ9ljP3WNZYJHQ0v2h0/jouOxomz/utUbWrjtmqX9pOvfNLHqkjNyOKALJhYdVNNKn0q1Fdb15FOaeID5sCgCltpMVc327+lHlRHo2KBFPFGKtm2B6NTDbMPQ0AV8UYqYwuO1NKEdRQMjxRin4pMUANop2KMUANxRTsUYoAbilxS4oxQAAkdCRUqXU8f3JXH41FS4oAvRa3fw/dnb8avQeL9Th/jzWFS0XYrI663+IN7HjzFz+Natt8ScY81WFeeYoxT5mLlR6zbfES0fG6TH1rVt/G1jLj98v514jilBI6Ej8afMLlPfofElnL0kX86uJqttJ0kX86+eku7iP7kzj/gVW4tc1CL7tw340cyDlZ9ArdQv0cfnUgdD0YH8a8Jg8Y6nDjL7q07b4hXSY81Sfoad0FmeycUuK8xtviRHx5m4Vr2vj+ylxmUD6mnoLU7bbRiuft/FlnNjEq/nWnBq9tP8AddT+NFgLm2kxSo6yDKnNOxSAjxRipNtJtoAZijFP20baAGbaMU/FG2gCPFGKk20baAI9tGKftoxQBHto21JigLQAwLmtGy0ee7IOCq+tO0i1FxegMMgc120MCxIAopMDJsvD8EADONzeprVjt44hhVAqWipuVYTFGKWkoASkp1JQAlJSmigBMUlLRTAbRS0UAJSYp1JTAaVFJsp+KSgBmyk2n1qSkxQAz5hRuYdqfSYpCG7/AFFG4dxS4pCKYBlTRgdjSFRSbKAFx70hFG2jFACUmKdikoAbSU6m0AJSGlNNNACGmk0pNMJoACaYTQWphNAATTCaXBNNkdIly7AUAKoJNc74leI4VcFs07VPE0UAMdv8z+3audNxJdOZZWyTTsK4zFJtqTFJigCPFJipcUm2gCPbSbal20baAPBS7t1ppU9zWreLEVwgyfas7yJAfmGBUstEW0UcCpTFgVA52mkBfsdR+xngcVoP4gDJjbWJFC0vQ4qX+z3P8RNO7FZFuXXW24XiqEupSydM1MmlOxqX+yXUdKNQ0MtneQ/MSaFQ5rSNiU6rSeSB2pDCzVnIWrc1k5X2qCM+W2RVg3bkYJpiKo0gs43dDVwaTCVHyimrdheWOaQ6kWO1BRoGokmlwopNZF5ahPuVpTXL9zVKV93WkMz0DqavW5Y1FgZ6VZt0Lt8qmkMlMhQc80w3EZHK1JJbTNwEP5VE1nIuN4xmmIFniUcVXlmDHjpVttOITdVZrcUDGwqryAOeK6Kz02xkiySM1znkEcqcU4Tzwfdc0JiaOll063QfJism5VYGyvBqmNVuOmc017lpvvindBZk/wDaMo4VjUiTTzKSXOPrUcUETLk1N5S7cKcUgKkrY6mqrzAdOasTW+OpzTYbTfyFzQMqFnf7oxTltWblqvmPy/4MVGWpAQLaqvWnhUXoKdnNJimAu8jpTHJYc0uKMUARbT2NOTzCwVCcnpT8U5CY3DL1B4pAacGh6lJD5iY6ZxVSf7XaNtmQr9a2LDxLJAoWVcj1FR6zq0V/GFjXnucVVlYlN3MgX7DqKkF8h6iqhWk21JRfE8LdaXELdDWdsowR0JpgaPkqejUhtz2INUA8i9Gp4upV75pAWjCw7U0oR2qIX7jqKkW/U/eFMA20YqQXULdaduhboaAIcUmKn2IejUnlehoERYpMVKYz6Umw+lAEeKMU/FGKAGYop+KTFAxKKXFGKAExSYp2KKAG4op2KXFAAksiH5HZfoav2ut39swKTMcdjVJY2b7ozVyDT3cjdxRqGh6T4G8RXGpMY5+q8GvQccV5z4CsVt5iQOTXpQXirMyLbRtqXbSbaAI9tG2pNtGKAI9tG2pMUbaAI9tJtqTFGKAI9tGKkxRtoAj20Yp+2lAoA1PDw/05vpXYdq5Lw+MXrf7tdb/DSl0BCUUxqiaRhU2KLGKTFVDcsvWk+3AdRRYLls0VVF9GetPF1Ef4qLMLk1JTRMh6MKduB6EUAFJS0UAJSU6kpgJRRRQAlFFFAhKKWkoAKSlpKYCUlOpMUAJSU6kxQAlJS0lACUlBpDQAGmmg00mgAJphNBNMJoAC1Rk0pOaa2FGWOBQAnJprska5c4rN1HX7axUjcGbsBXJajr9zesQrGNPQdapJslyOl1LxJb2gKxne/oK5W/1u6vWOXKJ/dBrOJyeabmrUUib3Fzk1o2y/uxWaOtatsv7oUS2Gh22kxUuKTFZlEe2jFSbaMUAR4oxT8UYoA8Pa5hj6YNVpb4ScKKhFk7feNXbO1SKQFhmkUVQsjdVIH0pr2hfmuik8gw8ACs98A0rBcy1ilj+7Uq3U0fVc1bxnoKU2kmNzIQPcUWGQx6sY/vqfyq5FrsJGGqD7GG6rUT6ch7UC0L0mo20o4IqrJLEfukVVOlj+EkVE+nSp91iaNQJXlGflNR/M3rUaxSofmFSCYp1FIY9YHf7oyakFlcA5CGkt7zbLnFakOsQjAcYp6C1MtrO4PVTTPscn8QIrpE1OzcfeGaZNLbSL8rLTsBn2FhC5/eAZ961I7OGCQFQtZzsEOY2qvNeSKPvGnoI6GSa3Veiisa+uo3OE7Vmm4Zj8xJprS+1Tcdiy94Wj2gVTYimM7sflFIIJH+8cCkMR5gOlV3Mkp+UVdW2VevJp2EXpSGQW1uQPnFWvLQdqYX9KQbmpiJAVXpTXyR8pxR5ZPuak8iRUyUOPXFAFRmk5Dc06K4eEY28VIVpu2gYrXgdcEVEu2R8U4oDSeXjpQBP9kUjhqabNuxzTAWHQ08TOO9ADDbSDtTDEw6qasi5YdRThcg9RQBS20bavb4W6ik8qFunFAiniirRtgfutTDbsPegCvijFSmJh2pu2gZHijFSbaaRQAzFG2n4pwiY9FJ/CgCHZRsFSlCOopMUAReXSbCOhNTYpMUARZdehp4nlX3pcUbaQDlvXHUVIt+O4qEpTTGKALgu4m604SRN3rPMQpDGR0JoA08IejUeX6Vl5dejUhvXj70AaTDb1pKyzeu7VdtizDLUAT4oxTsZ6VZgtWc5PSmIrpCzngVdhsO7c1dit1jFbujaSLuQPNwn86pITZlWemvKwWGJmPsK6jTfB17PgyII1966zTLeytUARVGK3YbmEAbWFOxJnaL4eXTVBzk1t7aaLhD/EKXzVPcUAG2jFLuB70ZFAxuKNtPpcUAR7aNtSbaNtAEe2k21Lto20CIttG2pNtG2gCLbShak20baANLQF/wBMb/dFdX/DXL6CP9Kf6CuoP3amXQERNVd6sPVd6EUV3qB6neoHpiIWqM1K1RmmA3ew6MfzpwnkHRjTaTFAEy3ky96lXUZB1qnRQBoDU/UVINSQ9ayzSUrAbIv4j3p4uoj/ABVh0ciiwG+JUPRhShgehFYAdh0Y04TSDoxosBvUViC8lXvUi6jIOtFgNekrMXUz/EKkGpp3oAv0lVBqUR6mnC/gP8VFmBYpDUP22A/xUfa4P74o1AlpDUX2uH/noKabyD/noKNQJTTTURvbcdZV/Oon1K1XrKv50WYXLBppqjJrdjH1nQfU1Rn8V6fGDiVW+nNOzFdGyRTGwvLHFcrdeNE5FvGzfhisW78SX11kBvLX2p2Fc7G/1y1sUO5xu7CuT1HxLc3eVhzGnr3rFeRpGLOxYnqSaaTVJIQruWYliST3JphpSabViA0lGaTNIQ4da2rdf3IrFTlx9a34F/cipkVENtJtqXbSYqCiLFGKfijFADMUmKkxRigDwdpB2pBKT0ram0aOMZBqg9uIzxQO4W1rLcdWwK0IdKjDgyHd7Gs9Lkw/dp39qSCgDfNnaQsjhVH4VV1GeJo9iEfhWV9puJh944qNo5D94mi4rEhdaY0g7VGVx1NQvMi96RRZDihpBiqDXWfu0wvK/TigC1LLGOuKzLmcMflFbFhoU9+clsCteLwpHHjfzjrRYL2OPtA8kmApz9K0/wCz5HAyhrr49ItLVd2BUc01vHwNtFguce1iFPOQab9kcfdc/nWnfypJcEx9KqbiKQFKRJ4hnJIqFbvJw5rRkYshBrNktF3E5pDLtq8bfeFXNkJ7CsuD92wArUjiDICw5oGQy+Wv3cVCWz0q1JbIehIqBoSvTmgQ1IXmbavJrSi8OzyR7ice1Z0c7wNkCtGHxBIigNT0FqMk0GaIEnkCqEkflNg9a2zr6yRlT1rInYTSEg0aASWM0Uc26UA+lXbrUoWj2oAfoKyRbszdauR2W1c9TRcLFJ/mYkCmYxVx12H7tV35PTFIZFijFSLGzMAoyT0FXDo94I9/kkjFAGdijFTSQvEcSKVPoRUeKAG4pMU/FJigBuKTB7Gn4pMUDEDMO9OErCm4pcUAPEx70vmA9RUeKMUAKxXtUDEk1Nik20AS2IiD5mGfauht7uzCAEKPwrmNtGCOhNO5LVzU1eS2kI8kDd7VmRwtNIEQZJoye/P1pFuHgk3R8GgZu23hh5YgZGwT6VW1DQZbGMuWBFRweJbmEcnNMvtelvk2ucCjQWpn4qzFp1zMu6OFmHtVeOQBga6HTtcitkCuMUDMSSyni/1kTr9RUJGK6fUvE1o1sQFBbHpXFz3zSyN5a9fSkwWpZd1Ucmq0l2BwvNRpbTTnLZAq3Dp6g8jcaRRS3TTH5QaljsHblzWzBp7NjCYrSg0rHL07CuYEFhz8q5rTg01yORgVspbRRDoBTmmjjHanYm5Uh09U5NTMUhWqtzqkcYOCKxbvVjISFNMDeF9EH+YjitO28QpCoCsAK4D7Q5PU05ZpPU07isekJ4ox0k/Wp08Wsv8Ay0/WvOoI7mdgI1Y1uWHhq/uiCwYCjmFY7OLxoQeXJ/GtO08XecwAyaxNN8ENwZASfeursPCkcIHy/pRzBY0LPVmmAPNa0NwWqtbaQsQGBWjHabaLhYejE1KBmhYsVIEoGNApdtP20u2gCPbRtqTFG2gCLbRtqXFJigCPbRipNtG2gRo6GP8ASH+grpD92ue0Qfvn/Cug/hqZdARG1V3qw1QPQhld6gap3qB6YELVGakamGmAw0lOpKAEpKU0lABSUtFACUUUUCCiiigY2ilIpKAENIadSUAMaoXqZqiegCu5I71Xkdh0Y/nViSqsnegCvJNJ2dvzqnLPL/z0b/vqrMlU5KBFeSWQ9ZG/76NV3Zj1Y/nUz1A1MCMimEU8000ANpKU0lUIQmkJoJppNUSBNITSE00mgBSaM0wmkzQBYh5lX610cIxEv0rm7XmdPrXTxD92tTIcQIpCKeRSYqChmKTFSYpMUAMxSYqTFJigDwo+IS4+ZTVeTUkk9qtiwjHaoptOiZeBilqPQqiYSdDUqR7u9VnsijcHinRJKjDDVOpRpRhoxxikkkbHX9KE3lOaY6nFMQsenT3ilo2AFI+hSRjdI1Pt9QktOFGVqd9UEy4cYoAzjaLHRsAqclHOQ1MKZ6GgC9ZambVcdqtyeIHK4UViFWFM3Y607hY0ZNQurkEKSBVRjLu+cmiG5KcLQ5MnJakAOY415PNVHnH8IqZoFJ+Y5pBEq9BQBX/eP2wKPs5P3jVoD0FW4NKubkZVMD3oGZqRohzirCzEDitA6DOOTVSazeBsOMUWFcg3M7cmrkOmzS4x3qrtxW3o1xHsZLqTaF+6SaAuUbnR5YYTIcMo647VmPEvfFdXqOrWMVo8cbh2YYwK4+W6UHihggaNRULME/ippaabiNT9acmmyOcytSGWLeQv905q6JpFqCC3WBcCpC1ACTXJC5ZapC/iDfOMVbYhhiqz2yN1FAFi1v7ZJlkGMg966SDxHAyAED8K45rCM9BiozZMv3HIp3YmkzpdWmW/ZTHtULWSbZx2zWftu4/uuTT1vbuP7y5ouOxZMTjqpppX1pq6uw/1kZqVdUtn++MfUUgI9tG2rKzWknRgKuWcFuZgzMrD0NMRk7aTFdebbT5U5Rc47VnNoq3Ex+znYnvTsFzBxSYrVudFnt/Rh7VnyRtG2HGDSGRYoxTsUqoWOFBJ9BSAZijFTtbyoMtGwHqRURGKAGYpNtI8ioOTVWW+VeF5oGWGVe9VpnjTvzUPmTzn5QQKkj0925kNICOO4JcAdK0o4yydKSCyCn5UzWlDYyP2wKauDMuS1VjyKkhsCx+RP0reh0xRy9W1jiiHGKdhXMq30lj9/itCLT44uop8l2iDrWfc6siZ+YUxGnujjHGKry36IOornLrXeoQ1lTahNMepoCx0l1rSJkBqx7jWJJCQprOSGaduAzVsaf4YvrxhtiYA+opD0MtppJT8xNSQ20szYRGP4V6BpPw6d9rXAJ9q7bTPA9vbgfuh+VArnkth4Wvrsj92QPcV1ulfD4khplJr1Sz8PxQgYjA/CtWHTkTGFpiOJ03wbDAB+7H5V0lpocUQGEH5VvJbKvapREB2oAz4rBE6LVhbYDtVvZRtoAgEQHanbKm20YpgRbKNtS4oxSAj20bakxRimBHijbUm2jbSAi20YqTbRtpgR7aNtSYo20CL+jD96/4VunpWLpA/eP8AhW0elTIERtUD1O1QPQhld6gap3qBqYETVGakaozTAaaSnUlACUlLSUAJTsZoAycVpWNo8dyDKmPlOM0AZhXHWkxWpqsYHlsBycg4rMNC1ASkpaSgApKWkoAKSlpKAGNUL1M1RPQBWkqrJVqSqsvQ0AU5KqSd6uSVTkoEVXqFqneoGpgRmmGnGmmgBppppTTSaokQmmE0MaYTVCAmmE0hNMLUAOLUm6mFqTdQBesfmukFdWg/dj6Vyml83i11q/dFTIqIhFJinUlQMTFJSmigBMUmKdRQB4c04FQtPnpTBEx61o6ZDbpOGuV3D0pFGYyyP0U/lV3TtNa4JMp2Ae1dWp02RQI1UGoZ4IU+aNl/A0+UnmM06YiL8rgn0qnJp85Y7EyK1HuYo1ySDinWmoxSzbRwfenZBdmbD4fnuFy+IvqKp3mkNaS7JDnIyCO9dkLmCNd0kqqPc1haxew3cyC3+YIDlsdaVhpswDakdDTTG61fNQySoo+Y0hmXc3Twjlaih1CN/v1bnkWXgJmqa6XvfdjGakZfhngcgCrogjdciqdrpqxkE1o5SNcUAV3tO6moGhZeoq4XLfdFMZZR1VvypgVVbawJFbFnriwRhHT8qzD7imlVPagVjoRrsDDtk1Gr2t2+6cjFc80a4qIlV6kj8adxWRe1CS2SZvI+72rMaSSXhQatwRwSnjk1dS3jHTFIZjrZSy8ucCp49PiTkjJ961WhAXg1Sm3KaBjcIg+UU0v6UscckzYjUk+1WF0y6c4EZzQIpk5ppq9Lpl1CuZIWA9RzVUoR1GKAI6KftpMUDG4pMU/FGKAI8UhQGpCKTFAERhRuq1G1nE38NWcUYoAoNp6fw5FMNpNH/q5WH41pYoxSsBnLcahB0diKsweIb23PzLmpivrSGNT1FGoaFgeLXdcSRVRn1D7Y+QMClaCLuoqpM0UJ+UijUehoW0aOfmNadvHBbsJARx61z1pP5rYU1cljkdMbjj60IRq6l4itEgaMAMxGMYrkpb95GIiU1bGnKzZfJq3BYKPux/pRqPQyI7S4n5ckCrkGmon3huNbsOnM3UYFXYrGOPlqLCuY0NgzY2pitCHSe71o744xwBUMt8qDqKoQ5LSKIdBStKiDjFZF1rKJn5qx7nXS2QhoA6SfUFT+IVlXWtoucNXOy3s87dTUlrpN5esNkbHPfFIZNcaxJISENUi09w38Rz6V1+leALq4KmVSB9K7vR/h3DEFMkeT7igVzyWx8O3t4w2RNg9yK63Svh3NKVMyn8q9g0/wtBbgbYgPwrdt9KjjAwg/KgDzvSfh/BAAWiBP0rrbHw3BABiMD8K6WO0Ve1TrCB2piMuHTUTGFFXEtVXtVvYKXFAEAiA6CnhKkxS4oAj20uKfijFADMUuKdijFADcUYp+KMUwGYoxT8UuKAI8UYqTbRtoAjxRtqTbS7aAIsUbal20baAIttG2pdlG2gRc0kYZ61zWXpgwzVqGpkNEbVA9TtUD0IZXeoHqd6gemIiamGnmmGmA2ilpKAEpKdSUACnawPoc1t2t8lyxVQQwGeaw6mtbg202/G4EYIpNXA3JpI40/ekAH1rn5ipmby/u54qe9vDdsuF2qvSqtJKw2xKDS0lUISg0UUAFIaWkNICNqhepmqF6AK8lVZehq1JVWXvTApyVUk71bkqrJTEVXqBqsOKgagCJqjNSNUbUAMNMJpzGo2NWSNY1EzU5jUTNTEIzUwtSM1Rs1MQ4tTd1RlqYXoA1dKlCXYJNdML1cda89m1EWfzk4psfilT/AB1Mho9F+1qe9KLkHvXCR+JFb+OrUevqf46mxVzs/tA9aUTCuVj1lT/FVlNVU/xUgudF5opfMFYaaip/iqZb4HvQM8oII7Uol21bZB6VXmRVUk8VJQguiO9Kty0jAFyB9azzdQGTbvwalRFPIalcLF+4jVYwwkyfrVVZADgNj6VNHGjDDE1L9khHIHNACrDGsYd2z9TVeW4ReIxmp3VVXFVmKqeBTAgYzS9OBQLLu5zU29j90VJHGXPztgUAQCKOPoKeATwq1pQWdvjkg1eitIgPlxRYVzC8ibbkqQKjKkda6SVQiEEg+1ZU9nIcuE+WiwXKts7LMNgBb3rrLK2kmiHmhOR3Fci4e3cMeCOlK+vXKLtExH0oBnRaxp9lDbM7lFk7Ba5VsCq02oTTtxuc+9MW0u7n77FB6CgaHzXMcfU8+gqk001w22GM49TWrDo8UfMnzH3q2FjiGEUUhmdYWUkfzSHFaBwKQsTTcUxDLmSTyj5XWsp57tTyua1iKaUBpDM+31ia1fJirWt/FsakeYmDVcwo3VRUL2EL9VFGorI6OHxTYyjDnFNvbqwvYsRsm4965d9KjP3cj8ahOmyp/q5WH407sXKjYezH8Dg1E1s47ZrLxqEP3H3Cnrql5F/rIyfpSGXxA7NtVSSe2K0ofDl7NHuCgexrJtvEXkuGaPBHqK6Cz8chAAyinoDuZV5pd1Y/6+MgevaqeK3NY8Srqdv5YAFY0LKJAzDIBoBCCF8Z2Nj1xSbK77Rtb0YWyx3CqOOcrTNcfw49q0kJjD44K0aiucGVpp4qvc6nBG7BTnnis6TUppjiFT+ApXKNWSZIx8zAVRm1RF4jG41BFpt1dHdMxArSt9Iiixkbj70tR6GWZLu6PyKQKli0h3IMzVvxWnZE/Srcdh/fp2FcxrexSH7i81eS1d+1aa28cYoaZE6YoEVYtPUcvVlUii6AVWmv1QckVl3WtImcNTA23ulQdaoz6oqZywrmrjWnkyEqi0lxcN/Ec+lFwsb1zroGQpzWTPqs0x+UmrFh4av79hsibB7kV2ej/DWWQq06k/hSDQ89jgubtvlVmzW9pfgq+vWBMZUH1FexaR4Bt7YDMQz9K66y0CGAALGB+FMLs8o0b4aqpVpkyfcV3WmeDbe2AxEOPauzisETHyirSQBe1AjGtdFiiAwg/KtGOzRR92rgQCnbaAIVhA7U8IBUmKMUANxRin4oxQA3FGKdijFADcUYp2KKAG4oxS0UwExRS0UCCjFLRQAYoxS0ooATFLilpQKBjcUuKXFLigBuKXbS4pwFAhm2l21IFpwWgCWxISQg8ZrS6isoLg5FWEmZRg1LVxrQstUD003S96a0yt3osFyN6hepWYHvUTUwIjTDTzTTTAbSUtJQAlIadSUANNFLiigBKSlooASg0UUAJRRRQAlIaWkNICNqiepmqF6AK0lVZatSVVlpiKknSqklW5KqyUwKz1A1WHqB6AIGqJqleoWNMRGxqJjT2NQO1UhDXaoWaldqhZqokGaoy1NZqrT3SQqS7YpiJmfHWqF5qUVupywz9ayNQ13qkNYcssk7ZkJNS5FKNyzqWqPdvhT8tUBI46E07ZSFazepoh63Uq9GNTJqUyfxGqhFIRSA1otblXqxq7D4hYYya5qlXJPFO4WR2cPiAn+KtKDW938VcLCrVp24fIouKxou4XqcVQu7uMKVznNQLBeXRy52irUWlInMnzH3qCjn3tzLKTCrdavWdhd7gWbC+lbqxRR/dUCl34+6KLBcSCDaBuNXUhEi4XrVLcxqWGd4TlaYDZV2sQR0qBokbtip5HMjlm6mmYoAgMJH3TSYcdqnK0nNAEPmFeop63jp0Yj8aGI71TnuEj9KQF9dT2sGfnFTXHiAyReXFFWLHewyNjHNaFqVJ+5x607hYpyJdXj5fgVJFpKjmQljWsFHYUEDvQBTS2jj+6oH4U4nb0qz5W/7pBqJ4JF6qaAIGJPWmYq9EIVX94OarSAbjt6dqAIaMU/FG2gZHikxUmKTFADMUmKkxSYoAZikxT8UmKAGFaaY1PapcUlICu1rG3VR+VQtp8J/hxVqSeOJcuwFZ1xrMSZWP5j7UAD2ap91iPxqD7R5LYL5FQma8vD+7QqDU9vojsQ07E0hl6BzPHuTmq13aXE/yhiq+grWtoBBGEQVZFuz9qdibnOQ6HGOZMsa0rewjjwI4x+Va6Wiry1PzHH0AosO5UjsmPUYqwlqifepsl2FHWqM+pqgOWFMRpGREHGBVeW+VB1Fc/da4BkKayLjVZZT8pNAHTXOsImfmrHudeJyENZKRXN02FDNmtvTPBt/fMP3ZAPqKQ9DGlv55zwTT7bS7y9cbI2bPtXqGi/DLlWnXJ+ld/pPgm2tVGIhx7UCv2PGdJ+H15dFTKhAPtXoGi/DaCDaZYwx9xXptro0UQGEA/CtGOzVegpiOX0/wvb26jbEo/Ct630uOMDCj8q0liA7VIExQBWS2Ve1SiMDtUuKMUAM2gUuKdijFADcUoFLRQAmKKWimAlFLRQAlFLSUgEopaKYCUUUUAJRRRQIWiiigBaWkFKKACnU2loAUUtJS0DFpwplOBoAkFPFRA08GgCUU7bkVGrVIGpAU7qNwCUrKlvpIGw4IroiQetQTWcMwO5R+VAGEurIerVMuoo3Rx+dOuvDlvNkplT7Vk3Hhe5Q5guG/E07iNcXgPcU4XKmuYk0vWLf7rb6ga41a3/1kDH6UaAdeJ1NKJFPeuOGvTRcTQsPwqePxJEfvZFAHV7ge9LXPxa7bv8A8tKtJqkTdJB+dFguatFUVvlPRh+dSC7HrQBZoNQi5U04TKaBj6Sk3qe9LnNACUUtFACUlLSGgCNqhep2qF6QFWSqstW5Kqy0xFOSq0lWpKrSUwKz1XerD1XegCB6ruamkNVpGpoRE7VXdqfI1VpHA61aJGu1QSyhBljiql7qkNspy2TXNX2sS3LFY+BTuK1zXv8AWY4QQhya565vprpjkkCodpdsscmnhMVLZSSRCI/WnbcVLimkVJRERUZFTNUZoAjIpuKlCE9Kmjtix6UhlZYixq3Dak9quwWeccVpQWXTikBRgs+nFaUFpyOKuw2eO1XobX2piMLze0YqaC0mum+X8agQ7e1TxXLRfcbGaQyw2meX99qelnbgfMagN2z/AHmzTDLnqaegtQnjRZD5Z4qHFOZs96fbTwxTAzgMvekMSKIPIAxwPWp7i0WEAo4YVHq+qWAjU2qhGHXFYEusTzfLArMaA1NaR0QfMQKoT6pBFkA7j7VWj029vDuuJCqnsK0LfRLaHBYb29TSHYy2u7m7bEETY9aki0aeY5uHwPQV0CQqowqgD2FSiPFAGZbaTDBjC5NXljVRwKe7pGPmYCqkt8i/d5oAsniq10d0ZCtg1Ue7llPyjimeXI/32oAiR76JsxHeKsprN1FxNCaVEKDgmpAzd8H60hkia5aycTJtP0qVbjTp/uuAfrVRoYpPvxD8KhbT7Zvu5WmI1fscL8xy0xrGQfdw30rK/s+WM5t52H409Z9Ut/4t496Qy61vIvVD+VRlKYmu3EfE8GfpUo1y0l/1se38KAGFabtqwLqwl+4+DUN1PDBHv8zK0AMxTHZUHzHFZN1ry5KwKWNUwmpai3AZFPrRcLGncarBBnnJrNl1eec7bdCfoKvWvhtBhrlyx9K1oLCCAYjjA/CjUNDm4tKvbw7rhyq+lalrolvBgkbm9TW0sBPtTxEidadhXKcdsBgIgFWUtf71PMyr0qCS8C96ALG1EpjThelZVzqqRg/MKx7nXuoQ0XA6OW+VOrCsy61lEzhq5ubUZ5jwTTYLC7vHARGbPtSAu3OtM+QlUGnnnbqTXUaT4BvrwqXQqD7V6Dofwyii2tMmT7igLnkdj4evr9x5cTYPciux0f4bTzFWnU/lXsum+Era2UBYlGPauhttKiiAwg/KgDznRvh5b2wXdECfpXY2Ph2CBRtjA/CujS1Ve1TLEBTEZ8OnomMKPyq2sAXtU+0ClxQBGIwKdtp2KMUANxS0uKKAG0UtFACUYpaSgAoopKYBRS0UCEooooAKSlpKBhRRRQAlFFFAgpKWkoAKWkxS0AFLSUtABS5pKWgBaKSloAXNLmm0tADgacGqPNLmgCUNTg9Q5pQaBk4el31Bupd1AE++jdUG6l3UgJuD1FMaGJ/vID+FM30b6AIpNMtZfvRKfwqjN4Z0+brEo+grU30u+gDmp/BVo/8Aq2K1Ql8FSpzBcMPxrtN1LuoA8+fw7q8H+rmLfWoTFrdt96Mv9K9G4NIY0bqoP4UXYrHnP9r30HE1s/5VNH4lUf6xWX8K7qSyt5PvRqfwqpLoNjN96Ffyp3CxzcXiG2f+PFXI9WgfpIPzqzP4P0+T7qbfpWfN4Hj/AOWMrL9DRcC+l+h6OPzqVbwf3q52TwjqEP8AqLpvxqu+l65b9G3ii6DU60XYo+0qa41rrV7f/WWzEe1IPEE8fE0Dj8KA1OyMymo2kU965VfE0X8YI/CnjxJan/lpiiwHQOwPeq0lZP8Ab9sf+WoqN9dtv+eq/nRYDQkqrJWfLr1sP+Wq/nVOXxFaj/lqtOwGnJVaQ1jT+KbVf+WgrJuvGFuucOKdhXOjlcCqU86KDlh+dchdeMgc+XzWNc+ILq5J2kgUxHZXmrwQA5cfnXN3/iF5SVg/OsQtLMcysTT0jxTuFgdpJ2zKxNOWPFSBcUuKQxoXFBFOxSbT6UAMNNNS+Wx7GlFtI38NICsRSpCW7VoRac7HkVoQaWeMikMyobMk9K0oLHpxWrBp2MfLWhDY47UDMyCy6cVoQ2mO1X4rPHarcdrjtSApRW2O1W47eraW+KnSDHagR56V9qYUHpVloyO1RlaRRAY/Q1G+V6tip3YKMk4rNv8AUYEQruyfagCf5m6OKPsjydZDj2rASe6klH2ZXcH2rfsLe7dQZvl9qVx2FXSIicuCx96uRWSR/cQD8KuIAigE5p3mIBTEQiMjtihlCjLHFCaparP5cjAc96tT2VvqCgxXG36GgDMlv44unNUpNRll4QEfStCTw/IhymJKhayki+9Ey/hQBn7JZDljipFt1HXk+9WNtSRQmWRU6bjigCuFA6UuK7O08B/arcOt3hiOmKzdV8KXWlxtIzCRF6kcUxXRz+KXFPK4pMUhjcUYp1NeRUGWIFABjFIX296oXOs20GRu3H2rLk1a7u222kLH3xSGbkt0iKd5H41kXep22dqLub2FLb6Bf3p3XchRT2zWzZ+HbW2wSu9vU0agZelxPdt80RUeprWk0mKWPbICR6VqRwJGuEXA9qUgDqadhGTDpFrbn5Ihn3q2kOBhVwKmaVF6VA91jpxQBKIgPvGkMiJ0qhLfherVm3OsImfmoA2pLsDvVGfUlTOWrm7nW2bIQ1nSXU856mlcdjobnW1XO01kXGsSynCk0y00a8vnGyNjnviut0j4dXdyymVCB9KA0OKH2i5b+Js1r6b4Uv79htiYA9yK9h0T4awQBTLGCfcV2+neF7e2UBYgPwoFdnkGifDJmKtcLn8K9C0fwLa2qrmEce1d1BpsceMKPyq4luq9qYjFtNDhhACxgfhWnFZonRauCMCnYoAhWEDtUgSn4opgNxS0tFADaKWikAlFLRQAlJS0lABSUtFMBKKKKAEopaSgBKWkopAFFFFAhKKWimMSilxRSEJRRRTASig1Qvdd0nTs/btStYMdpJlB/KgC/RXI3nxQ8KWmQNR89h2hjZv1xisO6+NekRki0027n9CzKg/rQFz0qlrx25+OFyc/ZNFiT3kmLfyArLn+M3iKTPkxWcP0iJ/maA1PdqWvnib4reLZc41BI/8AcgQf0qjL8Q/Fc339auB/ukL/ACFK6HZn0rRXy+/jLxHJ97Wb0/8AbY1A3ifXH+/q16f+3hv8aLoLM+qOaK+Uzr2qt97Ubo/WZv8AGga7qY/5f7n/AL+t/jRdBZn1ZzRXywniPVk6ajdf9/m/xq1F4u1lOmp3X/f5v8aLoLM+ns0tfONv491yLGNTuT9ZCa07f4na7FjN6zf7yg/zFO6Fqe95pc14vB8WtVXHmGKT6oP6VpQfF+Uf6+zib6EijQNT1bNGa87g+Llg/E1k6+6yZ/pWpbfEvQJ8b5JYs/3lz/KgDr80ZrGtvFuhXf8AqtShz6Odv8604bqC4GYJ45R6o4NArom3Uu6m0maBj91LuqPNGaAJd1G6o80ZoGS7qN1RZozSAl3Ubqh3Uu6mBLuBpCqnqBUe6jdRYAe3ibqo/KqsulWsv3olP4Va3Um6lYDHn8M2EvWJfyrMuPBNi+dq4rqi1NJzQBwdx4AgbOxmH41l3Hw8bnZK/wCdenGmFQaAPH7j4eXXO2Z/zrOm+Ht9ziVvzr21olPaomt0PagDwiX4e3vdmNVm+H12Dzk/hXvTWcZ7Com0+M/wimB4R/wgdwvUfpUi+CpV65/KvbX02M/wioW0uP8Auj8qLgeNjwhIOx/KnDwq47GvXG0pP7tRtpSf3aLiseUjwww/hNOHhk/3a9QOlr/dph0tf7tFx2PNR4bx/D+lOHh3H8NeinTF/u03+zl9KAscCvh4f3f0qePQQP4f0rtv7PHpS/YQO1AHJR6MF/hqwmmAfw10v2IelL9kA7UAYKWAHap0s8dq1xbY7U4W/tQBmJa+1TLb47VfEFOEVAFJYfapFiq15VKI6API7vVLeLOWFY8+uSStttIi59hVu28Mg/NduXPpWtDZW1ouERR+FA9Dm49N1K/bdO5jU9q07Xw3bw4aX5z71qmXHCCo2LN940rBcRIreAYjUD6ChpCenFJimmmICT6005NOxRigClNYRTMSw59ag/s2WE5trhkPpmtTFGKVhlBbvV7bo/mCp4/EtzFxdW2fep8UhQHqM0agPTXtLuP+PiHafpVlF0m5x5FyUP1rMksoH+9Gv5VUk0yAcpuQ+xo1A7S1kvbZMWl/uXtnmq2qXWpTxFbmfch6gd64p5Z7DmO8ZQOxNS2viG5uT5TN5nuKBWNJ8L1OKo3Go28HVwT9apX0Op3cmIflWltPCbykNeyk+1F2UVbjX2dttshY+wqOLTdW1NsvujQ+tdZaaPaWajy4lz6kVeC4HAwKLMVzmrPwjBFhrhjI3vW1BYwW6gRRgfQVO8qJ94iqst+B9ynZIC1sx14FMaaNO+TWbLeMerVTlvgvVqBGtJe+nFU5Lz1NYtxqyqPvVk3GsM2QlK47HRT6kqA/NWTc62BkKaxHmmnbqauWOgXt+48uJsHuRSHoQz6lLKeCahSC4um+VWbNegaN8NLicq06n8q9D0X4c21sFLxAn6UCv2PGtL8GX98w/dEA+orvdD+GIG1p0yfcV67YeHILdQFjA/CtmHT448YUUCOK0nwVbWqj90PyrqLTRooQNqAfhWusAHapQgFMCrHaKvQVOsQHapcUuKAGBaXFOxRigBMUmKWigBMUUtJQAlFLSUAJRRS0wEooopCEooooGJRS0lABSUtJQAlLRRQAlFLSUCDFFIzBVLMQAOpJwBXNav8AEHw3o25Z9RSaVf8Allb/ALw/pwPxNMDpaPpXkmqfGuRty6NpSr6S3L5/8dH+NcZqvj7xLq+VuNTkjjP/ACzg/dj9OT+NIZ9AahrWm6Uu7Ur+3th6SSAH8utcrqHxa8NWWRbyzXrDtDGQPzOK8HZnkcs7MzHqWOSaTbRcLM9Tv/jdKcjTdGRfR7iUt+gx/Oubvfit4qu8iO7itVPaGFR+pya5DZRsouOyLl7r+sakSb7UrqcHqHlOPyzis7knPf1qby6NlIexDijFTbKNlICDbRtqfZSbKAINtJipylIUoAgxRiptlNK0ARYpKk20hWgZHRmnFaaRQAocinCUio6SgCbzyO9L9pYd6rk0maALQum9aet6w71QzSbqANePUnXoxH41ettdnhIKTMp9jXN76USkUXFa56FYeP8AVbQjZey4HYuSPyrp7D4sXi4F0scw75XB/SvGVnI71Ml0R3quZk8iPoew+JWl3OBcRvCT3B3CuhtNf0u+A+zXsTE/wscH9a+YotRde9aNtrciEYc/nTug5WfToORkcijNeCaZ42vbIjybmRQO27j8q6/TvijJwt5FHMO5HymnoybvsemZpM1z2n+NdHvwAZ/Ic9pOn51uxSxzxh4XWRT0ZTkUmmh3TH5ozSUUhi5ozSUlAhc0ZpuaSmA7NITSZpKBi5puaQmkoAUmkNFNNAAaaaWkNACEU0rTqSgCMoKaUFSmkNAEBjFMMQqxikxQBWMIpphFWsUm2gCmYBTTB7VcK0m2gCn5PtTTDVwrSFaQFPyaTyquFKTZTAqeVR5dWtlGygCr5dAjqzso2UAeStHJIMp0qBoXX7yms8/21YOTs8xR6U+PxJJEcXdqw9eKYi3igRs/3VJ+gp0WtaVc/fOxq3dGvNOt2ZkkDbvpxSGc8yEcMCD70wrXdTpZahHgeUx/DNc7qumrbEGFOO5FAGPilxWtounQX96I7l9i/XGa6tvBOnSR5iuSp/3qAPPttIRWzr2kx6PIB9oWRT79K5m61i1twcuCaALlRyTJGMuwH1rnbjxHNO2yyiZiemBTIdG1jVG3XDmJD2JpDNG71+2gyFYMfasttTv9QbbZQNg98Vu2Pg+0tyGnzK3vW7DZwwKBEiqPYUWYaHH23ha8uiHv5iM/wiugsdDtrFcRLz6mtYgKOeKry3kUffJ9qdguKIVXoKRmRB8xxVCfUyeEwKoS3Zb7zUXEakt9GnCcmqU1+7d8Csua+Ve9ZtxqqjODSuM2ZbzHU1Rn1JUB5rAn1R3+6aqFpp27mkM1rjWeoU1mzahLKeCauWPh29vWGyJsH2rstG+G08zKZlP5UCujz6K2ubpsKrNXQ6V4Iv75lzGQD6ivZdE+HlvbKpeIE/Su0sPD0Fuo2xgY9qAuzyfQvhiibWnTJ9xXoWleD7a1UYiUfhXXw2CJ0WrSQAdqYjKttJiiAwgH4VoR2qr0FWggFLigCNYgKftp2KMUAJijFLRQAlFKaKAEpKdSUAJSUtFACUlLRQA2ilNJTAKSlpKACkpaKAEooooAKKKKQBSUtZWseJNI0GPdqt9FAccR5y5+ijmgDUprMEUsxCqOSScAV5Vrfxo+9H4f0/2E90f5IP6mvPdY8Ua3r7k6pqEsqk8RA7UH/ARxQB7brPxH8OaNuRr0Xcy/8srYb/16D864TV/jRqM+5NGsIbRe0kx8xvy4A/WvNgppwjzRcLF/VfEus645OqajPOD/AAbsIP8AgI4rMC1MIqeIqQyvspwjq0IqcIfagZVEdOEVWxFS+VQBUEVL5VXPLo8r2oAp+XR5dXPLo8ugCn5dHl1bMfoKTy6QFQx+lJ5dWzHTJAscZkkZUQdWY4A/GmBVMdNKUsV9DcybLVZJ1zhpET5F/E4/SpzHSArFKaUqzs4ppSgCsVphSrJWmMlAFcrTCtWCtMK0DICtMIqcrTCKAISKaRUpFMIoAjNIaeRTCKQDaTNONNNABml3UykzQBMJKkWYjvVXNLupgXkuSO9WI75l71lB6USUCOhh1aROjVsab4tvLCQPb3MkZ9mxXEiUinrOR3pptbCcU9z2rSvizMm1NRhS4Xuw+Vv8K7bS/GuiaqFEd0IZD/BNx+vSvmRbsjoatQ6nJGchiKrm7k8rWx9Xg5AI5B6EUhr540P4happDKILljH3jf5lP4V6VoXxV0vUAsepr9kkP8YOUP8AUfrTsnsK7W53lJmo7e6gvIRLaTJNG3RkbIqSkMSkJpTSUAJRRSUABpKKQ0ABpKWkoAQ0lLRQAlIaWigY2kpaKAG4oxS0YoAbikxTqQigBuKTbT8UmKAGYpNtPIpKAGYo20/FGKBDMUmKeRRigDxiLUZ4+Cd49DU3261mGLm3H1xmqG2kK0x2Lb6bo13/AAIpP4VXk8JRfesrl4j2w1REYpj34tBnztn40gFOna5Yn9xc+aB2NP8A7f1W3Gy9tmdfXrUNt4vgacQuS+eMit1JUnTcBwfUUegGbH4gtHHzxtE/5Vl3fjm5jZksjI2OBya6R7SGQHMS8+1Vo9Fso2ysK5+lGoaHFyza9r02XLgHue1aNl4LBw9/Kzn0zXXpEkYwigD2FDMqDLEAUrDuUbTSrSyUCGFR74q5j0FVptQhj4X5jWfPqcjdDtHtTEask8cX3mFU5tUVeIxn3NY0t1nq1U5r9UzzRcLGrPfyP95uKoS3gGcmsa51cDODWVPqbyH5aVx2Ogn1NEB+asu41jOQprKHnTtxuP0rV07wxfX7DZEwB7kUh6GdLeSynqaWCxubtgERjn2r0nRPhjI5VrhSfwr0TR/AFtbKuYhn6UCueMaT4EvbxlLxkA+1ehaH8M449rTR5PuK9UstAggA2xgY9q14bFExhRQI5DTPCFtbKMRAfhXR2ukxRAYQD8K1kgA7U8IBTArR2qr2qdYgO1SAUtADQuKMU6igBKKKKACiiigAooooAQ0UGigApKWkoASg0UUCEpKWimMQ0lKaSgAoopaAG0UtJQAUUyWWOCFpZnWONBlndgAB7k1wfiD4taRpm6HSEOp3A43KdsSn69T+H50gO+JwpJwAOST2rj9f+JmgaJuiimOoXI/5ZW5yAfdun5ZryLX/ABtrviMlb68ZLcni3h+RB9R3/HNc+FoCx2mu/FPxBq2+OzddNt242wffI93PP5Yri5HkmkaSZ2kdjks5yT+NSCOpFioHYriPNPWKrSw+1SrBSAqLDUiw+1W1hqRYaBlNYakEPtVwRe1PEVAFMQ04Q1cEVOEVAFMRUvlYq55XtS+V3oApeV7Uvl4q35WOOlHle1AFTy6TyqueX+dQ3U1vZW5nvJUgiHVnOPwHqfYUAQeX+dQXdxb2MPm3kyQp2Lnr9B1P4VEt3qOrf8gi2+yWx6Xl2vLD1SPv9TxVi08P2lrN9on33l2etxcnc34Dov4UAZour/UP+QZaeRCelzeDGfdU6n8adHoULSCbUZJL6YdDN9xfog4Fb7R1GY6BFIxAKAAABwAOg/CozH6VeMdRtHQBSMdNZKtsntUZSgZUKVGUq2yVGyUAVGSo2WrTL61Ey0gKxWo2FWWWo2FAyuRTCKnIqMigCEimEVMRUZFAEZFMNSEUw0AMIpKcaaaAG5ozRSUAGaM0lJQA/dRupmaM0ASb6UOajooETiU1NHdMnQmqeaXNMDp9G8W6jo9wJbK6eMjqAeD9R3r1Lw78XrW5CQ65D5TdPPi6fiv+FeEBjUsc7L0NVzPqS4rofWtlf2upW4nsZ0niboyHNWK+X9E8VX+i3KzWVw8TDrg8H6jvXr/hj4qWGpBINXxazHjzR9xj7+lPR7E6rc9ApKbHKk0ayQurowyrKcginUhiUlLRQAlIaDRQAlFFFAAaSlNJQMSilpKAEpDS0UAJRRRQAlJTqTFACUlKaKBDaKU0lABSUtJQB4c8qoMsQKzrvWra3By4J9qxY7TWdYb5VaND3PFbmneB4EIkv5Glb07Ur32KMWXXLu8fZYwsxPcCprbwrqeosJL6Ty1Pau4tdOtbRQsESoPYVaxTt3FfsYGm+F7PT8Nt3v6mtgIFGAKdLNHEPnYCs+fVUXiPk0wL+cCoJbyGLO5sn0FYs+oSydWwPSqUlyB1NIDYn1Y9Ixis2a9d+XY1mz6giZ5FZNzrIGQppXGbkt4F71QuNTRAfmrn5tSkk6E1AqT3DcBjmkM0bjWC2QprPkupZT1Na+neFL++YbYmAPfFdzonwxdyrTpn6igV0eaW2mXV44EcbHPtXVaR8P7y7ZTIhAPtXs2jeAra1VcxDP0rrrLQoYANsY/KgNTy7Q/hnFFtMseT7iu80zwpb2qgLEB+FdVFZInRasrCB2piM230uOIDCD8qvJbKvarATFOAoGRrGBTwtOxRQITFGKWigBKSloNACUUUUwCkpaSgAooopAFFFFAhDRQaKBhSUtFAhtFLSUAJRRRQMKSlpKACigkKpLEAAZJJwBXCeJvinpWj7rfSgNSuxxlT+6Q+7d/w/OgDt554raFpriRIokGWd2CqB7k1574j+LmnWBaDQov7QnHHnNlYlP8ANv0HvXmOveKNX8ST+Zql0zoDlIV+WNPov9etZGzNAWNPXPFGseI5t2q3jyIDlYV+WNfoo4/HrWSEzUyxVKsVIZAsVSrFVlIamWGgCskPtUyw+1WUhqdYaBlVYalWGrSxe1SCKgCqIQe36U8Q1aEVPEVAFURfhThFVsRelL5VAFURflThFVoQ1PBaSTyrHChd3OFUd6AKAi9KPJz2rqIvC5Vc3c4B/uxj+p/wqtf6ZFaws0TnIH8fIp2Fc5/yaR1SKNpJGVEQZZmIAUe5rOi8Ux3Z+zaXp899qO5lNtGQFQDHzs54C8/p9KmXwzLqMiz+JrgXbKcpZQ5W3i/Dq59zSAzTrFzqsjQ+GbXz1U7XvrgFYEPsOrGrNn4ZginW71SR9Svf+etwMqn+4nRRXRrbrHGqRosaKMKqgAKPQDtQY8ZoApNHTDHV0x+3OaYY/agCiY6Y0Yq6yVG0dMCkye1RslXGTFRMntSApslRsntVxk4qJlxQMqMlQstW2SomWgCo6VEy81aZc9qiZaAKrLUTLVllqFhikBXYVGRU7Dmo2FAyAioyKnYVERQBERTDUrCoyKAIyKaaeRTDQA00004000AJSUtJQAUUUUAKBSgUAU8LVJE3EC0u2pFXNPEdOwrkO2jaasiKl8mnYVysMipY5mQ5BpxippjIpWHc7Dwt4+1Hw/KBHL5kBPzQucqf8D717R4b8Z6Z4khUW8giucfNA55/A96+ZsFTVuy1CazmWSF2RlOQQcU79xW7H1dSV5V4S+Kv+rtNeBdegnH3h9fX+deoW11BeW6T2sqyxOMq6nINFguSUlKaSkAUUUUAFJS0lACUUUUAFJS0lAxKKDRQISilpKADtSUtJQMKQ0tFAhtFLSUAeVpEsYwoAHsKGYKMkgCsq41odIV/E1mz30sn33NNsZuT6nDDkA7j7VmXGryvkKdg9qyZLkDvVGfUUQH5hU3Cxpy3TNks2frVSS9Ve9YVzrA5CmsybUZZOhNIZ0FxqqoD81ZNxrDNkKaz0hnuW+UM1bmmeEL++YYiYA+1AaGI9xNMepqxaaRd3jARxsc+1en6H8MSSrTpk/SvRNH8C21qq/uh+VAXPGdH+Hl1dMplQgfSvRND+G0MO0yRgn3FenWehwwgBUA/CtSKzVOi0COY03wrb2yjEQH4Vv2+mxxgYQflWksIHanhMUwK6W6r2qYRgVJilxQAwLilxTsUUANopaKACkpaSgAooooASiiigBKKKKYBSUtFACUGlpKQBRRSUCA0UUUDCkpaSgQlFLRQMbRS1S1TV7DRbJrrVLlLeIdCx5Y+gHUn6UAXK5rxN450jwxGyXEv2i8x8trCct/wI/wj615/4o+K97qIe18Po1jbngzt/rXHt/d/Dn3rzti0jlnYszHJYnJNAWOj8TeO9Z8TM0c0v2azzxawkhT/ALx6t+P5VzQXNSLHUyRUhkKx1MsVTpF7VMkNAyusNTLD7VZWL2qVIaYiBIqnSGpli9qnSPGKAK6xVMIqmWKplj9qBkCxVIsXtU4jqQRe1AFYRe1PEWO1WBHTxH6CkIriKniL2qysXpUixe1AFQRVJZeJLDQryVdQUqjqFM6qW2EHkEDnHTn25q/FbbiMjIrz7xXpmr2V5O5tp5oWYsk0cZZWBPfHQ+xpi3O01H4m+FbKEudTEzY4jhjZmP6V5d4u+J93rqPa6XE1latwzk5kcfh0rmptI1a+uCbfSryQk/wWzH+QrX0v4Y+I9RdTPbCxiPVrg4P/AHyOfzxU3fQuyW5haVqF3FqFkmlJi6EoKOPvMSeh9vUema97SMlQSME1leGfh9p/hwCUZnuiMNM/X6AdhXSmHaMYoQnqZ7R+1MMWO1XmiqMx4FMRRaOo2T0q60dRMnf370AUmT2qNkq4yelRslAFJkqJkHpVxkz0qFk5oApsnWomT1q2y1C6/hQBUZetQutW3X1qF1xQMqOtQstW2Xr2qBxQBVdahdatMvrioHXrQBWYVEwqyw5qFhSAgYVGwqZqiYUDISKY3WpSKjNAERphqU1GaAGGmmnmmGgBppKdSUAJSgUU4CmIcoqVVpqip0WrRLFVKnWPNCJVlI6ogjWKniGrSRZqZYaqwrmebemNb+1a3kUG39qLBcw3gx2qBoyK3ZLX2qnLbY7VLRSZnI7IeK67wp42vdAuR5cm6Fj88TH5W/wPvXLPDioxlTUbD0Z9NaB4msPENqJLSQLKBl4WPzL/AIj3rXr5k0fW7nTLpJreVo3U5BBxivbPCXju21uNLa9ZYbvGAeiyf4H2phtudfRRRSGJRRSUCCkpaSgAooooASilpKACkpaKAEpDS0UAJRRRQMQ0UtJQI+cJb1U71m3OrKufmrn5b+aXuabFbXF02FVmqbl2LlxqzuSFqi0s0zdSa6LTPBd9esMxsAfau80P4Y8q06Z+ooFddDyyy0S8vWAjiY574rsdG+HFzcMpmQ/lXs2keCLa1VcRL+VdVaaLFCBhB+VAanmmh/DeCAKZIgT7iu407wxb2yjbEox7V00Vmq9BVhYQO1AGdb6bHGBhRV1LdV7VYCCnAUwI1jA7U4LTsUuKBCYoxS0UANopaSgAooooASiikoAWkpaSgApDSmkoAKKKKAEooooAKSlpKACiiigQlFFFABRRRQMKSlpKACkqhrOuad4fsTd6rcLCn8K9WkPoo7mvGvFnxG1LxFvtbPdYaeeDGjfPKP8Abb+g4+tAHceLPihYaOXtNG2X96OGcH91Gfcj7x9h+deQarq1/rd813qly9xK3QseFHoB0A+lVAtSKlIZGEzUix1MsVTpF7UAQLFntU6RVOkVTpF60DIEi6cVOkXpUyxVMsVAEKxVKsXtU6x4qVIqBEKxY7VKsVTLHUqxUwIVjqUR+tTCOpFj7UAQiOniPvU4j/KniOkMgEdO2BVLMQqgZJJwAKncLEm584ztAUZLE9FA7k+lX7PTMFZ75QZAcpDnKx+5/vN79B29SITM6O3uJVDQW7Mp6M7bAf6/pUF3eppSq2rR/ZYmYKJ94eME9Mngj6kY966ZlJryP4keMrW+zpdjKGs4JAbmdeRKwP3E9QD1Pr7A5Yj1C2RSgYYNW1G3kHFeZ/B3xLc6vb3mmXQJFph4WHRUYn5PwPT2+leo7aQyJgW6knNQtGKtFajK0CKjJUTR+1XGWo2SkMpMlQtHirrJUTpQBSZKiZKuslQslMCkyfjULJV10/yahZOaAKTrxULr7VcZfwqF1/CgCm61C61cdagcd6AKjr7Y9KgZatsvpUDigZUdagcZ/pVtxUDj86AKrL/jUDirTr/+uoHWgCsw/OoWFWXHqPwqBxSArsKiYVOw61EwoGQNUbVKwqMigCI0w1I3NRmgBhpppxppoAbSUppKAFFPUU0VIoqkSSIOasRrUKCrUY6VaIZPGtW40qGJauxLVkkkceatJF7UkSVcjjzTERLB7U77PV6OEtwoJ+gqQxIn+sdV9uppiMp7bI6VUmtvat1mh7Ize5bFRkRn/lmv86m6GcvNbe1UJYCK7X7PC/WFD/wEVDJp1pJ9+AfgSKllJnEFSpq7Y3r28gIJBFb0/h21lGYpHjPv8wrJuNCvLckoomUd0P8ASoZejPU/Bnj8ShLLVnyOiTE9PY+3vXo4YMoKnIIyCO9fMVtO8EmGypB6EYIr0/wR42EISw1GTMJ4Ryfue30o3FsenUlAYMoZSCCMgjvQaBiUGiigQlFFFABQaKKAEooooASig0lAwooooAKSlpKBHz9onwyuJ9rXCn8q9E0T4c29sFLxAn6V6Ta6RFCoAQD8K0I7VV7UbBvuc3YeGYIAMRgfhW3BpscYGFH5VorEAKkCUiiuluq9qlEYFSYoxQIaFp2KWigBKKKKACiiigApKWkoASiiigQUlLSUDEooooAKKKDQAlFFFABRRRQISiiigYlFFFABSUUtACUtFFACUUVBe31tptnJd386QQRjLSOcAf4n2oAsda4fxd8SrDQt9ppWy/vxwcH93Efc9z7CuP8AF/xMu9ZEllou+zsT8rSdJJh7/wB0e3/6q4LGaW47FnVNUvtavnvNTuHuJn/iY8AegHQD2FVgnNPVKmSOgZEsdTJHUqR5qZI6BDEi9qnSKnpH+dWEj/zigCNI+fTNTJH7VIkdTqlAEaxcdKmWPpT0jqZU9qYEax81KsftUix1KsePagCNY89qlSOpVj6VIqUARCOnhPapljqRUPpQBCseac2IgvyszMdqIv3nPoP5+gAJOACaklbyggSMyzSNsiiU4MjYzjPYAAknsATWnZacLUmWZxNcsMNIBgKM52qOy9Pc4Gc4FICGy04wP59yVe4xgBfuxA9Quf1bqfYYAszyR28DzXEiRRRqWd3YKqgdSSegpb+8ttMsZLy/nSC3iGXkc8D/ABPsOTXhvj34hNrTeWA0NgjZhtM/NMR0eTH6DoPc072EXvHnxIN/bSWumySW2nElTIPlkuh7Dqqe3U98dK8zsLLU/FutQ2GmwF5X+5GDhY17knsPU1Lo2iav4319bWyTzJW5dzwkKZ6n0H+etfSXgrwLp3g7TPIs18y4kx59yw+aQ/0HoP8A9dRrIrb1IfAvgq18HaL9mhPm3MpDXE+MGRu34DJwPc+prpilWNoAppWqEVitMZParJWo2WgCsy1Ey1aZaiZfzpAVmWomWrTLxUTLQBUdPaomWrbLULLQBTZahdetXHWoXXP/ANagCk64qBl/GrjrUDr7UwKbrULrVt19KruB9KAKjrUDrVt1xVd1oGVXWq7D8KtuPwqBx1oAqMPSoHHXnirUgqBweaAKrjrUDCrLioGHvQBXYVC9WG9KhekMgbrUTVM3tULUARGozUjVGaAGGmmnGmGgBDRQaSgB4qRajWpUqkSTIKtxCqsdXIR0q0Qy3COlX4V6VVtoi7fKM+vtWlEqx9fmP6VVxE8EZbnt6npVkSxxdB5h9+BVC6v4LO3869nSGMdCxxn6Dv8AhXMXXi66v5jbeHbN5W7ysuce+Og+pqXKwKLZ2NxqQhhL3MywxDqSQornb3xxp1vkWqvdP6r8q/may4vDF1fyC4169d2P/LONskfj0H4Ctq00jTrHH2e0jDDo7jc35np+FTdsq0UYjeJfEWpf8g61MUZPBiiL4+rHimGw8UXRzPdzJn1uAn6LXVGQnqc/jSbqVu5V+yOTbwzq0nMt1Gx/2riQ/wBKYPD2sW/MExz/ANMbpl/niuvzSilyoOZnJC68T6by010UHJ8xRKv/AH0M1fs/HU0eBqNnuXvJCf6f/XroAcdOKhuLC0u+biBGb++OG/MUWfRhp2HW+q6PrqhY5EaTsjDawp7abLbNvtnLD0PUVz974Qjcl7OQ7uoDHDD8eh/So7PXNV0GYQakj3EA/v8ADAex70Xt8QW7HsPgjxkIimnai52dEZv4D6fSvSQcjI6V4HZ3FnrNuLmwlBI644ZD6EV6P4K8RvKq6XqDfvFGIXP8Q/u/X0qyLnaUUtJSGFJS0lABRRRQAlFFFACUUtJQAlFFFAAaKKKAOmCAU4LTqKQxAKXFFFABSUppKACkNLSUAFFFFAgoopKACkoooGFFFFABTaWkoAKKKKACkoooAKKKKACkoooAKKKKBCUUUUDCiiigAoorkPGHxAs/DitaWWy71LGNgOUh92Pr/s/nilewGt4k8Uad4YsfP1CTdKw/dW6H55D/AEHua8Q8S+KtR8UX3m3z7IVP7q3Q/JGP6n3rP1C/u9VvpLvUJ2nnlOWdj+nsPaoAtL1KGBc1IqU9U4qZI/amBGkftUyR+1SKmPrUyx0CGLHU6x+36U5I6mVOaAGolTpH+NORO9TLHTAaiVMqU9UqVUoAaqetTKlKi1OsdADFTNSqntT1SplSgRGsdTLHUix57VMkdAyJY6kEVTrH61MkdAjkbzxSmi+IfOMP2iBYmgYKcMvzAllzweVAx3wOeKg1P4v6LZQk2tnd3M+OEYLGoPucn9Aa5P4h6bq+h6jc3CRPLpszmSKfGRGWOSh9OTx+FeYyQ6lqd0I4kknkkOFiiG4n2AHJqWxpdTe8XfEHUfEd1vu5BtQ/ubePIji9/c+55+lY3hrwxqvjTXBaWCF2OGmnf7kK+pP8h37V2fhP4H69rUqT62p0mz4JEo/fOPQJ2/4Fj6GvefDvhXTPC+lJp+j2whiHLseXlb+8x7n+XQYFJJvcd0tjN8IeDNO8IaOtlpyZYkNNOw+eZvU+3oO35k9GEwKm2ADpQVqySErTStTFaYRSGQlajYVYIxUZH/16AKzLUbL6VZZfSo2FAFUrUbLVhlqNlpAVmFQuvWrTLULL/OgCq4qBl5q061Ay9aAKjjioHWrbj0qB14NAFRxVdx1q26/hVdx+lMCq49qrOPWrjjFV3HPTFAyo4qu9W3H6+tVpB19aAKrioHHWrUgqu4oArOKruPWrLj86gf2pAVmqFxU71C9Ayu9RN/nNTNUDUARNUbVI1RtQAw0w04mmE0AIaKTNFADwamSoVq3aW0lzLshXJ7nso96okkjFa1pZNw02VHZe5/wqW0sorXB+/J/eI6fQdqXUNUtNKt/OvZNufuIvLOfQD+vSr23I32LqBUQ/dRFGT2A9zWDqHitPO+x6HCb26bgMASo+g7/yrP26r4qIe4JsNMzlY16yf/FfU8elbthp9rpkPl2UQQH7zHlm+p/yKm7ZVktzJt/Dc17P9r8RXLzynpEr8D2JH8h+db8McNrCIraJIYx/CgwKC1Z2pazbacuJX3SY4jXqf8KNELVmpvpN+ehri21q7vpcsxhhz9xDyfxra06WF1A3FWHRqL3Haxs7qN1Rq25QaM0AS7qUNUWaXNAEwalDVDupwagCcNSTW8N3CYrmMSIexpitUitQBzlzo17oVydQ0eVii9e5A9GHcV1mgeIIdXiBT9xexYLxg4I/2lP+cU2N8HisfUtEaKb+0dGzFcRneY07+uB/So1jqthu0vU978Na3/a9hiYgXMQAkH970b8f51tV434M8TGUx30I2yxnZcQg+v8AQ9v/AK1ewQTJcwJNE25HUMp9q0fdERb2Y+iikpFBRRRQISiiigBDRQaKACkpaSgANFFFAHV0lLSUhhRRRmgApKKQ0ABooooAKKKSgApKKKACiiigApDRSUAFFFFABSUtJQAUUUUAFJRRQAUlLSUCFpKKKBhRRRQAUEhVJYhQBkknAAqO5uYbO2kuLqVYYY13O7nAUV4541+IE+vF7DSi9vpwOGPRp/r6D2/Ok2NK5teM/iYB5uneGn5+7Jej9Qn/AMV+XrXlxy7EsSxbkk85pQKkVfWlYYxUqRU7Yp6pUqpTENRKmVKciVMqelADEjqdU9qVU/yanRKAGqmKlVPYU5E/yKmVKYCIn61MiUqR/hUyrQAipzUqoaVUqdUoAaiVOqdKVUqZEoENVPap0SlVKnROaAGonPSpljp6x+oqdI+lADEipuq6hY+HtDuNY1iTyrS3B4GN0r4OI0B6scf1PFWLq5tNL0241LVJhbWFqu+aU/oo9WJwAPU1y2laLf8AxG8R23iLxRp72vhmzQPpelzt/rzk7ZHToQQc89flHIzk3dkBkeG/CusfEPxDb+MfG9t9m0eAb9L0ksSrDOVLKRyp6knluONuBXqcFlbW5LW9tDCW6mNAufyq5KTK+T07CmkcVpZRRO7IiuKaRUpFMIrMojIppFS4phFIZGRTSKlIphFAERFRkVMRTCPWgCAio2XipyKjYdaAK7ComFWWFRMKAKzComWrLCoXWkBVZahdfarTr6+veoHXmgCo61A4q24qu4xQBTdaryc5q3IM/jVdx60wKjj/ADmq7jirTg8mq70DKkg5/wA81Xcc/wCNWnFV36UAVXFV3HtVlx6VA9AFaSq7irL+1V3/ACoArPULg+9TvUD/AJ0hld6gep2qBvagCJqiapGqJqAGGmE05jUZNABmgUwt8wCgsxOAAMkn2rb07R8YlvgCeoi6gfX1+lCVxNpEOnaZJeYkfMUH97HLfT/GuhijjgiEUCBEHYdz/U015VjjZ5XVI0GWZjgKPeucm1C88Q3D2ujboLNeJbpgQWHt6Z9Op74q9Ikasu6l4hEVx9h0mL7ZfMcYXlUPv6kfkO9MsPDw8/7drcn228bnaxyif4/ToPer2maVa6Tb+XaJ8zD55W+8/wDgPb+dW80eo/QcWzyaZJIscZeRlRVGSScAVU1HVLfTYt07Zc/djXq1cdqGqXWqzBXyEz8sSdP/AK5pOQ1E1tU8Tl90Om8DoZiOv0H9axbazmvZSwy2TlnY/wBa0LHQuBJe/hGD/M1sLGqKFRQqjoAMAVNm9x3S2KNvpscQG75m9TV+GHBFOC1YiSqJLUfCAUuabmjNMY/NLmo80ZpAS5pQaiBpwNAEwapFaq4NSKaYiyrVZibBFUlarEbUCIp7Z9MvjrGnqSB/x9QD+Ne7D+f6+teseC9XW4tvs+/fG6+ZA3qD1H+fevObeXawPpWr4ZuDo+qrapxbSsZbT/YP8cf9R7GhaegPXU9cpKSKRZYldejDIpaBhRRRQAhooNFAhDRQaKBhSUtFAhKKWkoA6ukpaSkMKSikNAAaKKKACiikoAKSiigQUUUlAwoNFJQAUUUUAFFFJQAUUUUAFIaWkoAKKKKBBSUtJQMKKKKBBVXU9Ts9H0+S91GZYYEHU9WPoB3NQa7r1j4e01rzUZMDpHGv3pG9AK8P8S+Jb7xPqBuLxtkScQwKfljH9T6mpb6IpIt+LvGl54oufLXdb2EZzHAD1/2m9T/KuaAzTgM09VHehKwxFWpFTgcU5VqRUxVCEVKlVKcq/wAqlVKQCKlTKn1pVSplX0oARU5FTKvNCJUyp/KgBETp9amReB3pUX2qZFpgIqVMqcUKtSov5/SgQqr+NSqlKidKmRKBgif5NTontQiVYRPxpCERKnWP24pUTnpViOOmA1I6shIYLeS7v547SygG6e4lYKqDPqe/P60/bBbWst5qNxHaWVuu+e4lYKqL9T3rktKdvirqcGo3VlJbeDNPctZWkxwdTmB/1ki9Ci44U9TnOeQFq3ZAWtKspfiJqdrrWrWD2/hWyxLpWn3AwbxyOJ5V5yME4B9fQnd38v7zGfXNAUkrzhVGAoHFOIAHNapKKM3qQlcCmEelTH61EwqWykRkU0inmmmpKGEU0080hpAREU0ipCKYRQMiIppFSEUw0ARMKjIqZqjYUAQsKjYfnUzCo2FAEDCoWFWGFRMMUAVnHrULirLioXHakBUcdR6VXcVbkH6VXkHXpQBUkH/1qrSDirkgqtIOtAFJx1x61Xce9W5APT9KrOKYyrIPWqz5q0/GarOOKBFWSq7j8PpVmQdh9cVWk9qBlZ+vNV3qy9VpOM+tAFd6rvVh+tV3pDIJOv41Xep3NV3NAETGoWNSOagkcKNzHFIBrHuajjWW6nEFqu9z1PZR6k9qda2txqsxSH93Ep+eUjhf8T7V01lZQWMPlWy4HUseSx9SaaVxN2IdO0uOxXcT5kzfekI/Qegq3d3ltp1qbi9k2IOAByzn0A7mquq6xb6RCPMHm3DjMcCnk+59B+p7eooWejz39yNQ8QnzJf8AlnbEYWMehHb/AHfz9KvbREWvqyOO3vPE8iz32600xTmOBT80vuT3+v5d66CGKO3gWG3jWOJBhUUcClzSPIsaF5GCqoySTjFGw9x+axNW8QR2u6GzIkm6Fv4U/wATWdq/iJrjdBYkrH0MnQt9PQVS0/Spb3EkmY4f73dvp/jUuXRFJdWQRw3Op3ZILSyNy7seB9TXQWOmw2K5X55T1kI/l6VYghitoRFAgRR+vufWnE0JA3cWjNNGXbCjJ9BVmOBV5f5j6dhQIbHGW56D1NWAAowKCaTNMB2aM0zNGaAH5pc0zNGaBD804Go80oNAEoNSKagU1IppgWFNTIarKamQ0AXoW5FaEaGeHy0bbIGDxN/dcdP8PoayojWlbNyKBHqnhq+F9o8T4wwGCp/hPcfnWsa4/wAHXG2aWLPEg34/2u/9D+NdhQAUUUlAwooooEJRRRQAlLRRQAUlLSUAdVSE0tJSGJRRRQAUUUlABSUUUAFFFJQAUUUGgApKKKACiiigBKKKKACiikoEFFFFAwoopKACiiigArL8Q+IrLw1ppur1tztkQwKfmlb09h6mo/Eviay8Maf590fMncYhtwfmkP8AQe9eH6zrF5r2pSXuoSb5G4Vf4UHZQOwqW76IaXVjtd1u98Qak95fyZY8JGPuxr6AVnBeacBnrT1FNDGhakVKVVqVV/8Ar0ANValVelKq5x061Kq/nTECLUyL/kUKtTKufrSARVqZVoVc9vwqVV5oAEX2qZFoValVaYCqtSqlCrUqrQIVVqZFoVKmVeRxmkMFSrCR9MCiNKuQW7yq7KAEjXdJI7BUQerMeAPrQBGkdWUjride+LXhbQGaGyaTXbpTgrbHZAD/ANdCPm/4CCPeuF1H47eKblyNKisNKj/hEVuJHx7s+c/kKV0Fme9w2sj/AHY2P0FT3It9KsJtQ1adLOyt03zTS8BF/qewA5J4r5eufij43uZN8nibUEPpDL5Q/JMCsjXfGXiLxDp0Om61rV5fWiTecI7iUvh8bd2Tz0J79zRzFcp7VaRah8bdcF1eQz2PgbTZj9ntNxVr+QcZYj68kfdHyryWavYbG0W1t0hiiSGGJQkUSKAqKBgAAdBjtXz94S+Ot1pFlZaW+jacLG1iWGKG23RHAHXJLZJ6knkkk969l8KfETQvFbLBbSG2vSP+Pabgn12nof5+1XBpIhq50+MU0nFSOMVCxptisMamGnH6000gGGmkU+mmkMaaaRTjSEUgGGmGpDTSKBkRFMYVKRUZFAEZFRkVKRTGFAEJFRke1TMKjYcelAEDComFTtUTD2oAgYVA4qywqBxxSArP9aruMCrTiqzj/IoAqyCq0g4NW5KrSD8OaAKkg/D0qrIOtXHH/wBeqsg/GgCpIOOTVaSrUg/ziqsg4z/WmMqyVWkHt0qzJVaQckflQBWf86qydxVmSq0lAFeTn2+tV5DU7nNVnP8AjSGQuarSGppT1xms+9vEtl5OXPRaQCTzLCuXP0FR6fp82sS+ZIWitVPLDq3sP8ak0vR5NSYXeobhB1VOhf8AwH866hVCqERQqgYCgYAFUlfcTdthsUUcMSxQII41GFVe1Zeq659mmFjpi/ab9ztAUbhGf6n27d/Sq2oaxNfXP9naCDJI2Q86nGB3wew/2vy9ToaTpFvo8BEeJLlxiSbH6L6D+ff0FXvsTa25FpOiLZSG8v2+037ncXY7hGfb1Pv+XrWoTSZqpf6jDYQeZMeT91R1Y0aJBq2T3N1FaQtNcOERf19q47VdZm1OTYuUhB+VAevuaivL251a7UEFiThIl6D/AD61r6bpSWeJJcPP69k+nv71F2y7JFfTtFxiW+XnqIj/AF/wrazwMcDsBTc00tinsLceTTo4zL0OF7miKAv80mQvYdzVngDA4A6AUCFRVjXCD6nuaM03NGaYDs0mabmjNADs0ZpuaTNAD80ZpuaM0CH5pwNR5pwNMCQGpFNQg08GgCdTUyGq6mpkNAFuI1oW7cis2I1ftzyKBHW+Gbjy9Ri56tXoteUaZMYriNx2YGvVIm3xK3qAafQEPpKWkpDCiiigQlFFFABRRSUAFFFFAHVGkpaSkMSigmkoADSUUUAFFFFABSUUUAFJRRQAUUUUCCkoooGFFFFABSUUUAFFFFABSUtJQAVieKPFNn4YsPMmxLdSD9xbg8sfU+g96PFHii18Mad5s2JLqQEQW+eWPqfQCvENS1G61bUJb2/lMs0pySe3oB6AVLd9EUl1DVNTu9a1GS91CUyTSH8FHYAdgKqgetKFzUgXHtRawCKtPVfxpVWpAv4UwEC1IF5pQvHPr2qRVpiBV9qlVenrQq+2KmReOKABVqVV/GhVqZVoARV4qZV/GhV//XUqj1oECrUyrSKvtUyr6UDBVqZV6cUij2qZF/CkAqr+NWI06d6SKMu6qilmY4AAySa1JbhNCjwLe5kvWB/fR2rSpbe4A4Z/pkA9emCAY3iXXtH8D6at54knxNIM2+nRMPOm+v8AcX3P868n13V/HPxMXy7TTJ7fR92YbWMeVbj0JZsb29zn8K9Hi0rQrrUpr+1lW71WRt0tzfjzbjI9nAKfRQBTr2Roeb/zEXoLiORio+oPT+VNQvuxc9tkeV23wf1diDqeo2Vop67N0rD+Q/WtKP4NWTL8/iaUkdQlkB/7UrupZ5raPcG+3W5GSFwJFHqOzfTg1mXN5byok1vMArZ8u4jHT2YfzB57iq5Ii5mcjcfCGxRwieIbgMRxvs1IP/j9c9qPw5uLZ2FjqUF0V/hkQxMfpyR+tegy6ytxFLZXzCOdOQQc49GU9waw7m/F+jrIypewYBZekg7GjliPnZ5peabd6fN5V9bvC/bcOD9D0P4VqaBqc9teRjzGDBgUcNhlI6c/1rqvt0GpWLWt+iuPRh0Pr7fWuYn0hrHUojA/mQs42nuOehrOULbFqV1qfWngrXJfEPg+1vLvBulzFOQMbmX+L8QQfxrXauZ+Gtq1r4MG4YEk7OvuNqj+YNdKetWZ3uNNNNOptIY00lOppoAaaQ04000gGkU008000DIzTCKkNMagCMimMKkPWmHpQBEajapWqNqAIWFRMOtTN3qNqAK7j1qF6sOPpUDdaQFZx6VXfrxVp6ruOO2O1AFWQVWkH8qtSDrVaQUAVJB1qtJVuT8qqSf079qBlWUVUk/Wrco4qpJj0pgVJOarSVak96qS9PWgCtJ71VkP/wBarEh/CqshoArye9VpDxippW9OlYWraqLcGGA5l7n+7/8AXpDDUtSS1XZGd0p7elO0bQ2uGF7qQJBOUjb+L3Pt7U7QtCLML3UFJbOUjb+Z/wAK6KeaK2gae4cRxoMsxpqPVicuiFZlRGeRlRFGWZjgAeprm7vULrX7lrHSQY7Yf62ZuNw9T6L7dT+gjknu/FN2YbcG3sIzlif5n1PoP/110NrbQWFqLe1TbGOT6sfUnuae4vhGafp9vpdr5NsMlv8AWSEfM5/w9v8A9dTk00tWPq2traZhtiHn7nsn/wBei6SFZtljVNXi09No/eTEfKgPT3PoK5cm61W9ySZJG/AKP6Ci2tZ9QuGIJYk5kkbtXRW1tFZw+XCOv3mPVjUayL0iR2NhFYRnZ80jD5nPf2HoKsk00mkGXYKoyT2qhClu36CrMVvtw0vLdl7CliiEXJ5f19PpT80CHE0mabmkzTAcTSZppNJmgB2aM03NJmgB+aM0zNGaAH5pQaZmlBoEPzTgajBpwNMCQGng1EDTwaAJlNTIarqamQ0AXIjV6A9KzozV+A9KANm0PIr1TTn8zTbdvWMfyryi0PSvU9HOdHtv9wVXQnqXqSiipGFJRRQAUUUUAFJRRQAUUUUAdTSE0GkNIYUlFFABRRRQAUlFFABRRSUAFFFFAgpKWkoGFFFFAgoopKBhRRRQAUUUUAFY3ibxLaeGdNNxc4knfIggB5kb+gHc1L4g1+08OaW15eHLHiKEH5pW9B7ep7V4drOr3eu6nJfXz7pH4VeyL2UD0FS3fRDS7keqand6zqMl7fyGSaQ/go7AegFVQtAFSKtOwxAtSBfrSqP/AK9SBeOBQIAtPVaVV6VIFpgCrUirSqtSquKAERalVfyoVRUqrQAKvA9KmVfakUcVKq4H+NACqtSqv5UirUyrQIFX8alA9qRRUyrSGCr+FW7a3e4nWGIDcx7nAA7knsAOc0yGIMjSSyJBBGcPNKcKvt7n2HNW8PcRhfDfiGGEAfMqxRymU+rZ5/AcD3OSUxkN3rFnpgMEAvoB0lvzaMN3smVO1fcjJ9hVVNSu5o9+l6wl2g6JKiHHtlQMflRd6p4i01v9Ns7e/iHWS2+Rv++TWJNc6Hr0xMbNZX46Mo8uRT/Wkm+omrljUtaSUiPxJpYwv3Zozu2+4PUVUN/PaIW0+b+0rVlz5Ep/ebe+0/xfQ81Qu9TvNNH2bXiLm1Y4S+RMFfZwP51hair2ys9hciNH+dGHKq3Zvp2OOx79Kq9iUtdSe81JrBWv9ILS2Ocz23O63PqB1A/lXO6rrgLveabKqCXmaA8Kx9fY+9QQ67f6lG9zbqlt5bFJruQ/KDj7oxy7ewz1ycDmqRks4GP2eBJmz/rrqNXY/RDlV9RgEj+8aFdjdluJPfajrFtBJa2silCQl0cKhHddzYX9ar/Z755C8t7awSAbTuLsT+KKR39amlvJbhy80jSOerO2TTA2arlRLk+hCbe8R9y3ds5B6KJBn81rd8M6Xqeva9Y6fHBmaWUBckEDHJJx2ABJ9s1nwQtLIFUFmJwAB1r6J+Gvgb/hFbFNR1RANUu4wgj6+Qp+Yr/vHAz6YxVqNtSFOTdjsba0h0uwgsLXPlQIFBPUnuT9TzSk1K/LZNRGky0NpKU0hqChKbTqSgBppDTjSUgGGmmnmm0AMNMNPNNNAyM0w080w0ARtUbVK1RtQBC1RtUrfSomFAEDioX681Yf3qB6QFd+9V3qw9V5OM0AVpP8mq0lWpKrSe3WgCrIOKqSd+9WpPeqsnX0oGVJKqS1bl98iqcvT1pgVZaqSH0NWpffjjtVKU//AF6AK0hqnM3P+easzN+FcvrmthN1tZtl+juP4fYe9IY3WdYWHNvatmXozD+H/wCvT9D0LYVu79cydUjb+H3PvSaFofllby9X951jQ/w+59/5Vu3d3Bp9q1xdPtRegHVj6AdzTS6sTfRD7m6gsrZri6cJGv5k+gHc1ywF34qvd8mbewibgDt/i38v5pHHdeKb7z7rMNlEcKqnp7D1b1P/ANYV0sUccEKxQIEjQYVR0FG4bCwQxWtusFsgjiXoo/mfU0rGgtXO6zrX3raybno8g/kKbdhJXH6vrXllrezb5+juP4fYe9ZFjYSX0hOdsYPzuf5D1NLp2nNePufKwqeW7n2FdCqpFGscahUUYCjtUWvqyttEJFFHbwiKFdqD9fc0pakJoRGlbC9up9KokVVaRtq//qq3HGsS4XknqT3pERY12p+J9aUmgBc0maaTRmmAuaTNJmkzQAuaM03NJmgB2aM03NJmgB+aM03NGaAH5oBpmaXNAiQGlBpgNKDTAlBp6moQaeDQBOpqZDVdTUqGgC3GavwHpWdGavQHkUAbVmeleqaT8uk2w/6Zj+VeVWXJGK9VtP3dpEn91AP0quhPUuZozUYejdUlEmaM0zdRuoEPzRTM0uaAHUU3NGaAHUlFFAHUmkNLSGkMSiiigApKWkoEFFFJQMKKKKBBRRSUDCiiigQUUUUAFJS0lAwooooAKoa1rNpoOlyX1++EXhEH3pG7KKm1HUbXSdPlvb+QRwRDJPdj2A9Sa8P8T+I7nxLqhuJ8pCnywQ54Rf8AE9zUt9ENLqQa/rt34h1R7y9b2jiB+WNfQVmgc80oH+RT1XimlYYKtPVaFXGKlVcdqYgValVPahV/KpQvSgBoXvUqrSqvFSKue/6UAIq9qlVfWhVqVVFACKv86lVeOKFWpQtIBFXFTKKRR3/lUqr0piFVakUe1CrjtUqj8qQxVX8Ku2Vi95KVUMI05kdVLbR7DuT2H9ASIIow28vLHBFGu+WaQ4SJehY/4dSSAKs3Vh/aMMT6Fr89qsIPlm3ZHRierOMHcxx68dBxSGJJrLWTFNU8NX0cKbliZYxOsSH6Z5I5Y9SfYAVjXA8I65N/ok0UNznHyAxSA/7pAzU8mp+KdIYpd+VqkA/5aIoR/wAhWVe3WkeIsi5twl0vZxhx/jU69Q0ZLcjWdEXdZXR1K3HWGc4YfRqxLvUdF8R/u7yNra6HQP8AK6n2boabNd3uhISHkurJeqE5ZB6j/CsDxDcWN5pjalayJInVtpwfy7H2ph1LGo6zceG08jUm/tKwlBVXJG4exHeuWtmaeCa7u5p7fQ3c/Z7UHbLdckFVODtQEEFvwGTna1YDPYwan4hZzbN81lYFiGuR03uRyseR2wW5xgfNVC+1CW/uWmmIyQAFVQqooGAqgcAAcADgDgVVurF5ImvtQa9kXCJBDEuyG3iGI4V/uqP1J5JOSSSSaq76i3Um6quKxPvp6N8wqmZQDXqHwc8B/wDCR6sNZ1WDdplm2URxxPJ2GO6jqfXgc81UdWSzrPhD8PpIpoPEeuw7APmsoHHLHtIR2A6j357DPss2X247GoVgJmWUt90YC+lSO3FVJroStFYjc/LxUJpzH8qYagpDT/nFH6UGkqSgpKWkoAQ0hpaQ0gGmmmnGmmgBpphp5ppoGRmmNUhqNqAI2/Ko2FSmo2oAiaomqVqiagCFqgep3qF/yoAruOPSqz9/XFWXqu/5ikBWfn3+tVZKtS9+KqydOOfxoAqyntVSU9f6ValqpL0PYUDKsh69qpyn8atSn/8AVVOU9MUAVJOme1UpmxVqZvwrjfE/iAJusbF/n6SyKfu+w96ARD4g14DdaWLfN0eRT09h7+9R6Jonl7bq8X951SM/w+596TRNGEe26u1/edY0P8Pufetq6u4bC1a4uWwi9AOrH0HvQl1YN9EPu7yDT7Vri6bag4AHVj6D3rmIorrxRfm4uiYrSI4AXoo/ur6n1P8A9YU2KO68T35nuT5VrEcAL0Uf3V9Se5/+sK6aKOOCJYoUCRoMKo6CnuGw+KOOCFYoECRoMKo7UpYAZPA700tgZJwBXN6zrH2gm3tW/djhnH8Xt9KG7AlcfrGteZut7NsL0dx39hVHT9NN0fNmysIP4v7D/Gl07TvPxLcAiIdF6b//AK1becAAAADgADAFSlfVjbtohQFRQqKFVRgAdBSFsU0tToozK3HCjqaokI4zK2BwB1PpVxVVF2oMCkACKAowB2ozQMUmm5pM0hNACk0maQmkzQIUmkzSZpM0wFzRmm5ozQA7NJmkzSZoAdmlzTM0uaAHZpc0zNLmgQ8GnA1HmnA0ASA08GogaeDTAmU1MhqspqVTQBcjNX4DyKzY2q7A3NAHS6OnnXsEf95wDXpSycV574WXfqAkPSNSf6V2qz+9V0J6miJacJKoCb3p4lpDL2+lD1TEtOElIC2Gp26qokpwkoGWd1KDUAenBqBE2aM1GGpQ1AHXUhpaQ0hhSUGkoAKKKKBBSUUUDCiikoAKKKKACiiigQUUUUDEooooAKZPPFa28k9xIscMalndjwoFSV5H4/8AGH9r3DaXpsn+gwt87g/65h/QdvzqW+iGlczPGPiubxLqOIy0djCSIIj3/wBo+5/Suc60D36U8LQlYYAfzqRVpFH/ANapFX6/UUxCqOvrUir60IuamVeaYCKvSpVXFCp61Kq8UACrUir70qrUirSARV/GpVX8KAvrUoXimIRV9KlVaFWpVWgBFWpFXvSqv51Iq57UhgiVPDC0siomNzepwAMZJJ7AAZJ7AU1QAPpUt7/amm20T6daW9xO7b54riQx/Jj5YwQDyThjn0UetIZVm8W6FbCTTdRtLq3tw+ftF5Zt5VyRwG6HA67Q2ODnqeK0ugeG9W/0rSlghk6i4sHC4+oXj8xUdz4ygCmPxFpdzprH7xkXzoT/AMDUfzArLuNF0W/AvdIZIJM5We0fHP4UCLlyda0UbkuDqlsOqucSL9D3rHubzR9fBBJjuF7H5JE/Gmy6tqOkDGolrm2H/Lwgyy/7w/rWBrkdrqKC+06VN5+YOp4Y/wBDTESX+r3egtsu3+22rcB24Zfr61zFvDZvdSa/dwA6dvP2WxfIF7IOpYf88lPU/wAR+UfxFXwvNrdtJNqpeHTLKQLO6n5p5O0KH1PUt0Uc8naDm6rqT6jdmQokUaqEjijGEiQDCqo9AP8A6/NHmPyE1LUrjU76W6u5N8shyxwB9AAOAAOABwAMCqeabmgnFFxji2BUEs4Xio57gLwOtbPgDwddePfFkWmxF47RB5t3Ov8AyzjHp/tE4A+uegNC1dkHmbXwv8Cy+O/EmLkSJpVp891IvG70jB9T+gB9q+qtN0uHTVKWqrFAESOKBFwsSqMAAVn+GfC2m+F7RrbR7dbe3YKBGo/ujGSepJ7k1u9BW3wqyMt3cUnAqJnzSsx9ahY1AwJpp70GkpDCkpaSkMKSlpKQCUhpaQ0ANpppxppoAaaaacaaaBjDTGp5phoAjao2FSGozQBE30qJvWpTUbYoAhaoHHHFTtUD/r7UgK8nTmq8lWJO+Kryf5FAFaSqsn646GrUn0x/Sqkh9f5UAVZTxVOU8ntVqU8Zzn2qnL+VAypKc1RnfHXj3q1O3/665DxX4jXTYTa2r5u3HJH/ACzHr9fSgCl4q8Ri2VrKxf8AfkYkkB/1Y9B7/wAqxtF0jlbu7X5usaHt7mo9H0vzWF5eAkZyit/F/tGugkljghaWZgkajLMe1CXVg30Qs1xFaW7T3LbI0HJ9fYeprmVF14n1EvJ+5tYvTkRj0Hqx/wA8Ckle58S6kI48xW0fPPRB/ePqx9P/AK5rpIIIbS3WC2XbGvT1J7k+pNG4bDooo7eFYbdAkaDCqP8APWlLADngCkZgOvArndW1fz90Fq37vozj+L2HtTbsCVw1fV/tBa3tWxF0Zh/F7fSoNO07zsTXAxGPur/f/wDrVUs0R76JJwdjHp0z6V0O72A9Mdqla6sb00Q4n2AHYDtTS1NLYp0UZlb0UdT/AEqhDoojK3oo6mrgwqgKMAdBSDCqAowB0FJmgB2aaTSZpM0AKTSZpCaTNAC5ppNBNNJoELmjNNzRmgBc0ZpuaTNADs0ZpuaM0wHZpc0zNLmgB+aM03NKDQIeDSg0wGlzQMkBpwNRg0uaBEwNSq1Vg1OD4oGXUfFW4ZMGsoS471NHcfMAD1oEeg+HJBBZNIesh/Qf5Nb8d5nvXD2WpKsaopwFGBWtBf571ZB1aXXvU6XGe9c5Fe+9XIrr3pDN1ZqkEtZEdz71Ok/vQBpiSpBJ71nrNmpVl96Qy8JKeJKpLJUiyUAXA9PD1UElPD+9AHd00mlNIaQxKKKKBBRRSUDCikooAKKKKACkpaKACiiigApKWkoAKWiuc8aeKE8N6ViBgb+4BEKddg7ufp29TSbsPcwfiJ4v+zRvommSfvnGLqVT9wf3B7+v5V5finuzSyM8jF3c5ZmOSSaAufeklYYKvpT1Xj/GgLx1qRV/z6UxAF+tSBRSqv06VIq0wBVqVVoVelSqvrxQAKuMVKq+1Cr6VIq/5FAhVX/9VSKv86FWpVWgAVcYqRF5/rSquPpUgWgBFXNSqtKF+tPC4oGIFqVVoValjRWz5kixRopeSQ9I0HVj/nrikBZtIdq/aWVW2tiJW6Mw/iPqF447nA9awJLTxFpm42Oqf2tDknyNQVQ/JycSqAfzBqTW9P0/xM0M1rqVxbG2XbbvaXHEa+47n1Peshj4n0Mfu7iPWrcdpPklH496h3uVpYlk8VW+77NrlpLpc7cbJxujb6OOD+OKwNQ0u1883WkSmzlbnfA3yt9R0NXp/FWl6xG1lqUJt5yMNBcp1+h6GuYvdLl09i+h3LQr18lzuQ/n0qkhE1x4jvdPQprUG6Lp9piGVP1HauWe3a81yFfDt2kKXjM0oJ+SNVG5pCOwABPrxxk8VduvEYWN4NXgMEu09tyv9KyI1XR9HaMLsvNQAeQZ5ihzlE+p4Y/RO4NMRPrmpQztHZacGj060ylujfeOTku3q7Hkn6AcACscmkJpuaRSQ7NQzTBR70SSbRS6ZpV9r+sW+m6XA1xd3LhI0X19SewHUk8AAmkGxY8MeGdR8Z+JLfSNLX97McySt92JB9529h+pwOpFfWngrwPpPgiwltNGhYCUr5k0jbnlKjGWP1J4HAyazvh18O7HwBprQx/6TqVwitd3hHB/6Zp6KDz6nqewHag4xXRFci8zGTuyYcCkL+/40zeeaYW7dahjQpPFMJoJ/Ck60hhRRRSGFJS0GgBKSlpKQCGkNLSUANNNNONNNAxp9qYaeaYetADT1php5ph6UARmo2qQ1G1AETVG3SpWqFqAIm9qgc1O/vUD96QFd+lVpO/erEhqtJ+VAFaTp6/jVWU//rqzKevPaqkp7HigCrKfeqEzdevHerU7fX3rmfFHiCHQdP8AMbD3EgIhiz1PqfYUDM/xX4jTRrby4SHvJB8i9dg/vH+lcJplg9/M17fEupbd83WRvU+1JZ20+s3sl9qDs6s2WJ6ufT2FdANqr2VVH0AH9BQlfVjbtoKzrGjSSsERRlmPQCububq48Q3621qpSBTkBugH99v8+3Wk1G9l1m8SysATFu47bz/ePoB/9et6wsotNtfJh+ZjzJJj75/w9KNw2JbS0hsLYQW4+Ucsx6ufU1IWppasDV9WLlra1bjo7j+Qpt2JSuJrGreczW1s3yDh3H8XsPaoNN037QfOnGIR0H98/wCFN03TvtB82YYhU9P759PpW5uAACgADgAdqlK+rLemiMzWo9pguUAUqQhxx9P5Vc3ZUEdxmotTHmafKPTB/Wn2cZmt4h0AQZP4U+pPQkijMzeijqaugBVCqMAdBTQAihVGAKXNMBSaTNNzSZoAcTSZpuaQmgB2abmkzSZoAXNJmkzSZoAXNJmkzSZoAdmkzSZpM0AOzRmm5pM0APzRmm5ozQA/NLmmZozQIkBpc1Hupd1MCTdRuqLdTS9AE+/FIZcVWMtRtLQBaafFLFOQ2c1SVi7YFTjigDYt7wjHNbFrqJAGTXKRuVNXYZyKq4mjs7e/zjmtKC8z3rjLe6IxzWnb3nvQI66K796tx3NczBd5xzV+K5z3oA6KO496sJNWFFce9XI580Aa6S1MslZiTVYSWkBfWSpBJVJZKlV6APS6SlptIYUUUUCEpKWkoGFFFFABRRRQAUUUUAFFFFACUtFAGaAKup6nbaPpk19eNtihXJA6seyj3JrwjWdWuNc1aa/uzl5TwvZF7KPYV0Pj/wAT/wBt6n9is3zY2jEAjpK/dvp2H/165ID0qVrqVtoIBTwvFAGP61IB6UxAB6VIo7+9AWpFFMBVWpVXn3pFH/66lVfWkAoX2qRVoA/+vUijPpTAUL6ipVXihVqRV/yKBCqKlVfyoVakVaAFUd/SpVXHtQq+tSKv5UDALzTwtKF9qkC0gEAwKqa5rmmaGRpWrhkNwA0zNGWjB7RtgcY6n3PsK1ElTT7Q6g6CWfcyWNtnBnlVSx/4CoGSfauPufFVpfjydbsZbVj94XC5Vj3O7pyefxqRkM3hrSLv/StFnS1c8hrcgqT9O34YqlPea5oa/v0GoW46tG3zgfQ9aiutHsw32jR52tyeRsbKms241TULBT9qBmjHV1PI/CmhMS+1LRvEMZSYKZR/BIu1lrm7mK70nJsLhmiH/LNzkVdvJ9M1ddx2+YO44YVgalcz6XGNk3nRNkAP1FMBEu/7WvVu76FTbWA3Oh6SSH7qH2JGT7A+1Uru6kvLqS4nbdJIxZmPcmnTZtLOKx6GPLzc9ZG6/kAF/wCA+9VCaRSQpNNZsDNITUUjZ4pDEWOS5nSKFGkkkYKqKMkk9gK+nPhR8Mo/BOnpqmsRh9du48bc5Fsh5Kj/AGvU/gOMk818E/hk1tJD4t8RQ7MLusYJB0z0kI+n3frn0r2t5PNkLdB0Fbxjy6swcubYXOTk96cCcUwE/wCNLmpbuNIXJpCaTtRSGLRSUtIYUUdKKACk+lFFIBDRR+tJQAGkoNJQAhpppTSGgY00w04000ANPtTGpxphoAY1RtUjGomoAjaomqVjUT0AQv8AnUD1M1QOfzpAQP65qrJViQ1VlP8A+ugCtK2PpmqUp/EValb9O1Y+sapbaNp019evsijHQdWPZQO5NAzN8Ra5baBprXV0ctkiKIHmRvQf1PavI2a78TatJe37krn5iOijsi1LqWoXvjDXGuLg+XEvCoDlYU9B6k/rWvBCkESxQrtRegpLUew6KNUVUjUKqjAA7Cuf1fU2vZvsGn5dSdrFf+Wh9B7fzqbXdW2BrG0b5zxK47f7I9/X8qsaNpY0+LzZ1/0lx0P/ACzHp9fX8vWm9dEC01J9L05NMtyOGncfvHH/AKCPb+f5VbLUhNZuq6j9lTy4jmZh/wB8j1p7C3ZDq+p7M21u3znh2H8Pt9az9PsPtLb5MiFTyf7x9BTLKya7lLMSIwcu3c+31rcG1ECIoVVGAB2qUr6srbQdkKoVQFUDAA7U0tTSaEQyvgcep9KZINCbqN484UjBb0q5GiRQrHGMKowBQFCKFUYAozTACaTNITSZoAUmkzSZpM0AKTSZpCaTNAC5pM0maQmgBc0mabmkzQA7NJmm5ozQAuaM03NGaBi5ozTc0ZoAdmjNNzSZoAfml3VHmk3UCJd1IXqEvTS9AExkqNpKiZ6jL0gJGkpu7JqPOatW0PR2/AUASxR7V56nrUmKWlqxCVIj4qOlBxQBeilq9DP71jo2KtRSUCN+C4960oLjpzXOwy9K0IJqBHRwz+9XopulYEE1aMMtMDajlq3HJWRFLVyOSgDTSSp1es+OSrCPSA9apKWkpDCkpaSgAoopKACiiigAooooAKKKKACiiigArj/iH4k/sjSRp9o+Ly8UgkHmOLufqeg/Gupvr2DTbCe8u22wwIXc/TsPc9K8F1fVJ9a1a41C6/1k7ZC5+4vZR9BUvV2KXcpAf/rp4WkA/SpAOOKoQoH4GnqPT8eKFFSKM9qAAD8DUqjmmqv8+mamVfX9aAFVce1SqKRRjFSov4CgBVHNSqvtSKtSqtAhVH+JqVVpFXvUqr0oAUD2qVRSKtSouKAFVakAoVfWpVXPvQMFXFSoiHeZ5VghiQyzzN0ijXlmP+euKQKeMAk9AAOprzT4yeMBY2reEtMlBlJV9UlQ/wAXVYQfRep96ljRYsPE154w8Zahq9giR6ZpsH2LTLeYkD5iC7Z/vEDk/wC2Kfd6tCZPI1SFrGZuNs3KN9HHyn+dZHg/Tp7LwLptzp8myecyzTRSfdkLNgfT5VWrkus2t2GtNSi8qU8NDOvX6HoaOgupWntBCxfT5DATyQn3T+HSs2/1aW1j/wCJhCTGeDKgyB9R2pZ7I2pJ0q4aBevlH5k/I9Pwqhca55QMOrW/l7uN6jKtQijMvLe1uf39nIATzlax/Nea/Xzm3pa/vD7kfdH54/DNTajDFAGuNOm2oeSoOQaowufsxLfelbcfw4H9fzpMB7uXYsxySeaYTSE1G74pDFd8V3/we8C/8Jd4pW81GAtpNgfMm3D5ZX/hj9/U+wx3rm/AnhK48ceLINMi3pbJ+9u5l/5Zxjr+J4A9znsa+rNN02z0bToNL0iBLazt1C7U43H39fc962px+0zOb6GrNKJHVY+I4+FHbPrQpwOtRINo/CpRx/8ArpydyUh+fejPpTc0tQUL/nFLSUtABS0lLQAUUUnekAdaKKSgANJS0lACGkpaSgBpppp1NNAxppppxppoAYfzqM1IajNADGqNqexqNjQBGxqJ/wClSNULHrSGROeOtV3NTOe36VXkP4j3oEQSHtVOQ5/DqKsyH3qlczJDE8krqiICzMxwAB1JPYYoApahfQafZy3d5KIoYV3O5PAH+Pb3zXiPibxFd+MNYWOJTFaxE+TET90d3b3P6dKueOPF0vifUFstP3Cxif8Adr0Mrf32/oOw9zVawsUsoNo+aRuXb19vpS3K2JbO0jtIRFF9ST1Y+tVNZ1T7FH5Fu3+kOOSP+WY9fr6fnU2p6ium2424a4kH7tT2/wBo+386x9JsDfXDXN5l4lbLbusren09fyp+SBLqyzoel7At7cr83WFT2/2j/T8/StrNIz7jk1BcXKW0LSyHgdh3PpT2QtyLUL5bKHP3pG4Rf89qwIIJb65JZicnc7nt/n0odptRvcnl3PA7KP8ACtmGFLaERx9B1Pdj61O49h6IkMYjiG1F6D+tNJoLUzlmAHJPQVQhygyMFXr/ACq4iCNNq/iT3psUYiXA5J6mnZoAXNITSE0hNAATSE0maQmgBSaQmkzTSaAFJpM0maTNAxSaQmkzSZoAXNJmkJpM0ALmkzSZpM0AOzSZpuaM0AOzRmmZpM0gH5pN1M3UhagB5amFqYWpjPQA8vTC9Rl6aWoAeWpM5poyau29rjDSD6CjcNhLe33YZ+nYetXQKAKWrRIUUtFACGkpaSgBymp42quKlQ0gL8T1egesyI9KvQmmBrQPWjBJ0rIgPStCE0CNaGTpV2J6zIWq7E1AGjG9WUeqEbVZRqYj2ikpaSpGFJRRQAlFFFABRRRQAUUUlAC0UlLQAUUUyaeO2t5J5ztiiQu59ABk0hnnvxT1vC2+iQNycTXGD/3yp/n+VebgZx9at6lfyatqtzfznL3EhfHoOw/AVXA9j+FKOw3uKvHtUgFIP6cVIoqhCgdMdc1Io9cUij1qULxgUAKq8VIoxQq1Io/WgQqiplX8qaq4qVF79KAHKvpUyrTVFSqv+TQAoFSqtIoqVV6UAOVcfnUqr+FNVamVaQxQtSqtIq/jVm3t3uJkhj+87BRntQBh+LvEsfgvwpLq5Km+lJg06Ju8mOZMeiDn64r5jup5ry5ZncyTTOSWY5LMT1J+tdr8WPE3/CQeNLlLZydP08m0tFzkbVPzN/wJsnP0rlvC0az+MNJSVVeP7XGzqwyCobJB/AVm3dmi0R69c6bN4eVE0py9tHEkZiYZV9qhd2OxIGSR1rLur3T9Uh8u8UIeg38jPse1WL86hoFwy2xa607JKRSNloh6BuuPY1k3U2masC0ZNvcHqCME/Xsapkopz21zYn/QZ/MjHSNzkfgazLvVYJ0NvqMJic8YYcH8akuEvLDIQCeMdvSsy5v7a9Qxvujf+64zTAyb2EQPtt3JSQ8LmnuApCjoowKhEWy9jTdlQ24e2Oakc9akYjtgVZ0PRL/xNrtrpOlR+Zc3L7VzwFHUsT2AAJP0qC3tLi+vIrWziee4mcJHGgyWYnAAHrmvp/4Y/DWHwDpouL5RNrl7H++kXlYEyD5YP1wSe5HoK0hDmZEpWNDwb4KsPAmkrpemoZJpFEl5esPmlfpgegHOB2+pJPRom0D/ADmpimeT1Jz9aUDA/nWkn0M1rqIowMUo/Okx604VmWLS49qQUtADqKSloAKKKKQBRRRQAUhoooASkpaSgYhpDSmkNACGmmnU00ANNMPSnGmNQA00xqcajagBpOahY1I3eonPWgCNj1qFzUjmoXNIZFIePSq8hqVz61WlfA9PegCCV/zrxn4i+Nv7UmbR9JkzaI2JpUP+vYdh/sg/mfwrd+JnjUWkUmh6XL/pDjF1Kp/1Sn+AH+8R19Bx1PHnmk6dtxczj5v4FPYetLcNtSbStO+yxmWUZmcc/wCyPSrF7eRadbebL8zHhE/vn/D3qa4nis7dppzhF7DqT6D3rlZHudY1Hp87cAfwxr/hTemiGtdx1tbz6xqDPM55O6WTHCj0H8gK6MKkcaxxKERRhVHYUy3t47O3EMPQcsx6sfWnMaaVhN3EZ65/Urs3NxtU/u04HufWtLUJzDasVOGPyj8azNOiDz+Y3SPkfXtUvXQa7mhZWwtYTu/1r/ePp7VMTTC1NLUxDiatQxeWMt94/pUdvF0kb/gI/rVjNABmkJpCaQmmApNNJpCaTNACk0hNITTSaAFzSE0hNNJoAUmkzSE0hNAxc0maQmkzSAXNJmkzSE0ALmkzSZpuaAH5pM0wmmlqAHlqQtTC1ML0ASFqaXqMvTC9AyQvUZamlqbnNIB2afGjSNhRk0+G2aQ5PArRihWNcKKaVxNkdvbLHyeW/lVkCgClq0SFLRRTAKSlpKQCUUGigBRUqVGoqaNaQFiIVdhFVYlq9CtMC5BWhDVKFelX4hSAuRVciqpEKtx0xFuM1ZjNVY6spQI9uptLSUhhSUUUAJRRRQAUUUUAFFJS0AFFFFABXKfEbUTY+EJYkOJLyRYRj06t+gx+NdXXmXxWujJqWnWQ6RRPKR7scD/0Gol2KXc4EDpTwPekUc8etSqOKsQKMjipVHpzTVH4kVKo96AHIKlUU1V7/jmpVH0PvQIVR7EVKo9f1pFHYj61Ig7ZoAci9KlVef8ACkUc81Kq0AOUcVKoz/OmqKmUc0AKoqVV70iipVXB6c0AOUd6mVfamKPwqdFoGORas+c2n6LrGoxj95ZadPMnswQkUxFzWjaWK6jp+oaa52rfWsluT6blI/rUjR8a3QPJPUnJrQ8ESW0XjOya+Gbc+Ysgz2MbD+tJq1hNaXM1tcRtHLC7I6MOVYHBB/Gqvh24Sz8TWUs6hoxLtcMMggjBz+dT1Lex6bdTaho7eX5p1Gx/gY/6xF9PesW9XT9RzJbyeVL3UjB/KrM5n0zm0zdae3Kqpy0Xt7isu5+x3w3xOFk9OhptCRSnnvbHqxkQetZd1cW18MsvlSjv61cuJbiDILeYno1Zc2yTLoNp7rSGRRgiYZ7A/wAqsLC8sipEjO7HCqoySaigjMkwVASTwAK+h/g/8LX0iaHxH4ogEVxgGztZRyjHo7DswHQduvBArSEbmU5NOyLfwg+FR8MJH4g8QoBqsyYt7dv+XcEck/7ZHHsCe549TnbcwHSpJ2DyIVP3c96hZvfH1rW9kZkZzTOh9acTTT1/wrMtCUtFLSGLSikpaAAUtIKWkAUUUUAFBpKKACkpfSkoAKSj+VIaBhmkNFIaAENNNKTTTQAhP40w040w0AMNManGo2NADGPNQuakY1C5/OkBG5qBzUjmq7nP0oGRSN1rh/iD41j8Naf9ms3VtUuF/dr18lf75H8h369q1/GXiq28KaK11NtkuZMrbQE/6xv/AIkdSa8DU3WvapNqGpStK8j7pHbq59B6D+QpAGm2TXUzXd2S+WLDccl27k+tbRdY0aSRgqKMsx7UxcKuBhQB+AFc7q2pm8k8mA4gU9f759fpT2QbsbqF9Jql4ojVtgO2KPuff6mtmwslsYNvBlf/AFj/ANB7VBpWn/ZY/OmX98w4B/gH+J/z3rQoS6sbfQQ0xzTjUb0yTI1d+I17ZJosfltR/tMTTdWUnYewOKbaP+42+hqepXQtlqlgj8xsn7o6+9V1y7ALyT0rRjQRxhR+PvTAkzTSaQmkJpiFzTSaQmkJoAXNNJpCaTNAC5pCaaTSZoGKTSE0hNNJpAKTSE03NITQA4mkzTC1ITQA8mm7qbuppagB+6mlqYWppagB5amlqYWphakMkLUwtTC1JmgBxam5zQqluBzVqG0LfeoAgSNnPFXYLTHLfrViOBUqYCqSJbGqgUYFPFFKKoQUtJS0wCiiigApDRRSASlxQKeqZpAKi5qzGlJHHVqKOgB8UdXoUqOKOrsUdAEsKdKuxLUUSVbjWgRNGtWoxUMa1aRaYEyCp0FRIKnQUCPazSGlpDSGJRRSUAFFFFABRRRQAlLRRQAlLRRQAleQfEOTzfGdyrHiOONB7fLn+tev14747XHjW/z38vH/AHwKl/EilsznQKeAPXtQop6g5PH4VQhVHPOKkUflSAdwKkUUAOQVMo6dBTFB61Mg9OaBDlXpUqj/AOtTQPbipVGcd6AHKv4fSpVXuaaoqVB0oAegqVR0zTFFTKMD60AOQVMq0xB9amUUAOUdKnQUxRUyDtQBNGtaFk/kzKw7GqSD/wDXVqLtSGcD8WvhfLrLy+I/D8PmTuubu2QcuQP9Yo7n1HXv61853tq9tcBh8rKfyNfbD6za6Npdzf6lcLb2dpH5k0rdEHYe5J4AHJNeHWmlXHxu+JY1m705bHw3YMFYBdrTKDkIzrgtI2eeflHTtund2Lukjgrae4hjEto37qQbthORUN5Lb3HM8Jik/vJXuV78B7Asx0HVpbKMkkQXEfnKuewbIIH1yawpfgBrsknzarpYj9Q0mfy2f1pslHiszSLld3mL60zT9JvdW1GOz0u1lurmU4SKJSxP5V79p/7PWmQuH1vXbi4X/nlaQiPn/eYt/IV6HoPhzQfCluYfD+mRWzMMPMRukfp1Y8np06UKNwcrHn/wv+DA8N3cet+KvKmv0w0FoCHSE/3mPdh2xwOuTxj1qaQSMv8AsnI+tVzMWPNAat7pbGerJN344phP4Umc0hNRcYGkoopDCloHFLSAKWiigApaSlpAFFFFACUUUUwEpPelNIaQBSUdPakNAwNNNLSUAIaaTSmmk0ANNManGmGgBjVG1PY+tQsaQDGP8qgc1K7VA59KAInPpWPr+uWfh3R5tR1F9sUXAUH5pGPRVHcn/E9qvajf2+m2M15ezLDbwKXkkboo/wA8Ad6+ePGfiu78a64uwNFZwkrbwE/dHdm/2j39OlIZR1nV7/xl4gkvr5tqnhUX7sKdlH+eTzV2GJYo1SMbVHAFRWlqlvEET8T6mqmsal9mU21u375h8zD+Af409g3K2s6luLWls3HSRh/Kl0fTgqi6nXnrGp/9C/wqtpWnC4fzZh+5U9P759K6AnNCXVjemguaTNJmkJpkgTTG5pSaQ0DKlzbiZSpHBqpDp0iPlZFx7itQ0lKwXI4YFiHqx6k1LmkzTSaYCk0hNITTSaQCk0maQmmk0AOJppNJmmk0AOzTSaQmmlqBik0hamk00tSAcTTSaaWppNADt1IWphamlqYx5amlqYWpC1IBxamlqaWppNAxxamk0nJ6VLHAz0gIwCTxU8VsznmrcNoF6irSoF6VSRNyGK1CjmrAUDpS0VRICloopgFLRRQAUtJRQAtJRRQMKKUDNSJHnrSEIqZqxHHTo4qtRxUwGxxVciip0UNW44qQCRRVcijojixVqOOgBY46tRrTUSrCJQIci1ZRaYi1Oi0wHoKnQUxFqZFoEeymm0ppKQxKKWkoAKKKKACiikoAWiiigApKKKACvK/iPbmLxQswHE8Cn6kEj/CvVK4b4m2e+xsrxRzC5Rvo3/1wKmWjTKj1R5yBjrT1HHakAwaeo7471Qh6gfTmpVWmpxipQOKAFUYPNSqP/rimgYqRR0oESKv4GpFHrTAAOlSqKAHqM1MoxzUajFSqKAJFGO1TKOKYo6VIooAkUVMoqNR05qZaBkijPUVMo4z19ajUVKopATJViIFnCIMsxwBVYHHWua8baxKlnH4d0n95q2r4hWNWAKRsccknALdOe2T6Um7K4m7K5z+uSXvxW8WxeHdIlaLQbF/MmmyMSEcNLx1JzhB6Htk49c0rS7fRNPh07TIEtrK3ULHGo5PqzHux7nvVHwh4ag8J6EllEiG4cB7qdTnzJPY4HyjoPx7k1tPJWsFyrXcyV3qxfNI70xpSe9MLE0wn+dSzUcXJptB/KkoAWlFNpaAFzRRRSAWiiloAKWkooAWlpBS/pSAKKKKBhRRRQIKQ0UfzoAKSikoAOlJRmkNAxDSGgmkNACGmn3pSaaTQA01GxpzGo2pANY+lQsaexqFzQBGx44qtPMkMTyyuqRopZmc4Cgckk9gBUzt6da8R+KHj8anI+h6NNm0RsXEyHidh/CP9gHv3PsBlDMj4ieOZfFeoix04sumQP+7XoZ36b2H8h2HuaxLGzFtHzy7feP8ASmafY+Uvmyj943/joqe8vI7C38x/mc8In94/4U13YeSI9Rv10+DCYM7j5F9Pc1h2Nm99cEuTsB3SOev/AOs02NJtSvCWO53OWY9FH+Fb8UKW8KxRDCr+ZPqaW49iRQqIEjUKqjCqO1GabmjNUIXNITTSaQmgB2aTNNJpN1AC5pCaaWppakA4tSFqaWppagBxNJuphakLUDHZpCaYWpN1ADi1IWphamlqQDy1NLUwtTS1ADi1NLU0tTS1AxxamlqaWpCaAHFqbuppNJmgYpNITSU9ImfoOKQDKkSFnq1Daev61cSFUppCuVYbTHWraRBBxTwKWqsSApaKKYgpaKKAClpKWgAooopgGaKKUUgEpyrmnKmasRxUARpHVmOKpI4atRw0ARxw1bihqSOGrUcVADI4qtRxU+OKrCR0ANjjqykdKkeKsIlAhESp0ShEqdVpgCLUyLSItTKtAhVWpkWkValUUDPXDSUtJSASiiigAooooAKKKKACiiigApKWigAxXLeNCu/Sobj/AI9ryWSzk9mdNyH67k/WuqrlviNp8994GvXsv+PuyK3kBHZ4zu/lms5/CXD4jzCa2e1uZLeX/WRNtPv6GgDGK3NSEWu6LZ+INNG4Swh3QckjuPqpyPzrGXBGRyCOtaECqDUqj65NNUe3FSr096BjlHt/9apFFNUCpV9qBDlFSKP0poGOlSgfT6UAOUVMo/Go1FTKO9AD0HpUyj+dMUfWpVH4UAPX1qZRzUag1Mo4oAkUdKlXtUain5VFLO6xooLO7nCooGSSfQCkMqa3rNp4d0K51bUMeTbjCRk4M0h+6g+vf0AJrnvhlod7e6lN448Qljd3oJtFZjkKwwXx2G35VHoTxjaa5uAS/Frx3l0dfCujtjaSVE5z+e58c+ij1xn2FAFACIqKoCqqjAUDoB6ClBcz5nsTLsXjKT3/ABpN5NQK3vTs1bYJEm6jNMzSg0hjs0UlLQAtL9eKSjPNADhRSClpDFopKUUALS0lFAC0UUUALRSUUCCiiigApKM0UDEpKU0lACE0hoNJ0oADTTQaQ0AITTCaU/5xTGNADWNRsacxqJjmkAxj61A78U+R68w+JnxFGjRy6LokudRcbZ5kP/HsD/CD/fP/AI79egMz/il8QxAk3h/RJv3rZS8uEP3B3iU+v949unXOPMdNsSSLicc/wKe3vTNPsfNbz7gZHVVPf3rVkljghaWVtqKMk0Luw8kNuLiKzt2mmOAOgHVj6CuXmln1K93EZdjhVHRR6U69vJdRugcHGcRxjnH/ANetWxsxaRfNgysPmI7e1LcexJa2yWkPlpyTy7f3j/hUxNJmkJqiRSaaTSE00tSGOJpCaYWpC1ADi1IWphakLUAOLU0tTSaaWoGP3U0tTC1IWpAO3UhamFqaWoAeWppamlqaWoAdupC1MLU0tQMeWppamk00mgBxamk0maTNAxSaTNJmlVS3QUgEzTlRn6CrEVoT15q7HbhadhXKkNpnk81djgCCpAoFOqkibiAYpaKWmISloooAKWiigAooooAKKKKAFooxT1TNADQuamSOpI4qsxw0ARRxVajhqWOGrccNMCKOGrUcPtUkcVWUipARxxVZjiqRI6nSOgBiR1YSPFOSOp1SgQ1EqZUpypUqpTARUqZVpVWpFWgQKtSqtCrUqrQABakUUAU9RQM9WpKWkpAJRRRQAUUUUAFFFFABRRS0AFFFFABQUV1KuMqwwQe9LS0hniuiznwn4y1HwdfHbbzStcaczf7RJKfj1HuD61LrGnfYpmuIh/o7HLAf8sz6/T+Vbvxg8Hy67o8WqaYCuo2B3xsnDHvgH14yPeue8H+K4vFOkmO42rqNuuLmI8bu28D0Pf0P4VFN6cr3RU9+ZdSBaenFOvbQ2EheMFrbuFGTF9PVf5fToiEMoZSGUjIIPBFaEEij1H61KB+dMTipAOfSkMeo/wA4qRRTVHFSqKYhy9amUf5NMUelSJQBIvHeplFRrUqjn3pASKKlUUxRx6VKtAx446/nXCfEXWLnULmDwRoHz6jqBX7WwOBHH94IT24G5vQADvXSeKfEUHhTw3catPtaRT5drE/SWU9B9B94+w96xfhd4antbafxNrW6TVNWy4ZySyRMd2T7scH2AHuKm3M7A9DsPDug2vhvQrfSrADyoRln24Mrn7zn3J/IYHatYcdOKjB9P0p4/KtGxIkWlpgpwPpSGPBpRTQadmgBaWkpc0AKDS5ptLSAcKKQUtAC0tJRQIWl+lJRQMWlpKKAFpKM0UAFFH6UlAgozSUGgAzSUUhNAxCaQmjNITQAhNNJoJpp60AITmmMaVjxUbGkA1jULvgc8U93wOa82+I/xJi8PRyaXozrLqzDDuORa/X1f0Hbv6UDG/En4ip4ehfStHkD6rIuHcci1B/9n9B26ntXilnaNcyG4uSWyS3zHJc9yTS2trJdzNc3bM+5izFjkuT1JP8AXvWn8qKSSFVRyegApebH6ClljQsxCqoySe1c1qeotfTbUysKH5R6+5p+p6kbx/LiyIVPH+0fWpNNstuLicc9UU9vf/D/APVRuG2pNp1j9nTzZh+9YcA/wD/GrpNNJppaqFuOJppamlqaWpAOLU0tTC1NLUDHlqaWphamlqQEhamlqYWppagB5akLVGWpC1ADy1NLUwtSFqAHlqaTTSaaTQMcWpCabmkzQAuaQmm5pM0DHZpM03NKAT0pAGaACx4qWO3LdauxWoHUUxXKkVqWPNXorYLjNTKgXpTxVJE3EVAOlOopaYhKKWigAooooAWiiigAoopKAFoopQM0AJTguacseasRw0ARpFViOGpY4atxwe1AiGOGrccFSxwVajhpjIo4aspFUqRVYSKkBGkVWEjp6R1OkdAiNI6nSOnqlSqlMBqx1KqU5UqZUoAaqVKqUqpUqrQIaq1KFpVWpFWgBFWpAKAtPC0DACnqKAKeBQB6hSUppKQCUUUUAFFFFABRRRSAWiiimAUtJS0DFoopaAGyRrLE0bjKsMGvnn4jeE77wf4lPiTQMxJ5m6YIOEJ7kd1boR6n3r6JrJ1/T0vbFi8auApV1ZchlPUEdxWcl1RSfQ8p8P8AiWz8Uaf5kOIruNf39sTyh9R6r79uhplzZyW8hlssdctCxwrfT+6f09fWuS8WeC7zwtqP9seHXkS2RtwKH5rYnsfVe3P0Pvq+HPGcGs7bPUwlrqGcLjiOb/d9D7H8PQUpX3JcbbG1a3cVzuWMlZE+/E4wyfUf16VbC4qjf6clwyv80U8f3JU4Zfx9Paq0WrzWLCLVkynQXMQ4P+8o6fUVQjbWpR9KiilSWNXiZXRhkMpyDUqjj1pASjpUq9aiXg1KKAJV7Z5qVP0qJPUVMvP4UDJU9f0qTcqIzSOsaKpZ3c4VFAyST6AUxa4H4m65c3Bt/BmhAyanqZX7QFP+rjPKoT2zjcfRR70mxozbASfFX4hm8njY+GtGOIonPyyHOQCD1Lkbm/2QB6V7CCSxJ6+9Y3hnQLbwz4fttKs8FYRmSQDBlc/ec/U/kAB2rZHFUlZE7skBqQGoh1qQGgY8fhTx75qMfnT6QDqcPypmacDQA6l+tNpc0AOpaaDS0AO60CkoH60AOpabS5pgLS02lzSAWjNJmigBaM0lFAC/pSZopKAA0GkJpM0AKTTc0E00nFABmkJpDSE0AITTSaCaYTSARjUTNSu4VSWIAAySTjA9a8c+IfxaXbLpHhObqCk+oIcfVYv/AIv8vWgdjR+I/wAT00gS6P4dlV9Q5Wa5Q5W29VU939+i/Xp41aWTTuZ7kltxzyclj6mnWViZCJbgcdlPf61p8KpJwFA5J7ULuwv0QnCr2VQOe2K5/VNT+1MYYCRCDyf7/wD9ajVNU+0kw25IhHU/3/8A61M0+x8399OP3Y+6v97/AOtS30GlbUdp9iGxNOPl/hU/xe59v8/XULZ600mmlqrYW4pNMJpC1MLUgHFqYWppamFqQx5amlqYWppagB5amlqYWpuaAHlqTdTCaQmgY4mkzTc0maAF3UmaTNJmgYuaTNJmkzQAuaQmko60gFzSdelSJCzVbhtfagLlWOAt1q5Fa46irKRBakAqrE3GJEFp9LRVCCloooELRRRQAUUUUAFLSUUALRRRQAUYpwXNSpFmgCJUzU6RVNHD7VZjgoEQxw1ajgqaOCrccGO1MZBHBVqOH2qZIaspFSAhjhqykVSJF7VOkdAEaRVOkdSLHUqpTAYsdTKlOVKlVKBDVSpFSnqlSKtADVSpVWnKtSKtAhoWpFWnBaeFoAQLTwtKFp4WgYgWngUoWnAUgACngUAU8CgD0mkpTSUAJRRRQAUtJS0gEopaSmAUtFFAC0UUtAwpaSigBTTWOQQeR3oJpjHFIRyuuaf9ncsq5hkyORnHsa8e8YfD4SLLd6EnJ+Z7T+ZT/wCJ/L0r328VJoWjkGVYc1xWpWrWsxU8r/C3rSsVc8c0Hx7daVILHxGss8Cnb55B82H2YdWH6/XpXeo1tqNklxaSx3FvKMrIhyD/AJ9Ko+JvC1jr8bM6iG7xxOo6+zDuP1rzVo9f8CaizQExpIeQRuhnA/r+RFK7juFk9j0RrO40+Uy6XN5RJy0RGUb6j+vWr9l4ngaQQ6lGbObpuJzG30Pb8fzrB0PxvpeuhYJz9hvTx5MrfK5/2W/ocH61r3VisqlZEBB9RV+hJ0yMGUFSCDyCO9TLXBRR3+jvu0yciPOTA43Ifw7fhWzY+MbdmEWqQtZydN/3oz+PUfj+dIZ1K+nX3qZTmq0MiTRLJC6yRtyrqcgj2NWIwSQAMsTigCn4i1+38MeHbnV7oK/kjbDEx/10p+6v07n2BrkvhZoFxcNc+Mdd3TajqTMYWcZKoT8z+xboPRR6GsXWpW+JnxHt9FtnY6Hpe4yuh4cZG98+rHCD2GfWvXYY0hiSOGNY0RQqIqgBQBgADsAKUdXcb7FleBUi1CD6VIpqhEw9jTwe/wCVRA4p4NICQU4HvUYNPBoAeKcKYDS5oAeKWmg0oNADqUGm5pQaAHZpaYDS0AOzS5zTaWgBc0ZpKKAHUZpufwpaAFzRmkozQAUZpKTNAC5ptGaQ9aAAmmk+lKTTSaAEJppPSgmmFqQwJqjqurWOi6dJfapcx2ttH953Pf0A6k+w5rn/ABn8RNI8HxtFK4vNSI+Sziblfdz/AAj26+1eB+IPEms+NNS+1alNvVSRFEnEUA9FH9ep70AdD48+KF94pL6fpKyWWlk4KZ/eXH++R0H+yOPXNclZafsIln5fsOwqxa2SW4z95+7Gp5pYraIyzsEUevf2oC/YUlUQs5CqoySe1c7qmqG7YxQZWEf+P1HqOpvfPtXKQg8L6+5p1nY5xLcDj+FD39zSvfQaVtWNsbHzcSzjEfZf73/1q1CfTgdgB0ppamlqewbilqYWpC1MLUCFLU0tTWamFqQxxamFqaWppNADi1NzTSaTNAxSaTNJmkzQMXNJmkzSUALmkzRSZpALmkzSZpKAFzRTljZ6tRWuetAFZImerUVr7VbjgC1KBiqSJuRxwBalApaKoQUUoooEFFFLQAlLSUtABRRRQAUUUUAFFLinqhNADAM1IkZNSpDVmOGgCFIfarMcFWI4ParUcHtQBBHBVqOD2qxHB7VZjh9qAII4KspDUyRVOkVAEKRVOkVSrFUyx0CI0jqZY6esdTKlMCNY6lVKkVKkVKAI1SpVSnhKkCUCGKlSKtOC08LQA1VqQLTgtPC0AIFp4WlC08LQMaFp4WlC08CkAgFOC0oFPAoAQCnAUoFOAoA9CNIaWkoAKKKKAClpKWkAUUUUAFFFFMBaKSloGLSZopCaBATUMhqQmoJDQBVuG4NYWpIssbK/4H0rZnPFY94Mg0xHJ3SGKQg1nXlvBe27293Es0TjDI4yDWvqSdawnm2sQ3WgZwXiD4dMN8+iN5i9fs8h+Yf7p7/Q/nWLpni/XPDUv2S7V7iCPhra5BDIPQMeR+or1YTg96oarpOn61B5d/AHIHyyDh1+hqOXsVzdypo/jDRdeCxxTfZro/8ALvPwSfY9D/P2rQurBJMh1H5V5xrnw9vLPdLppN7COdoGJB+Hf8PyqnpPjLWtDYQSubmCPgwXOcr7A9R/nile24W7HoEdve6RMZdJupLYt95RyrfVTwaZ4p+It9beGZrF7NYb26XyluoXwoX+P5TyCRx171FpXjPR9aCxO32K5P8AyymPBPs3Q/oayPiPYY0q1ukH+ql2tj0YdfzA/Om9tAW+p6F8LNHtNN8IxzQPHLd3mJrplYMV/uIfTCnp6k13A4rxLSraVtD0/UdOleGUwKC8ZwcgbTyPcV0Gn+OtZ0/CajEl9GO5Gx/zAwfxFUtib6nqAqQHtXM6X440TUiEa5+yTn/lnc/L+TdDXRoQVBU5B6Ed6QycH0p4PrUINSA0ASA9DTwaiB9aeD6UASZpwNRg04HIoAeDTs0wGlz/AJNADqdTAaWgB1Lmm5paAHUZpueKXNADqM03NGaAHUZpuaM/hQA7NGc03NBPegBc/nSE0mfxpM0AKTSE0maaTQAuaaWqpqmrWOjWTXeq3cNpAv8Ay0mfbn2A6k+wryjxT8cEXfbeErXcen226Xj6pH/VvypDPUda13TfD9ibzWLyK0h/hLn5nPoqjlj7AV4x4u+M9/qe+z8LRvp9u2VNy3+vkHtjhPwyfcVwl5NqviG/e+1W6luJpOssxycegHYew4qzbWEdv90ZbuTQBnQabLcSGW7ZvmOSCclj7mtWOFUUKigAegqfYFUsxCqByT2rE1HxCkeYtP8AnboZSOB9PWjRBqy5f6hBp0eZPmkI+WMHk/X0Fcvd3k9/PulOT0VB0X2ApqxzXc5PzSSMcsxP861bWyS1G4/PJ/e9PpS1ZWiILSwEeJLgZfsvp9ferjN60M1Rs1PYQpamFqaWphagBxamFqaWphakA4tTCaQmmk0DFJpM0maSgYpNNzQaSlcBaSjNJmgBaTNJmkpALmkpyoW6CrEVqT1pgV1Qt0FWYrXuatx24Wp1UCqSJuQx24XrU4UClopiCloopiCloooAKWkooAWkoooAKKKKAClpKcq5oATFPVCakSLNWY4aAIEhqzHB7VPHBmrcdv7UAV47f2qzHb+1Wo4ParKQUAV44ParUcNTJDVhIaAIUhqwkVSpFU6R0ARLFUyx1IsdSrHQBGsdSqlSCOpVSmIiVKlVKkVKkVKAI1SpFSpAlPC0CGBKeFp4WnBaAGhaeFpwWnhaBjQtPC04LTgtIBAtOApwWnBaAGgU4CnBacBQA0CngUoFOAoAQCnAUoFOAoA7w0lLSUAFFJRQAtFFFIApaSigApaSigBaKSimAtIaWmmkA1qhkqZqhemIpTjisu6XOa15RWfcJ1pgc1fw7ga5TU7dhkjiu5uos5rAv7Tcp4oA4r7aYpNshwe3vVmO7B70zVdOznArnnuZ7F8OC8f6igDq0ufeqOqaNputIRfW6s+MCVeHH4/41n22pJMgZHDD2NXI7sHvQM4rV/AN5a7pNNb7ZF/cxiQfh0P4flWE+palbWM2mTSObdwA0EwJ2EHIIzypyK9aW5z3qpqGm2GrJi+t1kOMB+jD8etQ49i1Luc34M8Y2Fnpa6Xq7mAI5MUxGVwTnBx05J5rtBDb38AmtZI5o26PGwYH8RXB6n4AYZfS7gSD/nlNwfwPQ/pXN+Xq/hy83Rm4sZfUZAb+jD86XM0rMXKm7o9NutKVgQUBH0qGzudV0Rs6RfTW4/55g7kP/ATkVzmm/Em4jxHrVoLgd5YcK35dD+ldPY67outYFldoJT/yyl+R/wAj1/CqunsKzW5v2HxPvrbCazpyTqOstudh/wC+TwfzFdbpXjvw/qmFjv1t5T/yyuRsI/E8H8DXnk2neq/pWbcaRG+cpT1Ee8owZQyEMvYg5FPzXz/aHVNIk3aVfz2xBzhHOD9R0roLP4meIrAhdQt4NQQdWKeW5/FeP0o0Hqewg08GvPtO+LWjT4XUra4sH7nHmKPy5/Sup0/xToWp4+w6tayMeiGTY35Ng0WYrmzmnA0xeRkcj1FOzSGPBoz+dNzS5oAdS5pmaXPpxQA7NLTM0oPHFADs0ZpuR+FGaAH5pM0maTPpQMdmkzUN1cxWUJmvJY7aIdZJ3CL+Zrk9U+KvhHSgwOqC8kX/AJZ2aGQn/gX3f1osK52RNJksflGT6CvF9X+PUjbk0HRUj/uy3km4/wDfC4/ma4fV/Gni7xMpS91GcQN/yxh/cx49wuM/jmgZ73r/AI/8OeHN6ajqUbXC/wDLtb/vJM+mBwPxIrzHX/jnqV2Wh8N2Mdgh4E8+JZT7hfur+teewaI55mfHstadvYRw/cQD3oDQzrttX1+9a81a6muJm6yzuWP0A7D2qzbaZFDg7dzeprUSAngCq19qen6WCLmYGTtEnLf/AFvxo0QtSRIc9qp6hqtlpYKyv5k3aJDk/j6Vz+o+J7u8ylqPssR4+U/Mfqf8KyoLSW5kIiQue57D6mpcuxSj3LOoavdak2JDsizxGvT8fWi002ScB5P3cfqep+grQtdLit8NNiST/wAdFWnei3cL9iOOKO3j2QrtHf1P1pjNQ71Cz0xCs1RM1IzVGWpDHFqYWppamFqBji1NJpM0maAFzSGkzSZpXAXNJmkzRmgYuabmjNJQAuaSlClulTx2xJ5oAgVS3SrEVsT1q3HbAdasKgWmkK5BHbgdanVAKdS1RImKWiimIKWiigApaSigBaKKKACiiigAoopQM0AJShc1IsZNTpBQBCkRNWI4KsRwVajt6AK8cHtVqO39qsxwe1Wo4KAK8cFWo4KnSGrCRUAQpDVhIqmSKp1joAhSKp1iqVY6mSKgCJYqmWKp44STgDJpli1xrV21r4etxdlDiW7clbeE+7fxn/ZXP1FAhViqRY66C48LXUCgwOtzxzgbDnvgEnj8azGt3icpKjIw6qwwaAKyx1IEqYR04JTAjCU8JTwlPC0gGBaeFp4WnBaYDAtPC08LTgtIBgWnBaeFpwWgBoWnAU4LTgKAGhacBTgKcBQA0CnAUoFOAoAbinAUoFOxQAgFOAoApwFAHb0lFFABRRRQAUUUUAFLSUUgFopKKAFopKKAFpKKSgBDUTCpDTGoArSLVOVOtX3FVpVpgZFxF1rJuoM54roZo81nzw5oA5G+stwPFcrqelBs/LXolzbZzxWNeWWQeKYHk97pktvKZLcmNvUd6hh1loW2XY2N/e7Gu81DS92flrlNT0Tdu+WkBNBqAYDDcfWrkd2D3ri5LW609ybdjt/uHpU9troDBJwYn9zwfxov3Cx2q3IPenSNHPEY5lWRG6o4yD+Fc9DqAYDmrcd4D3oArah4N0y8y1rutJD/AHeV/L/CuW1Dwbqdplo4ftKD+KH5j/3z1ru0uganW496TiilJnmtj4i1vSD5cF5JsXgwzDco9sHp+ldJY/EaJgE1awIPeS3bP/jp/wAa3r2ystSXF7bxzHszD5h9D1rn73wRayZaxuXiPZJBuH59f50rNbDumdDaa3o2qEC0vo95/wCWcnyN+Rq5JYZGSteZXnhLVbbJ+zeeo/igO/8ATr+lVbTV9X0h9lreTwbf+WbHIH/ATRzdxcvY9Km0tG6oD+FZ02iqTwCKxLT4h6hFhb+1huR/eX5G/wAK2bbx5o1wALmOe1bvlN6/mP8ACi6YWaHW41XTT/xLtQurfHaOZl/TNa1v488Z2IAGo+eo/hmhR/1xn9aig1XSL7H2a/gcnopfafyNWjZhhkAEeo5qtejFp2L0Hxh8QwYF3plnOB3VWQn8ia0Ifjht4uvDsg9THdf0K1zL2S9x+lQPYp/dH5UahodxH8cNGP8Ar9J1CP12lG/qKsL8bfDJ+/b6kn1gU/8As9ecPp0Z/gH5VC2lQnrGv5UXfYND1H/hdfhTuNQH/bsP/iqjf43+FV+7FqT/AO7br/Vq8wOkQf8APNfyo/seD/nmv5Urgeiy/HfQVz5GlalL/vCNP/ZjVCf49oc/ZPDchPYy3g/kE/rXFjSoR0RfyqQadH2T9KANq6+NviWfIstNsLYHofKeRh+Zx+lYl74/8caqpWXVZ4UPa2RYP1UA/rUq2KDotSC1A7UahocxNp19fSmW8meWQ9Xlcux/E1LFoaj/AFjFvbpXSC29qq3N7p9kD9qvIYz/AHS2T+Q5pDuU4dNhj+5GB74q2lp7VlXPjLToMi0hluW9cbF/Xn9KxbvxhqdxkW/l2qeiLk/maLpBZs7N44oIy87pEg6s5AFYt54p0y1yLfddyDsgwv5n+lcZPNNdSb7mV5XPd2zVi30i7uMERFEP8UnyilzN7D5UtyzfeJdRvsoji2iPGyHj8z1rOgtJbiTEKM574/qa3bfQ7eLBuGMzeg4Wr2UjTbEqovYKMCjlfUL9jKttERMNdtuP9xDx+JrQGyJAkSqijoFFI8lQvJVaIWrHO9QO9NeSoWekMc71Cz0jPUbNSAUtTC1ITTSaBik03NITRmgYuaTNJmkzSAXNGaTNJSAXNJSqpbpU8dsT1pgQKpbpU8dsT1q5HbgdqnWMLTSFcgitgOoqdYwtPxS1QhKWiimIKKKWgAooooEFFFFABRRRQAUtJSgUAFKBmnLGTU8cNAEKxk1OkFWY4M1ajt/agCtHBVqO3qzHb+1Wo4PagCtHb+1W47f2qxHBVhIfagCBIKsJDU6Q1MsVAEKRVOkdSrF7VMsdAESx1MsdSpHUwRVRncqiKNzMxwFHqT2FAEaR1Df6jaaUqC5LvPKcQ20K75ZT6Ko/meKbYSap4pmMPhOLyrRW2y6xcx/ux6+Uh++fc8V19joXhv4eabLrWrXHznibULxvMmlPXaO5PoqigRmaR4LvtdiW58VFrKzblNJt5MFx/wBNpBy3+6MCu8t7SCztkt7SGOCCMYSONQqqPQAVxHh343+FPEF01rqMc+hyFysMtyQ0TrnC7mX7jeoPyj+8a9CaBjEs0RE0LruSWM7lYdiCOopJprQdn1K2KjmgiuE2TxrIvowqfFJtpiMW48PQt81rIYz/AHW5H59azLjTLm1yZYjt/vryK63bR0oA4oJTgldRPptrcEl49jn+JOD/APXrOm0WVOYGEo9D8rf4UAZIWnBamaFo32OpVv7rDBo2UARhacFp4WlC0ANC04LTgtKBQAgFKBTgKXFACAUoFOApcUAJilApcUuKAEApwFAFOAoAAKUClApQKAOypKWkoAKKKKACiiigApaSigBaKSikAtFJRQAtJRRTAaaaRT6aaAIWFROtWCKiYUAU5E61Tli9q03Wq8keaAMaaGs+e2znit+SLNU5YOtAHLXVlnPFYl5pwOeK7Wa3z2rOuLTPagDzrUNIDZ+WuV1HQs5+X9K9ZubAHPFYt5pgOeKLAeSNDd2Dfuido/hPSrNvrQBCzAxt79PzrsL/AEYNn5a5m+0E84X9KmzWxW5ah1EEDn9avR3ue9cdJaXFm37oso9O1SQ6q8ZxMpHuKfN3Cx2qXXvUq3PvXLwamrqCrAj61cjvge9O5NjoVuPemXMdveptu4Y5x28xQcVkpd+9Trde9Aytc+EdLuMmHzbc/wCw2R+RrIuvBNymTaXEUw9HBQ/1FdItz71ILj3pcqHdnAXPh7U7fPm2EpHqg3j9M1UjnurJ/wBzNNbsOysVNemC49DSSPHOu2dEkX0dQR+tLlHzHCw+KtcgAC37uPSRQ38xVyLx1qqf66G2l+qEH9DXQTaNpUxy9lEP9zKfyxVOXwrpcn3DPF/uyA/zBpWl3C8SqnxAk/5a6ZGf92Uj+lTL4/g/j0xx9Jf/AK1RP4Otz/q72Rf96MH+oqB/Bp/hvkP1iP8AjT94PdL48fWXfT5vwcUh8fWPbTpv++xWYfBs/wDDdwH6qwpP+EOuf+fq3/8AHv8ACl7we6aLePrb+DTJD9ZgP6VC/j9v+WemKP8Aemz/AEqoPB838V3CPopNPHhH+9ej8Iv/AK9HvB7oSeO9Qb/VWtsn1BP9apzeLtZl6XCxj/YjWtFfCdsP9ZdSt/uqF/xqdPDmmR/eSSX/AH5P8MUWYXRy1xqV9dZ+03c0gPZnOPyqGG3mnOLeGSQ/7Ck13EdhYQf6q0hGO5XcfzNStKAMDp6UcocxyUHh+/l++iwj1kb+grRg8NQJzczNIfRBtFa7S4qFpqdkK7GxWtraj/R4EQ/3sZP5mleX3qF5qgeWmBM8tV3lqN5ageSkBK8lQtJUbSVEz0DHs9Rs9MZ6jLUhjy1MJppNJmgYpNJmkzRmkAuaTNJmkpALmilVC3QVPHbE9aYECqW6Cp47cnrVuO3A7VYWMCmkK5XjtsVYWMCngUVViQxS0UUwCiilpAFFFFABRRRTAKKKSgQtFJSgZoAKAM09YyanSCgCBYyanSGrMduT2q1Hbe1AFWODParcdt7VaitvarcdvjtQBVjtunFWo7f2q1HBVlIPagCtHb+1WEh9qsJD7VOkVAECQ1MkVTrFUyxUAQrFUqxVMsXtUr+VbQPPcyLFDGNzyN0UUARLFVKTXtHgm8qXUYBJnBCtux+VU3c+KZPJa7XTdN6eSZQs9z7vz8q/7P55rQXwlb2kG2yjjVMY+UdfxoV3sJtIfLq1rE0UNqkuoXc4zBaWa75JB6+ir7mug0v4fz6syXfjNgYlIaLSIH/cp7yt/wAtG9un1rg5tCmsLwXVg8lpcocrLbuUbP4da6jSvifqenBYfEdkb9BwbmABJMe6/db8MUuuo99j1CKCOCJY4UWONAFVEGAo9AO1ZWv+FNC8TxomvaXBe+XwjtlXUegdSGA9s4o0TxbofiL5dKv0ebGTbyfJKv8AwE8n6jIrYKnvT3FseOa/8CoVZ7jwjetG+Sfsd62VPssgGR7Bgfciur+HXgbUvCFqs91rV5HcSEtJY20+bVM/7JHLerDHpzjJ7fbRU8kb3K55WsK7l3LOcsTknGM0KC3CjJ9qbmvJ/irJ8QL3zrTRNNePREALy2E4kmuP94DDgD+6Bj1JHRt2EtT1ogg4IwaQivCfBvx41PRkWy8XW7a1aLx57EC5jH1P3/xwfevbdD8Q6L4t0KPVtCNwkEhIAnhaPJHXGRg46ZUke9JSTG4tE+KaTjpVXVtY0/RLF7zVLuO3gQcsx6+wHc+1cLca3rXjIEWIn0PRGH+uPFzdD/ZH8C+/0xnPFdSTe1vxZZQ3TaVZQHVdRI5t4j8sX+1I/RP59OOabbea0I+07PM6kR52j2BPJ+vGfQVR07TbHSLQW2m26wx5yxHLOfVj1J9zWhAck/Sq6C6j9tKBT8UuKkYzFOxS4pcUAIBS4p2KXFACYpcUuKXFACYpcUoFLigBAKUClxSgUAAFKBSgUoFAHW0lFFABRRmkoAWikpaACiiigApaSigBaSiigAoopKACkNLSUANNMIqQ00igCFhUTLVgio2FAFR0qvJFV9lqFkoAzJIc9qpS2/tWy8earyQ0Ac/Pa+1ZtxZ57V08sHWqUtt7UAchc6eDnisa70sHPy13U1rnPFZ09lnPFMDze90cHPy/pXO32h9cLivVbnTgc8Vj3Wlg5+WlYdzyefTpYGyoIx3FRrdzwnD/ADCvQLzSAc/LWDeaJ1+WpsVcyYdVU8E7T71djv8APes250h0JwKpNFLAeCy0rtBZHTpeg96mW7965RLyVPvDNWI9RHc4+tPmCx04uvenC696wEvs96lW996dxWNwXPvTvtPvWILv3p4uvei4GyLn3pftHvWOLr3pwuvegDW+0UhuPesv7T70n2n3oEaZn96YZ/es43NNNzQM0TP71GZ/es83HvTDce9AGg0/vUTT+9UWuPeomuKQF1p/eoWmqo09RtNQMtNNULS1WaWozLSGWGlqJpKhMlML0XAlZ6jL0wtSbqQxxNNJpuaM0ALmjNNzSgE9KQBmipUgJ61YjtvanYCqsbNU8dsauJbgVMqAU7CuV47cCrCoBTsUtUIQClopaYgoopaAEpaKKQBRSUtABRRRQAUUUoUmmA2lAJqVYSanS3oEV1iJqZIKtx22e1W47X2oApx2/tVqO29qux2vtVqO29qAKcdt7Vajt/arkdv7VYS39qAKsdvVlIKspD7VOkPtQBXSHHap0iqdIamWKgRAsVTLFUyxVKsdMZCsdSrHUqx1U1bV7PRIVa6YtK4/dwRjLv8Ah2HuaQi6kWT0rhPiNqU0txBpNiHk8seZMqH5dx+6GPbAyce4qDVvFmr3W5FVrGA/wRZDEe7dfyxWELs/SluPYqweFzMm+a8WKQ9gm79c1ct08SaB+80m/aWMfwIev/AD/SpI7rPercd1707ILsv6d8TVYiDX7Jo3HDSxD+amult59M1uHzNOuI5x3A6j6jrXGTxWt8u26iWT37j8ayZfDk1vMLjRrpkkU5UbtrD6EUaisjtr7Qo3bOzDA5DDgg1p6X4y8S6BtRrn+1LVePJu+WA9pPvfnmuGs/HWr6W4g160+0oON5G1/wA+hrqdO13RNcAW1uVjmP8Ayxl+Vv8A6/4UvQevU9J0T4kaHrDLDcyHS7w8eTdHCsf9l+h/HB9q6zPGe1eGX2jKynegYe4qvp2r6z4Zb/iT38kUIPNtJ+8iP/AT0/DBp3fUR7yajI5rz/RPi3p9wyweIoP7Om6efGS8TH+a/qPeu4bUrJdPN+buH7GE3mfeNm31zQIytV8F+GNX1FNS1fRbW5uoyG8xgRvI6bwCA/T+IH0rI1zxtHaT/wBlaBbNf36rhbW2ACxKOAWPRFH+FULzX9S8aM8GiNNpujKxWS+YYknxwRGP0z0HuRirmnaZY6NZi202ARJ1djy8h9Wbqx5/DoMCmtdgfmZdn4dlub1NT8VXK6nfqcxR4/0e3/3EPU/7R9ulb5f1qJpKdFG9w2E4A6segp2sIXd/9arttCyAs/BPQelPgto4Rlfmfuzdfw9KmxSGNxRin4oxSGNxS4p2KMUCExS4pcUoFAxMUuKXFLigBMUuKXFLigBMUuKWlxQAgFKKWloA6mkoooAKKSigBaKTNFAC0UlFAC0ZpPpRmgBaKSigBaKTNFABRSUUAFNNLSUANIppFPNIRQBERUZWpyKYRQBXZKheOrZWmMtAFB4qrSQ1pslQtHQBkSW+e1Upbb2rdeKq0kNAHOzWntWfPY57V1Elv7VUltfamBx1xpwOeKybnTBz8td1Nae1Z89jntQB57daSDn5axbvR85+X9K9Kn07OeKzbjSwc/LSsM8tudHK5wMVlzWLoeleoXOk9flrHutHBz8tTYaZ5+UZD3FKJZF75rp7rRuvy/pWXPpTrnAqbFXM8XTDqKkW896bJaSJ/DUBjIpDLou/eni796zdpFGW9adwsaguvel+1e9Ze9hR5houFjT+0+9J9orN800eYaLhY0Dce9NM9UfMNG+i4Fwz+9MM1Vt9JuouBYMtNMnvUO6k3UgJC9IWqPNHNADi1JmjBpQhNADc0VKISakW3pgVwCacsTGrqW1TpAB2p2C5RS2qzHbe1WVjAp4GKdibkaQgVIFApaWmAlFLRQIKKKWgAooooAKKKKYBRRRSAKKACakWImgCOnBCasJbk9qsx23tTEVEhJqdLf2q9Ha+1Wo7T2oAoR2xParcVr7Vfjtfarcdr7UAUY7X2q1Hbe1XUt/arCW/tQBUjtqsJBVpIPap1hoArJB7VMsNWVh9qlWKgCusNTLFU6x1IsdMRCsdSLHUyx1IsdAESx1IsdTLHUix0gKlzIllZz3UwzHBG0rAdwoJP8q5bwJPp2rm41bV5Uk1SeQ4VzxEvYKPpx9APeug8WfuvBurOOotmH5kD+teKW8kkCo8LsjAZyDU394q10ezan4YgvdzxBTn0rjNT8ISwMxjU4qhpXjfUrBlEkhkUetdtpnjSw1NAlzhXPXNVuTqjziexntm+ZG/Ko1lKnmvW7jR7HUo90BVs+lcvqfgxhkxCkVucpHPVhLnHemXWi3doxyhI+lUizo2GBH1p3FY1zOk0eydVkU/wsM1l3fhqzucvZubeTsOq/8A1qVZsVMtwR3p7i2ILbW/EvhwBJ83VovZ/nXHseorUj8U2GrRYA+z3GOY2PX6GoUvWA61zmuwwSnzY0VJO5UYzSHuXNQu8sRVa21y9skEMcgltt/mG2mG+It2baeM+9YkV5If3crEnoGNW1ti/Jf9KlMdjutJ+Kup21zGt/HDNajCmNE2FV/2fTFek2WuWmr2aXVjKHiYfip9CPWvAlslJ5JNdBourS6MpSFiI2OSvv61alfchxtsezRsrHMhwP7uefxrRiuFCgLgDsBXmFn4s343Niuhs9eWQD5/1qiTt0nB71Ksma5u31NWx81aMV4D3qSjXBzSiqUdwD3qwsoNAE9Liow+aeDSAXFLigU4UDExS4paKACilpaAExS0UtABSiiigDpzSUUUAJRRRQAUUUUAFFFGaAD60UlGaAFopKKAFzRSUUAFFJRQAtJRSUAFJS0lACUhFOpKAIyKaRUpppFAEJWo2WrBFMIoArMlQvFVwrTGWgDPeH2qu8Oa02SoXioAyJLf2qrJbe1bbw1XeDNAGBLaA9qpTWWe1dJJb+1VpLbPamByk9gDnis6fTs5+Wuxltfaqctn7UAcRcaWDn5ay7jSQc/L+ld9NYg54qjNp+c8UAed3Gjjn5ayrnRuvy16VNpvtWdPpY5+WlYZ5nNpTrnAqo9nInVa9Gn0nOflrNn0j/ZqbD5jhTER1FMKV1k+j9flrPm0kjoKViuYw9tJtrSk0917VC1qw6ilYdynto2+1WfJI7UeUaLBcrbKNlWfKpwhosFyrspRHVsQ08Q0WC5SEVPEOauCIU8RinYVyotvUq29WQopwGKdhXIVhA7VIIwKfRTAAMUtJS0AFFFLQAYoopaBCUtFFABRRRQAUUuKUITQA2jGamWAmp0tSe1AFQITUqQE1fjtM9qtR2ftTEZyW3tVmO1z2rTjs/arUdp7UAZsdn7VajtPatKO09qsx2uO1AGfHa+1WY7X2q+lt7VOlv7UAUktvarCW/tVtYPaplhoAqrBUyw+1WVhqVYqBFdYalWKrCxVII6YECxVII6nEdPEdICFY6eI6mEdPCUwIhHTwlTBKeEpARKlShKeqVIEoA53xwNvgTVj/wBMVH/j614pGmIV+le3+PU/4oHVQWC5WPJPQfvFrxULtUKRggf5+tR9plrYiK0qkocqSDTiKTFAGpp3iO/09wY5SQOxNdnpXj+GcCO+UA+tec4oxTuB7ODpuqxbo3Qk9q57WvDcARnTArgrfULqzYGCVl9s1bn8WXzwmORsigRT1BRaSEKelURfjOKqXt7JO5LZ5qiPMZuM0XHY2n1ABcA1n3Erz/SiKA4y5p0uFXAouFjLkT94a2bFvMtlbv0NZL/6wVf0t8ROvoalDexpAc05+VFRb8U4PuqkSKrMhyDir1tqc0JHzGqWKXFUI6mx8SMuNzV0Vj4jRsZavNRxU8VxIjfKxqri5T2G11lHxhq1oL8NjBrybTb25yOtdbp93Lgbs0aCO6iuQe9WklzXOWtwxAzWrDKTikBqK1PBqpG9Tq1IZMDTqYDThQA6iiloAKWkpaACiiigDpqT60Gg0AJRRRQAUUUUAFFJRQAtJRRQAUZoooAKKSj9KACiikoAWkoooAKKSigAoopKACkpaSgBCKQinUlAEZFMK1MaaRQBAVphSrBFNK0AVWSo2iq2VpjLQBReKoHhrRZKjaOgDKeCq0lvntWy0VQND7UAYklr7VVktPat94Kge39qAOdks89qpy2Oe1dO9t7VWktfagDlJdP9qpS6aD2rr5LT2qrJZe1MDjJtM/2aozaXn+Gu3ksfaqslgPSgDhJdJz/DVGXSf9mu+k07Paqsmmj0pWGefyaT/s/pVWTTCO1egSaWP7tVZNKz/DRYLnBNYuvaozbsvUV20mk/7P6VWk0n/ZpDucj5RHajbjtXSvpP+zUDaT7UBcwsUtazaWfSom01h2oC5nUtXDYOO1NNk47UAVaKs/Y39KT7K/pQBBRU/wBlf0pfsj+lAEFFWRaN6Uos29KAKtLVwWLelSLYH0oAzwDTghPatRdPPpUyaefSmIyBCx7VItsTW2mnH0qwmne1AGElmT2qxHZH0rdTTvarKWHtQBhx2XtVqOy9q2UssdqsJZ47UAZEdl7Vajs8dq1Etfap0tvagDNS09qnS19q0Vt/apUt/agCilv7VOtv7VdWCpFh9qBFNYKlWH2q2sNSLFTAqrDUqxVYEVSCKgCusVPEdWBHTxHQBAI6eI6nEdOCUgIRHTwlTBKcEoAiCU8JUoSnhKAIglPCVIEpwWgBgSnhKeq1IFoA5X4iAr4B1HH8RjB/7+LXiIUoMKcD06j8q9z+Ise7wFff78Wf++xXibJUdWX9lEG4/wAS/iv+FKuGGVOf6U/bTSgY5I59RwRTAXFGKBuHfcPfg/nSggnHQ+hpANYVWlWrbDiqstMCq0YNCRgHpUhFA4pDFPAqpO1WXYBaz55MnigCuxy4qxZSbHeqxPzU6JsMaQzSM1S2r75se2azvMq5ph3XLeyf1FUtyTSxSgU/aSeKu2mnPMwyKokpxQPK2FFbFjpDOQSK2NO0UDGV/Suks9MVcfLTsK5lWGj7cZWt+10/bjir9vZhccVoRW4HagCtBa7ccVfiixUscOO1WEjpANjSrCChUqQLQAoFOFAFKBQAopaSloAKWkooAWiiigR0tJQaSgYUfSkooAXNFJmigBc0lH60UAFFFJQAtFJRmgAoopKAFopKKACiikoAWikooAKKKSgAoopKACiikoAKSlpKAEpMU6koAYRTStSGkIoAhK00rUxFIVoArMlRslWitMK0AVGj9qjaKrpSmFKAM9ofaoXgzWkUqNo6AMp7f2qF7b2rXaKomhoAxntfaoHtPattoPaomt/agDBez9qgey9q6Brf2qJrb2pgc49j7VA9gPSuka19qia19qAOYew9qgfTh6V1DWntUbWntQByjaaP7tRNpg/u11Zs/aozZe1AHJNpg/u1C2l/7Nde1l7VG1j7UAcg2lD+7UZ0n/ZrsDY+1MNiPSgDjzpI/u0w6T/s/pXYmwHpTTYD0oA4/wDsn/Zo/sr2rr/sA9KT7APSgDkxpX+zThpf+zXVfYR6Uosh6UAcwumD+7Ui6b/s10osh6Uos/agDnl07HapV08elb4tPanC09qQzEWwHpUq2XtWyLX2p4tvagDJWz9qkW09q1Rb+1OFvQIzFtfapFtvatEQe1PEPtQBQW39qkWD2q6IaeIfamBTWCpFhq2IqeIqAKoip4iqyIqeI6AKwip4jqwI6eI6AK4jp4jqcR04JQBAI6cEqcJShKQEISnhKlCU4JQBEEpwSpQtKFoAjC04LUgWlC0AMC04LTgtOC0ANC1IFoAp4FAGd4g0n+2vDl7p4O15o/kJ7MDkfqK+f7u2mtLmSC5jaKWNirow5U19KqKwPEvgnTfEq+ZKDBdgYWeMcn2I71DundFqzVmeAkUmK6zXPh5rejlnWH7ZAP8AlpAMnHuvWuWZSjFWBVh1BGCKE0waaGYoxxg9PQ07FBFMRGy4HynHseRVSViPvKfqvNXWHFVZRzSGVTKg6nH1GKaZuOAT+GKkaq8nSgZDNKW6nj0qs5p8h5qI80hjM80KeadsY9BTlif+7SGAq/YSNESQODUEVv3b8quRxEkACqRLNrTriJ3AcYNdlpkUTqNuK4rT9MlkcHGK7PSbKWIDk1aM2dPZ26gDiteCADHFZtkjgDNbNuOBVCLEUQq0kdMjWrKLUjFVKlVaFFPAoAAKcBQBTqADFFLRQAUUUUAFFFFAC0UlFAjpKQ0E0nWgYtJRRmgAopKKAFozSUUALRSZpKAFzRmkooAWkoooAKKKSgBaKSigAopKKAFozSUUAFFJRQAUUlFABRRSUALSUUUAFJRRQAlJS0lACEU3FPpKAIytNK1LSYoAhKUwpU5FIRQBWKUwx1aK00rQBUMdRmOrhSmlKAKRi9qjaGrxjppjoAz2h9qjaCtIx0wxUAZrW/tUbW/tWmYqYYqAMs2/tTDbe1ahhpphoAyjbe1MNt7VrGH2ppgpgZJtfamm29q1jDTTBQBkm29qb9l9q1zB7U0wUAZP2X2pPsvtWsYPak8ikBk/Zvaj7N7VqeR7UeRTAy/s3tS/ZvatPyfak8mgDO+z+1L9n9q0PJpfJpAZ4g9qUQe1X/Jo8r2oApCH2pfJq75VL5VAFIQ04RVb8ql8qgCoIqcIqteXThHTEVRFThHVkR0vl0AVxHTxHU4SlCUAQBKcEqbZS7KQyEJTglS7KXbQBFsp2ypNtO20ARBaXbUu2l20ARbaXbUm2l20AR7adtp+2jFADdtLinYpcUANApwFLilxQAop4pgpwoAfwetYeteDNG15Sbu1VZe0sfysPxFbYpwNS4p7lKTWx43rnwq1Kx3S6VILyIfwNw4/oa4i6s7iymMN3BJBIOqyLg19OZqhqeh6brMBi1G1jmU9yOR+NTaS21LunufNL9Kqy169rnwgDbpNDvCncRTcj8D1rzvV/BniDTHIn06R1H8cR3ClzrqHK+hzbmqsz8VantL5CQ1nMp/2lxVcWVw5/eIw9sVVxWKeC7YAqVIMdeTV1LN14EZ/KpksZm6IfyosFykI6lSEnoK1bfRppCMqa3LHw+eNy/pTJuc7a6XJMR8tdDp2gcgla6Wy0RUA+X9K3LXTAuPlqrCMaw0cIB8v6Vv2unhQOKvwWQXHFaEVvjtTEVoLXbjir0UOKmjhxU6x0gGJHU6rSqtPAoAAKcKAKUUAKKWkpaAFopKKYC0lFFABRRmigQtFJRQB0dIaXNJSGFGaSigBaPrSZpKAFzRSZozQAuaKTNFABRSUUDFopKKBC0lGaSgBaSiigBaSkozQAtFJRQAtJmiigAopKKACikooAWkopKAFpKKSgBaSiigApKKSgApKWkoASkNLRQA2kxTjSUANxSEU6igBhWmlakpKAIilNKVNikxQBAUppjqxikxQBWMdNMdWitN20AVTHSGOrW2kK0AVTHTTFVvZSbKAKnlU0xVc2U3ZQBU8qk8qreykMdAFTyqTyqt7KPLoAqeVSeVVvy6PLoAqeVR5VWvLo2UAVfLo8urXl0nl0AVvLo8urOyjZQBW8ujy6s7KNlAFfy6XZU+yl20AQbKXZU22jbQBCFpdtS7aXbQBFtpdtSbaNtAEe2l21JijbQAzbQFp+KXFADNtLtp2KXFADMUuKdijFADcUYp2KKAExRilooAMUUtFAAKWkpaAFpc02igB+aUGmA0uaAHZpkkaSqQ6hh7ilzRSsO5i33huyuskwJn6Vz134Mt8nZGPyru6YyBuopWHc8ym8IRqeIx+VQf8Iwi/8s/0r0yS1Vu1V3sVPamBwMeghP4P0q9BpQX+GuqNivpQLMDtQIxYbAL2q7Fagdq0FtgO1SLDimIrRwY7VOsWKmWOnhaAGKlPC04CnYoAQClxS0UwCiiigQUtJRQAtFJRQAUUUlAxaKSigBaM0lFAjpDSUGkpDDNJRmj9aAFzSdaSjNAC0UUlIBaM0lFMAzRSZozQAtGaTNFAC0lFBoAKKSjNAC0UlFABmjNJQTQAtFJmj6UAGaKM0lABR9KKSgBaSjNJQAtFJSUALmikozQAUUlFABRRSUAFJRRQAUlFFACUUUUAJSUtJQAUlFFACUUtJQA2jFLSUAJikxTqSgBMUlOpKAG4pMU6igBuKTFOooAZijFOoxQA3FGKdSUANxRinUUAMxRinUUANxSbafSUANxRtp1FADcUmKdRQA3FGKdRQA3FGKdRQA3FGKWigBMUYpaKAEpcUUUAFFFFABRRRQAUUUUAFFFFABRRSUALRSUUALRmkooAXNLmm5ozQA7NGaTNGaAFzRmkzRQAtIRRmimA0rTdgqSkpAR7BRtqSkpgN20uKWigBMUtJRQAtJRRQIKSjNJQAuaM0lLQAtJmikzQMWkozSZoAWikooAXNFJmjNIDpKSikNABRSUZoAWkzRRmgAoozSUALRSfSigBaSkzRQAuaKSigYuaPpSUUhC0maM0lMBaSikoAWik/WjNABRSUZoAdmkzSUZoAWkzRSZoAXNJRmkoAWikzRQAUUlFABRmkooAWkpM0UALSUUlABRRSUAFFFJQAUUUlABSUUUgCiikoAKKKSmAUUUlABSUtJQAlFFFACUUUUAFJS0UAJRRRQAlFFFABSUtJQAUUUUAJRRRQAUUUUAJRRRQAUUUUAFFFFACUUUUAFFFFABRRSUAFFFFABRRRQAtJRRQAUUUUAFFJRQAtFJRQAUUlFMBc0UlFAC5pc02igB2aM02igB1JSUZoELSUZpM0ALRmkzSZoGLRmkooAWjNJRQIM0UlFAwoozSZoELRSUUALmkzSUZpDFzRSUUCFopKKYzpM0lFIaQBRmkzRQAtGaTOaM0hi0lJRTELmjNJRQAZoNJRQAtGfekpKAFzRmkozQAuaKSigBaTNJmjNIBaKSkoAdmkzSUZ/GmAuaM03PpRmgBetFJmigBc0lJmjNAC0ZpM0maQC5opKTNMBaKSikAZopM0UALRSUZpgFJRmigApKM0UAFJRRSAKSiigAopKKACikooAKKSimAUlLSUAFFJRQAUUUlABRRRQAUUUlABSUUUAFFFFABSUtJQAUlFFABRSUUALRSUUALSUUUAFFFJmgBaKSigAooooAKKKSgBaKSigApaSigBaKSjNAC0lFJQAtFJRmgBaSiigAopM0UALSUUUAFFFJQAtFJRQAtFJRQAUUlFMBc0maSjNAC5ozSZpM0AOzSUmaKAFopKKADNGaSigBaKTNFABRRRQAUUlFAC0UlFAHSZpDRSUgDNFJmigBaDSZ9aSgBc0UhNFIYtJmikzQAtFJmgmgBaM+1JSZoAWikNFACk0n40UlAhaM0lB96YC0U2jNIBaM0n60lMBaM0maM0ALmkpM+tFAC5ozSUZoAM0UmaSgBc0ZpM0UALmkozSUgHUmaSjNMBaTNJ9KM0ALSUmaM0ALmikzRQAUZpKKQATRSZooAKKSigAopM0UALSUUlAC5pKKSmAtJRRQAUUlFABRSUUAFFFJQAtFJRQAZozSUUALSUZooAKSikoAWkoooAKKSigBaKSigBaKSigAozSUUALRSZooAWikooAWkoooAKKSigBaSiigAzRSZooAWjNJmigBc0UlFABmikooAWikooAWikooAWkzSUUALSUUmaAFpKKSgBc0UlFABRRSUALRSUUALRSZooAKKSigBaKSigBaKSjNAC0UmaTNADqSijNAjo80lFJ9aBhRmkooAXNJRzSZpDFo+tJRQIWkziij60DCjNJRQAUtJSfSgQtGaTNFAC0melFJmgBaKQmkpgLRSZooGLSZ/GkJozSAWkopDTELR2opM0gFoz6UlJmgBaSjNJTAWj9KTNJQAtGaTPpRmgBc0ZpM0maQCmkzRmkpgLmikzSfSgB2aKbRmkAuaM0lGaACikozQAuaSkzRmgBc0lJRQAuaKSigAopM0UAFFGaTNMAozSZoNABRSUUALRSZooAWkoNJQAtJRSZoAWkoooAKSjNJQAtFJRQAZopM0UALRmkooAWikzRQAZopKKAFopKKAFopKKAFozSUUALSUZpKAFozSUUAGaKSjNABS03NFADqKTNFABRmkooAKWm0UAOopKTNAC5opKKAFpM0lFAC0UlFABRSZooAWikooAKKKSgBaSiigApabRQAtGaTNJmgB2aTNJmkzQA7NGabmigB2aM03NGaAOlpDS0lABScUZpM0ALSUdaKQwNFJRQAtJRn1pKAFozSfSjNAgozRR3oAM0ZpKM0ALSZo/SimAmaDRmk6UALSZpKM+tAC5o+lJ7UmaQC0ZpKKAFzRmkzRQAUZpM0ZpjFzSZpKM0CFpKQ0UALRmkozQAUZpKM0AFFJRmgAo/Wk7UZoAXNGaTNJmgB1JmkzRQAtJmkzRmgBc0UmaSgBaKTNGaQC0maTNGaAFzSZopKYC5pKTNGaAFozSUUAFFJmjNAC0U3NGaAHZpKTNGaAFpKSigBaSkozQAtJmkooAXNJRSUALmjNJRQAuaM0lFAC0UmaSgBaKTNFAC5opM0UALmikzSZoAdSZpM0UALmjNJSZoAdmkzSZooAWikzRQAZopKM0ALmlzTaM0ALRSZooAWim0UALmjNJRQAuaSkzRQAuaKSigBaKTNFABmjNJRmgBc0ZpKTNAC5ozSUUALmikzSZoAXNFJRQAUUlFABRmkpM0AOzRmm5ozQA6ikzRmgDpqQ0UlABRSUUAFFFJ3oAWj60lHWkMO/Wj9KKSgBf1pOtFFAg+tGaKT9KACiikNAC59aTNH60namAcUUE0lIAPajNFJQAv1o70lJ9KAFpM4NFJQAuaKSjPagBc0ZpKM0AFGaSimAufSkpOtGaAF9KTNGaQnpSAU0UnWkzTAXNJRSZoAXNFJRmgAzRmkozQAuaTNJmigBc0lJRQAuaKTNJmgBc0UmaP0oAXNFJmkoAdmkpM0UABozSZpKAFoozSUALmkzQTSUALmkopKAFopKM0ALRSUlAC0ZpKTNAC0UlFAC0maKKACiiigAopKKACiikoAWikpM0ALRSZooAWikzRQAuaKbmigBc0UlFAC0UlFABRSUZoAXNGaTNFAC5opKTNADqTNJRmgBaM0maTNADqSkzRmgBaKTNGaAFopKKAFopKSgBc0UmaKACjNJRQAtFJRQAUZpKKAFopKKADNJmikzQAtFJSUCFozSUUALS02loA6aiggjtRQMSij8KKACkpce1GD6UAIc0n1paKADvSUopOaQAaO9HNBFACfrRRRzTASilOaSgBDRmgUUAJ+FFKaQ5oATHpRRiigApOtLzSYoAKT8aXFHNACUZoyaKAEopSKTFABn1pKUZpP1oAKKKQcUAFJS/WkoAO9J0paSgA/nSUUUAFGaKPagBKPwopKACiijFACUUUc0ALSUdaKAEo/WiigApKWkoAKKKKACko5ooAKSiigApKWkoAKKKDQAlFFFABRRSUAFJSmkoAKKKKACiiigAoopKACiiigApKKKACkoooAKKKSgBaSiigApc0lFAC0lFFABRRSUAFFFJQAuaSiigAooooAKKKSgBaSiigAooooAKKKKACikpaACkoooAKKKSgAoopKAFopKKAFopKKACiiigQlJS0UAJRQaSgAooooAWgUUooA//9k=;" vertex="1" parent="1">
          <mxGeometry x="-620" y="1100" width="374" height="374" as="geometry" />
        </mxCell>
        <mxCell id="OGZzgrUzzfipdHDDwRRy-3" value="&lt;b&gt;&lt;font style=&quot;font-size: 30px;&quot;&gt;Command Pattern&lt;/font&gt;&lt;/b&gt;" style="text;strokeColor=none;align=center;fillColor=none;html=1;verticalAlign=middle;whiteSpace=wrap;rounded=0;" vertex="1" parent="1">
          <mxGeometry x="-620" y="70" width="390" height="30" as="geometry" />
        </mxCell>
        <mxCell id="OGZzgrUzzfipdHDDwRRy-4" value="&lt;font style=&quot;font-size: 20px;&quot;&gt;let&#39;s dive in another pattern, the pattern says instead of sending a command to a device, what about encapsulating that command so that u can use it with anything. u don&#39;t understand, right?&lt;br&gt;well, I&#39;ll try to demonstrate that with first, the general UML of the pattern&lt;br&gt;and second, an example&lt;br&gt;&lt;/font&gt;" style="text;strokeColor=none;align=left;fillColor=none;html=1;verticalAlign=middle;whiteSpace=wrap;rounded=0;" vertex="1" parent="1">
          <mxGeometry x="-850" y="140" width="850" height="130" as="geometry" />
        </mxCell>
        <mxCell id="OGZzgrUzzfipdHDDwRRy-13" style="edgeStyle=orthogonalEdgeStyle;rounded=0;orthogonalLoop=1;jettySize=auto;html=1;entryX=0;entryY=0.5;entryDx=0;entryDy=0;endArrow=open;endFill=0;" edge="1" parent="1" source="OGZzgrUzzfipdHDDwRRy-6" target="OGZzgrUzzfipdHDDwRRy-8">
          <mxGeometry relative="1" as="geometry" />
        </mxCell>
        <mxCell id="OGZzgrUzzfipdHDDwRRy-6" value="Invoker" style="swimlane;whiteSpace=wrap;html=1;" vertex="1" parent="1">
          <mxGeometry x="-800" y="310" width="200" height="90" as="geometry" />
        </mxCell>
        <mxCell id="OGZzgrUzzfipdHDDwRRy-7" value="&lt;font style=&quot;font-size: 15px;&quot;&gt;Inover(Icommand)&lt;br&gt;ActionTheCommandDo()&lt;br&gt;&lt;/font&gt;" style="text;strokeColor=none;align=left;fillColor=none;html=1;verticalAlign=middle;whiteSpace=wrap;rounded=0;" vertex="1" parent="OGZzgrUzzfipdHDDwRRy-6">
          <mxGeometry x="10" y="40" width="170" height="30" as="geometry" />
        </mxCell>
        <mxCell id="OGZzgrUzzfipdHDDwRRy-8" value="&lt;i&gt;ICommand&lt;/i&gt;" style="swimlane;whiteSpace=wrap;html=1;" vertex="1" parent="1">
          <mxGeometry x="-320" y="310" width="200" height="90" as="geometry" />
        </mxCell>
        <mxCell id="OGZzgrUzzfipdHDDwRRy-9" value="&lt;font style=&quot;font-size: 15px;&quot;&gt;execute()&lt;br&gt;unexecute()&lt;br&gt;&lt;/font&gt;" style="text;strokeColor=none;align=left;fillColor=none;html=1;verticalAlign=middle;whiteSpace=wrap;rounded=0;" vertex="1" parent="OGZzgrUzzfipdHDDwRRy-8">
          <mxGeometry x="10" y="30" width="170" height="30" as="geometry" />
        </mxCell>
        <mxCell id="OGZzgrUzzfipdHDDwRRy-12" style="edgeStyle=orthogonalEdgeStyle;rounded=0;orthogonalLoop=1;jettySize=auto;html=1;entryX=0.5;entryY=1;entryDx=0;entryDy=0;endArrow=block;endFill=0;" edge="1" parent="1" source="OGZzgrUzzfipdHDDwRRy-10" target="OGZzgrUzzfipdHDDwRRy-8">
          <mxGeometry relative="1" as="geometry" />
        </mxCell>
        <mxCell id="OGZzgrUzzfipdHDDwRRy-16" style="edgeStyle=orthogonalEdgeStyle;rounded=0;orthogonalLoop=1;jettySize=auto;html=1;entryX=1;entryY=0.5;entryDx=0;entryDy=0;endArrow=open;endFill=0;" edge="1" parent="1" source="OGZzgrUzzfipdHDDwRRy-10" target="OGZzgrUzzfipdHDDwRRy-14">
          <mxGeometry relative="1" as="geometry" />
        </mxCell>
        <mxCell id="OGZzgrUzzfipdHDDwRRy-10" value="Command" style="swimlane;whiteSpace=wrap;html=1;" vertex="1" parent="1">
          <mxGeometry x="-320" y="520" width="200" height="110" as="geometry" />
        </mxCell>
        <mxCell id="OGZzgrUzzfipdHDDwRRy-11" value="&lt;font style=&quot;font-size: 15px;&quot;&gt;Receiver r;&lt;br&gt;Command(Receiver)&lt;br&gt;execute()&lt;br&gt;unexecute()&lt;br&gt;&lt;/font&gt;" style="text;strokeColor=none;align=left;fillColor=none;html=1;verticalAlign=middle;whiteSpace=wrap;rounded=0;" vertex="1" parent="OGZzgrUzzfipdHDDwRRy-10">
          <mxGeometry x="10" y="30" width="170" height="80" as="geometry" />
        </mxCell>
        <mxCell id="OGZzgrUzzfipdHDDwRRy-14" value="Receiver" style="swimlane;whiteSpace=wrap;html=1;" vertex="1" parent="1">
          <mxGeometry x="-800" y="520" width="200" height="110" as="geometry" />
        </mxCell>
        <mxCell id="OGZzgrUzzfipdHDDwRRy-15" value="&lt;font style=&quot;font-size: 15px;&quot;&gt;action()&lt;br&gt;&lt;/font&gt;" style="text;strokeColor=none;align=left;fillColor=none;html=1;verticalAlign=middle;whiteSpace=wrap;rounded=0;" vertex="1" parent="OGZzgrUzzfipdHDDwRRy-14">
          <mxGeometry x="10" y="30" width="170" height="80" as="geometry" />
        </mxCell>
        <mxCell id="OGZzgrUzzfipdHDDwRRy-17" value="&lt;font style=&quot;font-size: 20px;&quot;&gt;without the command pattern, the diagram will be like this&amp;nbsp;&lt;br&gt;&lt;/font&gt;" style="text;strokeColor=none;align=left;fillColor=none;html=1;verticalAlign=middle;whiteSpace=wrap;rounded=0;" vertex="1" parent="1">
          <mxGeometry x="-850" y="670" width="850" height="40" as="geometry" />
        </mxCell>
        <mxCell id="OGZzgrUzzfipdHDDwRRy-23" style="edgeStyle=orthogonalEdgeStyle;rounded=0;orthogonalLoop=1;jettySize=auto;html=1;endArrow=open;endFill=0;" edge="1" parent="1" source="OGZzgrUzzfipdHDDwRRy-19">
          <mxGeometry relative="1" as="geometry">
            <mxPoint x="-10" y="715" as="targetPoint" />
          </mxGeometry>
        </mxCell>
        <mxCell id="OGZzgrUzzfipdHDDwRRy-19" value="Invoker" style="swimlane;whiteSpace=wrap;html=1;" vertex="1" parent="1">
          <mxGeometry x="-320" y="670" width="200" height="90" as="geometry" />
        </mxCell>
        <mxCell id="OGZzgrUzzfipdHDDwRRy-20" value="&lt;font style=&quot;font-size: 15px;&quot;&gt;Receiver r;&lt;br&gt;Invoker(Receiver)&lt;br&gt;ActionTheCommandDo()&lt;br&gt;&lt;/font&gt;" style="text;strokeColor=none;align=left;fillColor=none;html=1;verticalAlign=middle;whiteSpace=wrap;rounded=0;" vertex="1" parent="OGZzgrUzzfipdHDDwRRy-19">
          <mxGeometry x="10" y="40" width="170" height="30" as="geometry" />
        </mxCell>
        <mxCell id="OGZzgrUzzfipdHDDwRRy-21" value="Receiver" style="swimlane;whiteSpace=wrap;html=1;" vertex="1" parent="1">
          <mxGeometry x="-10" y="670" width="200" height="110" as="geometry" />
        </mxCell>
        <mxCell id="OGZzgrUzzfipdHDDwRRy-22" value="&lt;font style=&quot;font-size: 15px;&quot;&gt;action()&lt;br&gt;&lt;/font&gt;" style="text;strokeColor=none;align=left;fillColor=none;html=1;verticalAlign=middle;whiteSpace=wrap;rounded=0;" vertex="1" parent="OGZzgrUzzfipdHDDwRRy-21">
          <mxGeometry x="10" y="30" width="170" height="80" as="geometry" />
        </mxCell>
        <mxCell id="OGZzgrUzzfipdHDDwRRy-24" value="&lt;font style=&quot;font-size: 20px;&quot;&gt;the problem with that is, it&#39;s hardcoded, what i mean is every button of that invoker&lt;br&gt;will do just one thing that is dedicated to do, it will act on just one receiver, but what if i want the end user to reprogram the buttons of the invoker so that it can multiple different things?&lt;br&gt;and what if i want that invoker to act on multiple receivers that are of the same type?&amp;nbsp;&lt;br&gt;like a lightBulb for example, i have multiple light bulbs in my room and i want when i press on one button, all the light bulbs will turn on, and when i press another button, all the light bulbs will turn off, and here &lt;b&gt;Command Pattern comes into play&lt;/b&gt;&lt;br&gt;&lt;/font&gt;" style="text;strokeColor=none;align=left;fillColor=none;html=1;verticalAlign=middle;whiteSpace=wrap;rounded=0;" vertex="1" parent="1">
          <mxGeometry x="-850" y="780" width="850" height="170" as="geometry" />
        </mxCell>
        <mxCell id="OGZzgrUzzfipdHDDwRRy-25" value="&lt;font style=&quot;font-size: 20px;&quot;&gt;now, let&#39;s consider an example using a mouse that has one programmable button, how does that work?&lt;br&gt;&lt;i&gt;&lt;font color=&quot;#ff3333&quot;&gt;note: that&#39;s totally my thinking of how this works, but I maybe wrong, maybe there&#39;s a better implementation other than command pattern, the important thing is u understood the pattern and how it works&lt;/font&gt;&lt;/i&gt;&lt;br&gt;&lt;/font&gt;" style="text;strokeColor=none;align=left;fillColor=none;html=1;verticalAlign=middle;whiteSpace=wrap;rounded=0;" vertex="1" parent="1">
          <mxGeometry x="-850" y="960" width="850" height="150" as="geometry" />
        </mxCell>
        <mxCell id="OGZzgrUzzfipdHDDwRRy-26" value="" style="curved=1;endArrow=classic;html=1;rounded=0;endSize=6;arcSize=50;strokeColor=#FF0000;entryX=0;entryY=0.333;entryDx=0;entryDy=0;entryPerimeter=0;" edge="1" parent="1">
          <mxGeometry width="50" height="50" relative="1" as="geometry">
            <mxPoint x="-370" y="1312.01" as="sourcePoint" />
            <mxPoint x="-200" y="1290" as="targetPoint" />
            <Array as="points">
              <mxPoint x="-320" y="1312.01" />
              <mxPoint x="-280" y="1290.01" />
            </Array>
          </mxGeometry>
        </mxCell>
        <mxCell id="OGZzgrUzzfipdHDDwRRy-27" value="&lt;font color=&quot;#ff0000&quot;&gt;&lt;b&gt;programmable button&lt;/b&gt;&lt;/font&gt;" style="text;strokeColor=none;align=center;fillColor=none;html=1;verticalAlign=middle;whiteSpace=wrap;rounded=0;" vertex="1" parent="1">
          <mxGeometry x="-200" y="1272" width="130" height="30" as="geometry" />
        </mxCell>
        <mxCell id="OGZzgrUzzfipdHDDwRRy-30" style="edgeStyle=orthogonalEdgeStyle;rounded=0;orthogonalLoop=1;jettySize=auto;html=1;entryX=0;entryY=0.5;entryDx=0;entryDy=0;endArrow=open;endFill=0;" edge="1" source="OGZzgrUzzfipdHDDwRRy-31" target="OGZzgrUzzfipdHDDwRRy-33" parent="1">
          <mxGeometry relative="1" as="geometry" />
        </mxCell>
        <mxCell id="OGZzgrUzzfipdHDDwRRy-31" value="MouseButtons" style="swimlane;whiteSpace=wrap;html=1;" vertex="1" parent="1">
          <mxGeometry x="-773" y="1530" width="200" height="90" as="geometry" />
        </mxCell>
        <mxCell id="OGZzgrUzzfipdHDDwRRy-32" value="&lt;font style=&quot;font-size: 15px;&quot;&gt;DoMacro(Icommand)&lt;br&gt;&lt;/font&gt;" style="text;strokeColor=none;align=left;fillColor=none;html=1;verticalAlign=middle;whiteSpace=wrap;rounded=0;" vertex="1" parent="OGZzgrUzzfipdHDDwRRy-31">
          <mxGeometry x="10" y="41" width="170" height="30" as="geometry" />
        </mxCell>
        <mxCell id="OGZzgrUzzfipdHDDwRRy-33" value="&lt;i&gt;ICommand&lt;/i&gt;" style="swimlane;whiteSpace=wrap;html=1;" vertex="1" parent="1">
          <mxGeometry x="-293" y="1530" width="200" height="90" as="geometry" />
        </mxCell>
        <mxCell id="OGZzgrUzzfipdHDDwRRy-34" value="&lt;font style=&quot;font-size: 15px;&quot;&gt;execute(params[] = null)&lt;br&gt;unexecute()&lt;br&gt;&lt;/font&gt;" style="text;strokeColor=none;align=left;fillColor=none;html=1;verticalAlign=middle;whiteSpace=wrap;rounded=0;" vertex="1" parent="OGZzgrUzzfipdHDDwRRy-33">
          <mxGeometry x="10" y="30" width="170" height="30" as="geometry" />
        </mxCell>
        <mxCell id="OGZzgrUzzfipdHDDwRRy-35" style="edgeStyle=orthogonalEdgeStyle;rounded=0;orthogonalLoop=1;jettySize=auto;html=1;entryX=0.5;entryY=1;entryDx=0;entryDy=0;endArrow=block;endFill=0;" edge="1" source="OGZzgrUzzfipdHDDwRRy-37" target="OGZzgrUzzfipdHDDwRRy-33" parent="1">
          <mxGeometry relative="1" as="geometry" />
        </mxCell>
        <mxCell id="OGZzgrUzzfipdHDDwRRy-36" style="edgeStyle=orthogonalEdgeStyle;rounded=0;orthogonalLoop=1;jettySize=auto;html=1;entryX=1;entryY=0.5;entryDx=0;entryDy=0;endArrow=open;endFill=0;" edge="1" source="OGZzgrUzzfipdHDDwRRy-37" target="OGZzgrUzzfipdHDDwRRy-39" parent="1">
          <mxGeometry relative="1" as="geometry" />
        </mxCell>
        <mxCell id="OGZzgrUzzfipdHDDwRRy-37" value="MacroCommand" style="swimlane;whiteSpace=wrap;html=1;startSize=23;" vertex="1" parent="1">
          <mxGeometry x="-293" y="1740" width="200" height="110" as="geometry" />
        </mxCell>
        <mxCell id="OGZzgrUzzfipdHDDwRRy-38" value="&lt;font style=&quot;font-size: 15px;&quot;&gt;Mouse m;&lt;br&gt;MacroCommand(Mouse m)&lt;br&gt;execute(params[] = null)&lt;br&gt;unexecute()&lt;br&gt;&lt;/font&gt;" style="text;strokeColor=none;align=left;fillColor=none;html=1;verticalAlign=middle;whiteSpace=wrap;rounded=0;" vertex="1" parent="OGZzgrUzzfipdHDDwRRy-37">
          <mxGeometry x="10" y="30" width="190" height="80" as="geometry" />
        </mxCell>
        <mxCell id="OGZzgrUzzfipdHDDwRRy-39" value="Mouse" style="swimlane;whiteSpace=wrap;html=1;" vertex="1" parent="1">
          <mxGeometry x="-773" y="1740" width="270" height="110" as="geometry" />
        </mxCell>
        <mxCell id="OGZzgrUzzfipdHDDwRRy-40" value="&lt;font style=&quot;font-size: 15px;&quot;&gt;DoMacroCommands(params[]=null)&lt;br&gt;&lt;/font&gt;" style="text;strokeColor=none;align=left;fillColor=none;html=1;verticalAlign=middle;whiteSpace=wrap;rounded=0;" vertex="1" parent="OGZzgrUzzfipdHDDwRRy-39">
          <mxGeometry x="10" y="30" width="260" height="80" as="geometry" />
        </mxCell>
      </root>
    </mxGraphModel>
  </diagram>
</mxfile>
